<?xml version="1.0" encoding="utf-8"?>
<!-- Generator: Adobe Illustrator 25.4.0, SVG Export Plug-In . SVG Version: 6.00 Build 0)  -->
<svg version="1.1" id="Ebene_1" xmlns="http://www.w3.org/2000/svg" xmlns:xlink="http://www.w3.org/1999/xlink" x="0px" y="0px"
	 viewBox="0 0 67.4 45.3" style="enable-background:new 0 0 67.4 45.3;" xml:space="preserve">
<style type="text/css">
	.st0{clip-path:url(#SVGID_00000036238398951952573550000008516058681731718066_);}
	.st1{fill:#723FEE;}
</style>
<g>
	<g>
		<g>
			<defs>
				<rect id="SVGID_1_" width="67.4" height="45.3"/>
			</defs>
			<clipPath id="SVGID_00000004512376347722804350000010689026045100706492_">
				<use xlink:href="#SVGID_1_"  style="overflow:visible;"/>
			</clipPath>
			<g style="clip-path:url(#SVGID_00000004512376347722804350000010689026045100706492_);">
				<path class="st1" d="M44.4,45.4c-0.8,0-1.5-0.7-1.5-1.5s0.7-1.5,1.5-1.5c1,0,1.4-0.6,2.4-3.2c0.8-2,1.8-4.4,3.8-6.9
					c2.6-3.2,6.9-6.2,10.2-8.3H1.5C0.7,24,0,23.3,0,22.5S0.7,21,1.5,21h58.8c-3.2-2.1-7.2-5.1-9.8-8.1c-2.1-2.5-3.1-4.9-3.8-6.9
					c-1-2.6-1.3-3-2.2-3C43.7,3,43,2.3,43,1.5S43.7,0,44.5,0c3.1,0,4.1,2.5,5,4.9c0.7,1.8,1.5,3.9,3.3,6c4.3,5,13.7,10.4,13.8,10.5
					c0.5,0.3,0.8,0.8,0.8,1.3c0,0.5-0.3,1-0.8,1.3c-0.1,0.1-9.5,5.2-13.7,10.2c-1.8,2.1-2.6,4.2-3.4,6.1
					C48.6,42.8,47.6,45.4,44.4,45.4z"/>
			</g>
		</g>
	</g>
</g>
</svg>
