<?xml version="1.0" encoding="utf-8"?>
<!-- Generator: Adobe Illustrator 24.0.1, SVG Export Plug-In . SVG Version: 6.00 Build 0)  -->
<svg version="1.1" id="Ebene_1" xmlns="http://www.w3.org/2000/svg" xmlns:xlink="http://www.w3.org/1999/xlink" x="0px" y="0px"
	 width="31.1px" height="31.1px" viewBox="0 0 31.1 31.1" style="enable-background:new 0 0 31.1 31.1;" xml:space="preserve">
<path id="iconmonstr-instagram-11" d="M15.6,2.8c4.2,0,4.6,0,6.3,0.1c4.2,0.2,6.2,2.2,6.4,6.4c0.1,1.6,0.1,2.1,0.1,6.3
	s0,4.6-0.1,6.3c-0.2,4.2-2.2,6.2-6.4,6.4c-1.6,0.1-2.1,0.1-6.3,0.1s-4.7,0-6.3-0.1C5,28,3.1,26,2.9,21.9c-0.1-1.6-0.1-2.1-0.1-6.3
	s0-4.6,0.1-6.3c0.2-4.2,2.2-6.2,6.4-6.4C10.9,2.8,11.4,2.8,15.6,2.8L15.6,2.8z M15.6,0c-4.2,0-4.8,0-6.4,0.1
	C3.5,0.4,0.4,3.5,0.1,9.1C0,10.8,0,11.3,0,15.6s0,4.8,0.1,6.4c0.3,5.7,3.4,8.8,9.1,9.1c1.7,0.1,2.2,0.1,6.4,0.1s4.8,0,6.4-0.1
	c5.6-0.3,8.8-3.4,9.1-9.1c0.1-1.7,0.1-2.2,0.1-6.4s0-4.8-0.1-6.4c-0.3-5.7-3.4-8.8-9.1-9.1C20.3,0,19.8,0,15.6,0z M15.6,7.6
	c-4.4,0-8,3.6-8,8c0,4.4,3.6,8,8,8c4.4,0,8-3.6,8-8c0,0,0,0,0,0C23.6,11.2,20,7.6,15.6,7.6z M15.6,20.8c-2.9,0-5.2-2.3-5.2-5.2
	s2.3-5.2,5.2-5.2s5.2,2.3,5.2,5.2C20.8,18.4,18.4,20.8,15.6,20.8C15.6,20.8,15.6,20.8,15.6,20.8z M23.9,5.4c-1,0-1.9,0.8-1.9,1.9
	c0,1,0.8,1.9,1.9,1.9c1,0,1.9-0.8,1.9-1.9c0,0,0,0,0,0C25.7,6.2,24.9,5.4,23.9,5.4z"/>
</svg>
