<?xml version="1.0" encoding="utf-8"?>
<!-- Generator: Adobe Illustrator 24.0.1, SVG Export Plug-In . SVG Version: 6.00 Build 0)  -->
<svg version="1.1" id="Ebene_1" xmlns="http://www.w3.org/2000/svg" xmlns:xlink="http://www.w3.org/1999/xlink" x="0px" y="0px"
	 width="35.1px" height="31.1px" viewBox="0 0 35.1 31.1" style="enable-background:new 0 0 35.1 31.1;" xml:space="preserve">
<path id="iconmonstr-twitter-1" d="M34.7,5.3c-1.3,0.6-2.6,0.9-4,1.1c1.5-0.9,2.6-2.3,3.1-3.9c-1.4,0.8-2.9,1.4-4.5,1.7
	c-2.7-2.8-7.1-3-9.9-0.3c-1.8,1.7-2.6,4.3-2,6.7c-5.6-0.3-10.9-3-14.5-7.3C1,6.5,1.9,10.6,5,12.7c-1.1,0-2.2-0.3-3.2-0.9
	c0,3.4,2.3,6.3,5.6,7c-1,0.3-2.1,0.3-3.2,0.1c0.9,2.9,3.6,4.8,6.6,4.9c-2.9,2.3-6.7,3.4-10.4,2.9c3.2,2.1,7,3.2,10.8,3.2
	c13,0,20.4-11,20-20.9C32.6,8,33.8,6.7,34.7,5.3L34.7,5.3z"/>
</svg>
