<?xml version="1.0" encoding="utf-8"?>
<!-- Generator: Adobe Illustrator 18.0.0, SVG Export Plug-In . SVG Version: 6.00 Build 0)  -->
<!DOCTYPE svg PUBLIC "-//W3C//DTD SVG 1.1//EN" "http://www.w3.org/Graphics/SVG/1.1/DTD/svg11.dtd">
<svg version="1.1" id="Ebene_1" xmlns="http://www.w3.org/2000/svg" xmlns:xlink="http://www.w3.org/1999/xlink" x="0px" y="0px"
	 width="121px" height="38px" viewBox="0 0 121 38" enable-background="new 0 0 121 38" xml:space="preserve">
<polygon fill="#151615" points="24.8,19.9 14.1,9.1 19.2,5.2 9.9,2.7 0.5,0.2 3,9.6 5.5,18.9 9.5,13.8 20.2,24.5 "/>
<path fill="#151615" d="M106.4,25.1l-1.6-7.7h3.9c3,0,4.6,1.2,5.1,3.8c0.6,2.6-0.5,3.8-3.5,3.8H106.4z M106.3,37.4h2.7l-2.1-9.8h3.8
	l6.8,9.8h3l-7-10.1c2.8-0.6,3.8-2.7,3.1-6c-0.9-4.2-3.6-6.3-8.1-6.3h-7L106.3,37.4z M88.4,37.4h13.4l-0.5-2.4H90.6L88.9,27h8.6
	L97,24.6h-8.6l-1.5-7.2h10.6L97,15H83.6L88.4,37.4z M71.1,25.5l-1.7-8h4.1c2.9,0,4.6,1.3,5.2,4c0.6,2.7-0.5,4-3.5,4H71.1z
	 M70.9,37.4h2.7l-2-9.5H76c4.4,0,6.3-2.2,5.4-6.4c-0.9-4.2-3.7-6.4-8.1-6.4h-7.1L70.9,37.4z M59.3,37.8c4.7,0,6.5-2.4,5.5-7.3
	L61.5,15h-2.6l3.2,15.2c0.7,3.5-0.3,5.1-3.3,5.1c-3,0-4.6-1.5-5.4-5.1L50.2,15h-2.7l3.3,15.5C51.8,35.4,54.6,37.8,59.3,37.8
	 M41.5,37.8c4.6,0,6.8-2.4,5.9-6.4c-0.7-3.5-2.8-5.4-6.8-6.3l-2.5-0.6c-2.6-0.6-3.8-1.6-4.2-3.7c-0.5-2.3,0.7-3.7,3.2-3.7
	c2.4,0,4.1,1.2,4.7,3.3h2.8c-0.9-3.6-4-5.8-8-5.8c-4.2,0-6.2,2.4-5.4,6.2c0.7,3.5,2.8,5.4,6.8,6.3l2.5,0.6c2.6,0.6,3.8,1.7,4.2,3.7
	c0.5,2.4-0.8,3.9-3.7,3.9c-2.8,0-4.7-1.3-5.3-3.7h-2.8C33.8,35.6,36.9,37.8,41.5,37.8"/>
</svg>
