<?xml version="1.0" encoding="utf-8"?><!DOCTYPE svg PUBLIC "-//W3C//DTD SVG 1.1//EN" "http://www.w3.org/Graphics/SVG/1.1/DTD/svg11.dtd"><svg width="198" height="199" viewBox="0 0 198 199" xmlns="http://www.w3.org/2000/svg" xmlns:xlink="http://www.w3.org/1999/xlink"><svg width="49.6" height="49.6" viewBox="-5 -5 49.6 49.6" id="accordion-closed" xmlns="http://www.w3.org/2000/svg"><defs><path id="aa" d="M0 0h39.6v39.6H0z"/></defs><clipPath id="ab"><use xlink:href="#aa" overflow="visible"/></clipPath><path clip-path="url(#ab)" fill="none" stroke="#58BDB3" stroke-width="2.7" stroke-linejoin="round" stroke-miterlimit="10" d="M19 0v39.6M39.6 18.6H0"/></svg><svg width="49.6" height="49.6" viewBox="-5 -5 49.6 49.6" id="accordion-opened" x="50" y="50" xmlns="http://www.w3.org/2000/svg"><defs><path id="ba" d="M0 0h39.6v39.6H0z"/></defs><clipPath id="bb"><use xlink:href="#ba" overflow="visible"/></clipPath><path clip-path="url(#bb)" fill="none" stroke="#58BDB3" stroke-width="2.7" stroke-linejoin="round" stroke-miterlimit="10" d="M39.6 18.6H0"/><g><defs><path id="bc" d="M-6 19.3h39.6V22H-6z"/></defs><clipPath id="bd"><use xlink:href="#bc" overflow="visible"/></clipPath></g></svg><svg width="25" height="25.9" viewBox="-5 -5 25 25.9" id="arrow-down" x="100" y="100" xmlns="http://www.w3.org/2000/svg"><defs><path id="ca" d="M0 0h15v15.9H0z"/></defs><clipPath id="cb"><use xlink:href="#ca" overflow="visible"/></clipPath><path clip-path="url(#cb)" fill="none" stroke="#58BDB3" stroke-width="1.5" stroke-linecap="round" stroke-linejoin="round" d="M7.5.7v14M.7 8.7l6.8 6.4 6.7-6.4"/></svg><svg width="25.9" height="25" viewBox="-5 -5 25.9 25" id="arrow-right" x="125" y="126" xmlns="http://www.w3.org/2000/svg"><defs><path id="da" d="M0 0h15.9v15H0z"/></defs><clipPath id="db"><use xlink:href="#da" overflow="visible"/></clipPath><path clip-path="url(#db)" fill="none" stroke="#58BDB3" stroke-width="1.5" stroke-linecap="round" stroke-linejoin="round" d="M.8 7.5h14M8.7 14.3l6.4-6.8L8.7.8"/></svg><svg width="25" height="25.9" viewBox="-5 -5 25 25.9" id="arrow-up" x="151" y="151" xmlns="http://www.w3.org/2000/svg"><defs><path id="ea" d="M0 0h15v15.9H0z"/></defs><clipPath id="eb"><use xlink:href="#ea" overflow="visible"/></clipPath><path clip-path="url(#eb)" fill="none" stroke="#58BDB3" stroke-width="1.5" stroke-linecap="round" stroke-linejoin="round" d="M7.5 15.1v-14M14.3 7.1L7.5.8.8 7.1"/></svg><svg width="21.9" height="21.9" viewBox="-5 -5 21.9 21.9" id="link-arrow" x="176" y="177" xmlns="http://www.w3.org/2000/svg"><defs><path id="fa" d="M0 0h11.9v11.9H0z"/></defs><clipPath id="fb"><use xlink:href="#fa" overflow="visible"/></clipPath><path clip-path="url(#fb)" fill="none" stroke="#405175" stroke-width="1.5" stroke-linecap="round" stroke-linejoin="round" d="M.8 11.2l9.9-9.9M11.2 10.3L10.9 1 1.6.8"/></svg></svg>