<?xml version="1.0" encoding="utf-8"?>
<!-- Generator: Adobe Illustrator 23.0.6, SVG Export Plug-In . SVG Version: 6.00 Build 0)  -->
<svg version="1.1" id="Ebene_1" xmlns="http://www.w3.org/2000/svg" xmlns:xlink="http://www.w3.org/1999/xlink" x="0px" y="0px"
	 width="349px" height="347px" viewBox="0 0 349 347" style="enable-background:new 0 0 349 347;" xml:space="preserve">
<style type="text/css">
	.st0{clip-path:url(#SVGID_2_);}
</style>
<g id="name">
	<g id="BERRLIN">
		<g>
			<g>
				<g>
					<defs>
						<rect id="SVGID_1_" x="1.6" y="2" width="345.7" height="343"/>
					</defs>
					<clipPath id="SVGID_2_">
						<use xlink:href="#SVGID_1_"  style="overflow:visible;"/>
					</clipPath>
					<g class="st0">
						<path d="M69.8,260.6l5.7,1.8c7.5-9.5,4-17.8-0.2-24.2c-8.8-13.4-19-11.6-24.2-8.1s-7,9.4-4.8,16.2l4.2,12.7
							c2,6.1,1.6,9.1-1.7,11.3c-4.4,2.9-9.8,0.9-13.6-4.8c-4.5-6.8-3.1-11.6,0.4-17.2l-6.3-1.7c-3.8,6.6-5.3,11.8,1.2,21.7
							c6.2,9.4,14.9,12.1,22.7,7c5.2-3.5,6.7-8.4,4.5-15l-4.2-12.5c-2.2-6.4-1.6-10.3,1.8-12.5c3.1-2,8.9-3.5,15,5.8
							C76,249.9,73.6,255.5,69.8,260.6 M47.6,295.9l5.8,3.8l35.8-28.5l-5.4,21.3l-19.2,14.7l6,3.8l11.2-9.1l-3.8,14l5.9,3.9l5.8-24
							l16.8-13.3l-11.3,44.6l5.9,3.9l12.8-53.1L108,274l-16.4,12.9l5.1-20.3l-5.9-3.9L47.6,295.9z M133.3,335.9
							c-10.9-2.4-16.1-12.2-13.4-24.9c2.6-12.1,11.7-18.8,22.3-16.5s16,12.2,13.4,24.6S143.9,338.2,133.3,335.9 M113.6,309.5
							c-3.5,16.2,3.8,28.8,18.5,32c14.4,3.1,26.5-5.4,29.9-21.1s-4-28.5-18.5-31.6C128.5,285.6,116.7,295,113.6,309.5 M190.1,299.5
							l4,45.5l6.5-0.6l-4.6-51.2l-31.8,2.8l0.5,5.8L190.1,299.5z M226,289.9l16.2,42.6l6.1-2.3L230,282.1l-29.9,11.4l2.1,5.4
							L226,289.9z M260.9,267.1l11.1,13.7l-16.4,13.3l3.6,4.5l16.3-13.1l10.3,12.8l-22.6,18.2l3.6,4.5l27.8-22.3l-32.3-40l-28.7,23
							l3.6,4.5L260.9,267.1z M277.6,237.4l19.6,12.9l-9.6,14.6l4.8,3.2l9.6-14.6l13.7,9l-15.4,23.3l4.8,3.2l19-28.8l-43-28.3
							L277.6,237.4z M319,174.8l-1.7,26.4l-23.4-1.5l-0.4,6.6l51.3,3.3l0.4-6.6l-22.2-1.4l1.7-26.4l22.2,1.4l0.4-6.5l-51.3-3.3
							l-0.4,6.5L319,174.8z M312.9,160.4l0.8-7.3c-9.8,1.3-15.6-1.3-18.1-9.6c-2.9-9.8,3.1-18.3,15.4-22c12.6-3.8,22.2-0.1,25,9.4
							c2.4,8,0,13.5-6.5,16.9l5,5c6.9-5.8,10.5-12,7.3-22.8c-5.4-18-22.5-17.8-32.7-14.8c-10.1,3-24.3,12.1-19,29.9
							C293.6,157.1,302.4,160.4,312.9,160.4 M274.1,96.6l14.3-10.4l12.3,16.9l4.7-3.4L293,82.8l13.3-9.7l17.1,23.5l4.7-3.4l-21-28.8
							l-41.5,30.3l21.7,29.8l4.7-3.4L274.1,96.6z M253.4,83.2L281.3,47l13.4,10.3l3.5-4.6l-32-24.5l-3.5,4.6L276,43.1l-27.8,36.2
							L253.4,83.2z M212.4,60.2l11.9-44l16.2,4.4L242,15L203.3,4.4l-1.5,5.6l16.3,4.4l-11.9,44L212.4,60.2z M161.9,39.6l-4.5,3.9
							c4.2,11.3,13.1,12.6,20.8,12.3c16.1-0.6,19.7-10.2,19.5-16.5s-4.4-10.9-11.4-12.5l-13-3c-6.3-1.5-8.6-3.4-8.8-7.3
							c-0.2-5.2,4.3-8.9,11.2-9.1c8.2-0.3,11.5,3.4,14.5,9.3l4.7-4.6c-3.7-6.5-7.4-10.5-19.3-10.1c-11.3,0.4-18,6.5-17.7,15.8
							c0.2,6.3,3.7,10.1,10.5,11.6l12.9,2.9c6.6,1.5,9.6,3.9,9.8,8c0.1,3.7-1.6,9.4-12.8,9.8C167.8,50.5,164.3,45.5,161.9,39.6
							 M153.1,56.3l-12.2-50l-6.4,1.6l12.2,50L153.1,56.3z M139.9,57.3l-24-45.5l-5.5,2.9l19.6,37.2L86.7,27.3l-6.3,3.3l24,45.5
							l5.5-2.9L90.4,36.3l43,24.5L139.9,57.3z M99.8,80.9L65.7,42.4l-5,4.4l34.2,38.5L99.8,80.9z M54.5,94.7l-6-24.8l36.3,22.6
							l3.3-5.3L44.4,60.1l-3,4.7l6.7,26l-26.4,5.6l-3,4.7l43.6,27.2l3.3-5.3l-36.1-22.5L54.5,94.7z M49.7,161.6l-17.4-2.9l3.4-20.7
							l-5.7-0.9l-3.4,20.7l-16.2-2.7l4.8-28.7l-5.7-0.9l-5.9,35.1l50.8,8.4l6-36.4l-5.7-0.9L49.7,161.6z M56.4,192.2l-23.2,3.3
							l-2.4-17.3l-5.7,0.8l2.4,17.3l-16.3,2.3l-3.9-27.7l-5.7,0.7l4.8,34.2l50.9-7.1L56.4,192.2z"/>
					</g>
				</g>
			</g>
		</g>
	</g>
</g>
</svg>
