<?xml version="1.0" encoding="utf-8"?>
<!-- Generator: Adobe Illustrator 23.0.1, SVG Export Plug-In . SVG Version: 6.00 Build 0)  -->
<svg version="1.1" id="Ebene_1" xmlns="http://www.w3.org/2000/svg" xmlns:xlink="http://www.w3.org/1999/xlink" x="0px" y="0px"
	 width="345.7px" height="343px" viewBox="0 0 345.7 343" style="enable-background:new 0 0 345.7 343;" xml:space="preserve">
<style type="text/css">
	.st0{clip-path:url(#SVGID_2_);}
</style>
<g id="name">
	<g id="BERRLIN">
		<g>
			<g>
				<defs>
					<rect id="SVGID_1_" width="345.7" height="343"/>
				</defs>
				<clipPath id="SVGID_2_">
					<use xlink:href="#SVGID_1_"  style="overflow:visible;"/>
				</clipPath>
				<g class="st0">
					<path d="M68.2,258.6l5.7,1.8c7.5-9.5,4-17.8-0.2-24.2c-8.8-13.4-19-11.6-24.2-8.1s-7,9.4-4.8,16.2l4.2,12.7
						c2,6.1,1.6,9.1-1.7,11.3c-4.4,2.9-9.8,0.9-13.6-4.8c-4.5-6.8-3.1-11.6,0.4-17.2l-6.3-1.7c-3.8,6.6-5.3,11.8,1.2,21.7
						c6.2,9.4,14.9,12.1,22.7,7c5.2-3.5,6.7-8.4,4.5-15l-4.2-12.5c-2.2-6.4-1.6-10.3,1.8-12.5c3.1-2,8.9-3.5,15,5.8
						C74.4,247.9,72,253.5,68.2,258.6 M46,293.9l5.8,3.8l35.8-28.5l-5.4,21.3L63,305.2l6,3.8l11.2-9.1l-3.8,14l5.9,3.9l5.8-24
						l16.8-13.3l-11.3,44.6l5.9,3.9l12.8-53.1l-5.9-3.9L90,284.9l5.1-20.3l-5.9-3.9L46,293.9z M131.7,333.9
						c-10.9-2.4-16.1-12.2-13.4-24.9c2.6-12.1,11.7-18.8,22.3-16.5s16,12.2,13.4,24.6S142.3,336.2,131.7,333.9 M112,307.5
						c-3.5,16.2,3.8,28.8,18.5,32c14.4,3.1,26.5-5.4,29.9-21.1s-4-28.5-18.5-31.6C126.9,283.6,115.1,293,112,307.5 M188.5,297.5
						l4,45.5l6.5-0.6l-4.6-51.2l-31.8,2.8l0.5,5.8L188.5,297.5z M224.4,287.9l16.2,42.6l6.1-2.3l-18.3-48.1l-29.9,11.4l2.1,5.4
						L224.4,287.9z M259.3,265.1l11.1,13.7L254,292.1l3.6,4.5l16.3-13.1l10.3,12.8l-22.6,18.2l3.6,4.5l27.8-22.3l-32.3-40l-28.7,23
						l3.6,4.5L259.3,265.1z M276,235.4l19.6,12.9l-9.6,14.6l4.8,3.2l9.6-14.6l13.7,9l-15.4,23.3l4.8,3.2l19-28.8l-43-28.3L276,235.4
						z M317.4,172.8l-1.7,26.4l-23.4-1.5l-0.4,6.6l51.3,3.3l0.4-6.6l-22.2-1.4l1.7-26.4l22.2,1.4l0.4-6.5l-51.3-3.3l-0.4,6.5
						L317.4,172.8z M311.3,158.4l0.8-7.3c-9.8,1.3-15.6-1.3-18.1-9.6c-2.9-9.8,3.1-18.3,15.4-22c12.6-3.8,22.2-0.1,25,9.4
						c2.4,8,0,13.5-6.5,16.9l5,5c6.9-5.8,10.5-12,7.3-22.8c-5.4-18-22.5-17.8-32.7-14.8c-10.1,3-24.3,12.1-19,29.9
						C292,155.1,300.7,158.4,311.3,158.4 M272.5,94.6l14.3-10.4l12.3,16.9l4.7-3.4l-12.4-16.9l13.3-9.7l17.1,23.5l4.7-3.4l-21-28.8
						L264,92.7l21.7,29.8l4.7-3.4L272.5,94.6z M251.8,81.2L279.6,45L293,55.3l3.5-4.6l-32-24.5l-3.5,4.6l13.4,10.3l-27.8,36.2
						L251.8,81.2z M210.8,58.2l11.9-44l16.2,4.4l1.5-5.6L201.6,2.4L200.1,8l16.3,4.4l-11.9,44L210.8,58.2z M160.3,37.6l-4.5,3.9
						c4.2,11.3,13.1,12.6,20.8,12.3c16.1-0.6,19.7-10.2,19.5-16.5s-4.4-10.9-11.4-12.5l-13-3c-6.3-1.5-8.6-3.4-8.8-7.3
						c-0.2-5.2,4.3-8.9,11.2-9.1c8.2-0.3,11.5,3.4,14.5,9.3l4.7-4.6C189.6,3.6,185.9-0.4,174,0c-11.3,0.4-18,6.5-17.7,15.8
						c0.2,6.3,3.7,10.1,10.5,11.6l12.9,2.9c6.6,1.5,9.6,3.9,9.8,8c0.1,3.7-1.6,9.4-12.8,9.8C166.2,48.5,162.7,43.5,160.3,37.6
						 M151.5,54.3l-12.2-50l-6.4,1.6l12.2,50L151.5,54.3z M138.3,55.3l-24-45.5l-5.5,2.9l19.6,37.2L85.1,25.3l-6.3,3.3l24,45.5
						l5.5-2.9L88.8,34.3l43,24.5L138.3,55.3z M98.2,78.9L64.1,40.4l-5,4.4l34.2,38.5L98.2,78.9z M52.9,92.7l-6-24.8l36.3,22.6
						l3.3-5.3L42.8,58.1l-3,4.7l6.7,26l-26.4,5.6l-3,4.7l43.6,27.2L64,121L27.9,98.5L52.9,92.7z M48.1,159.6l-17.4-2.9l3.4-20.7
						l-5.7-0.9L25,155.8l-16.2-2.7l4.8-28.7l-5.7-0.9L2,158.6l50.8,8.4l6-36.4l-5.7-0.9L48.1,159.6z M54.8,190.2l-23.2,3.3
						l-2.4-17.3l-5.7,0.8l2.4,17.3l-16.3,2.3l-3.9-27.7L0,169.6l4.8,34.2l50.9-7.1L54.8,190.2z"/>
				</g>
			</g>
		</g>
	</g>
</g>
</svg>
