<?xml version="1.0" encoding="utf-8"?>
<!-- Generator: Adobe Illustrator 23.0.6, SVG Export Plug-In . SVG Version: 6.00 Build 0)  -->
<svg version="1.1" id="element" xmlns="http://www.w3.org/2000/svg" xmlns:xlink="http://www.w3.org/1999/xlink" x="0px" y="0px"
	 width="496.1px" height="497.7px" viewBox="0 0 496.1 497.7" style="enable-background:new 0 0 496.1 497.7;" xml:space="preserve"
	>
<style type="text/css">
	.st0{fill:#FFFFFF;}
</style>
<g id="name">
	<path class="st0" d="M396.7,128.1c8.5,10.4,15.2,7.9,18.7,5.2c3.8-3.1,3.9-7.8,0.5-15.2l-6.6-14.5c-3.6-7.7-2.4-13.7,3.5-18.5
		c8.7-7.1,19.4-5,28,5.5c9,11,7.8,17.5,4.1,25.8l-7.8-1.2c3.4-7.2,4.6-13.1-1.6-20.6c-5.2-6.4-11.9-8.1-16.9-4.1
		c-3.6,3-3.8,6.6-0.7,13.7l6.6,14.6c3.5,7.9,2.3,15.2-3.7,20.1c-5.9,4.8-17.7,8.3-29.9-6.8c-5.9-7.1-11.1-16.6-3.2-29l7,1.5
		C390.9,111.3,388.6,118.3,396.7,128.1z"/>
	<path class="st0" d="M448.3,200.1c-11.6,4.3-22.3-1.7-27.4-15.3c-5-13.8-0.8-24.9,11-29.3l40.8-15.1l2.7,7.4l-40.8,15.1
		c-8.8,3.2-10.3,10.9-7.1,19.5c3.5,9.3,10.3,13.2,18.1,10.3l40.8-15.1l2.7,7.4L448.3,200.1z"/>
	<path class="st0" d="M480.9,267.1c-8.1,0.1-15.1-6.8-15.3-16.9l-0.4-19.4l-31.3,0.8l-0.3-7.9l61.9-1.4l0.6,25.5
		C496.4,259.9,492.6,266.8,480.9,267.1z M481.1,258.8c6.8-0.1,8.2-4.7,8-12.2l-0.4-16.5l-16.6,0.4l0.4,16.5
		C472.7,254.5,476,258.9,481.1,258.8L481.1,258.8z"/>
	<path class="st0" d="M425.8,327.4l-6.6-2l12.9-42.5l59.2,18L478.9,342l-6.6-2l10.2-33.6l-19-5.7l-7.3,24.2l-6.6-2l7.3-24.2
		l-20.4-6.1L425.8,327.4z"/>
	<path class="st0" d="M423.3,405.5c-5.9-4.3-7.5-12.4-3.3-19c-9,5.9-19.8-4.7-36.7-7.3l5.4-7.5c16.2,3.6,28.2,15.2,36,4.4l8.6-12
		l-25.7-18.6l4.6-6.4l50.1,36.3l-16.8,23.2C439.1,407.5,429.9,410.3,423.3,405.5z M427.2,398.2c5.7,4.2,9.9,0.3,13.8-5l11.1-15.5
		l-13.2-9.5l-11.1,15.5C422.8,390.4,422.7,394.8,427.2,398.2L427.2,398.2z"/>
	<path class="st0" d="M360.5,455.3c-4.2-6-2.9-14.1,3.2-19.1c-10.4,2.5-17-11-32.1-19.1l7.6-5.3c14,8.8,21.6,23.7,32.5,16.1
		l12.2-8.4l-18.1-26.1l6.5-4.6l35.2,50.9L383.9,456C374.8,462.6,365.2,462,360.5,455.3z M366.8,449.7c4,5.9,9.2,3.6,14.6-0.3
		l15.7-10.9l-9.3-13.4L372.1,436C365.2,440.9,363.6,445.1,366.8,449.7L366.8,449.7z"/>
	<path class="st0" d="M284.8,481.1c-1.9-7.1,2.1-14.2,9.5-16.9c-10.6-1.1-12.5-16.1-23.8-28.9l8.9-2.4c10.3,13,12.4,29.6,25.2,26.1
		l14.3-3.8l-8.2-30.7l7.6-2l16.1,59.8l-27.8,7.4C295.7,492.7,286.9,489,284.8,481.1z M292.4,477.9c1.9,6.9,7.5,6.4,13.9,4.7l18.4-5
		l-4.2-15.7l-18.4,5C294,469.1,291,472.5,292.4,477.9z"/>
	<path class="st0" d="M204.7,480.1c0.6-7.3,6.7-12.8,14.6-12.8c-9.8-4.6-6.3-19.4-12.9-35.2l9.2,0.7c5.4,15.8,1.8,32,15,33.1
		l14.7,1.1l2.5-31.7l7.9,0.7l-4.8,61.7l-28.4-2.3C211.2,494.7,204.1,488.3,204.7,480.1z M213,479.7c-0.5,7.1,4.8,8.6,11.5,9
		l19.1,1.5l1.2-16.2l-19.1-1.5C217.4,471.9,213.5,474.1,213,479.7z"/>
	<path class="st0" d="M129.6,452.4c3-6.7,10.5-9.8,18-7.1c-7.6-7.6,0.5-20.4-0.3-37.5l8.4,3.8c-0.3,16.6-9,30.7,3,36.1l13.5,6
		l12.9-29l7.2,3.2l-25.2,56.6l-26-11.7C130.8,468.3,126.3,459.9,129.6,452.4z M137.6,454.7c-2.9,6.5,1.7,9.7,7.7,12.4l17.4,7.7
		l6.6-14.8l-17.4-7.7C144.3,448.9,139.9,449.6,137.6,454.7L137.6,454.7z"/>
	<path class="st0" d="M68.1,401.1c5.1-5.3,13.2-5.7,19.3-0.7c-4.6-9.6,7.3-18.9,12.2-35.4l6.7,6.4c-5.8,15.6-18.8,26-9.3,35.1
		l10.7,10.2l22-23l5.8,5.5L92.8,444l-20.7-19.7C63.8,416.4,62.4,407,68.1,401.1z M74.8,406c-4.9,5.1-1.6,9.8,3.2,14.3l13.8,13.2
		l11.1-11.8l-13.8-13.2C83.1,402.7,78.7,401.9,74.8,406L74.8,406z"/>
	<path d="M82.7,331.2c10.2,20-4.7,33.8-15.9,39.5c-11.5,5.9-31.7,9.8-42-10.4c-6.2-12.1-3.3-20.3,3.5-28.6l6.9,4.8
		c-6.9,5.5-8.5,12.6-3.9,21.4c5.4,10.7,17.5,12.8,31.7,5.6c13.8-7.1,19-18.5,13.4-29.4c-4.7-9.3-12.2-11-23.5-7.4l-0.6-8.7
		C64.7,315.7,75.8,317.6,82.7,331.2z"/>
	<path d="M64.6,271.8c2.2,17.7-9.3,31.3-28.3,33.8c-19.3,2.5-33.8-7.8-35.9-25.4c-2.3-18,9.1-31.3,28.9-33.9
		C46.9,243.9,62.3,253.4,64.6,271.8z M35.3,297.7c15.2-1.9,24.1-12,22.5-25.1c-1.6-13-12.9-20.6-27.7-18.6
		c-15.5,2-24.5,11.8-22.8,25.1C8.8,292.2,20,299.6,35.3,297.7L35.3,297.7z"/>
	<path d="M54.2,201.2L16,211.5l45.7,11.6l-1.8,7.2L0,215l1.6-6.4l43.5-12l-32.6-31.4l1.6-6.4L74,174.1l-1.8,7.2l-45.7-11.6
		l28.6,27.6L54.2,201.2z"/>
	<path d="M86.5,131.5l-39.3-5L85,154.7l-4.4,6l-49.8-36.9l4-5.4l45,5.5L61.5,82.3l4-5.4l49.8,36.9l-4.4,6L73.1,91.6L89,128
		L86.5,131.5z"/>
	<path d="M157.7,62.6c6.7,10.5,3.1,22.2-9.1,30.1c-12.4,7.9-24.1,6.2-31-4.4L94.2,51.6l6.7-4.2l23.4,36.7c5,7.8,12.9,7.7,20.5,2.8
		c8.4-5.3,10.7-12.9,6.3-19.9l-23.4-36.7l6.6-4.3L157.7,62.6z"/>
	<path d="M220.7,63.3l-42.4-41.7l11.2,49l-7.3,1.7l-13.7-60.5l8.3-1.9L219.7,52L208.3,2.7l7.3-1.7l13.8,60.4L220.7,63.3z"/>
	<path d="M248.3,61.9L249.5,0l8,0.1L256.3,62L248.3,61.9z"/>
	<path d="M288.5,66.3L301.6,13l-19.8-4.9l1.6-6.8L330.6,13l-1.6,6.8L309.3,15l-13,53.4L288.5,66.3z"/>
	<path d="M341.2,87l12.6-20.7l-0.9-44.6l8.4,5.1l-0.1,35.1l30.7-16.6l8.1,4.9l-39.4,20.1L348,91L341.2,87z"/>
</g>
</svg>
