<?xml version="1.0" encoding="utf-8"?>
<!-- Generator: Adobe Illustrator 23.0.6, SVG Export Plug-In . SVG Version: 6.00 Build 0)  -->
<svg version="1.1" id="element" xmlns="http://www.w3.org/2000/svg" xmlns:xlink="http://www.w3.org/1999/xlink" x="0px" y="0px"
	 width="492.9px" height="494.8px" viewBox="0 0 492.9 494.8" style="enable-background:new 0 0 492.9 494.8;" xml:space="preserve"
	>
<style type="text/css">
	.st0{fill:#FFFFFF;}
</style>
<g id="name">
	<path class="st0" d="M220.1,58.4c13.2-1.9,14.6-8.9,14-13.2c-0.7-4.8-4.7-7.3-12.7-8.2l-15.7-1.8c-8.4-0.9-12.9-5-14-12.4
		c-1.5-11.1,5.7-19.1,19.1-21.1c14-2.1,18.9,2.3,24.1,9.7l-5,6c-4.4-6.6-8.8-10.6-18.4-9.2c-8.2,1.2-13.1,6-12.2,12.3
		c0.7,4.7,3.7,6.7,11.3,7.6l15.9,1.8c8.6,1.1,14.1,5.9,15.2,13.4c1.1,7.4-2,19.3-21.1,22c-9.1,1.4-19.8,0.9-26.3-12.1l4.9-5.2
		C202.9,54.7,207.6,60.1,220.1,58.4z"/>
	<path class="st0" d="M307.9,51.3c-2.3,12.1-12.9,18.2-27.1,15.5c-14.3-2.8-21.7-12.1-19.3-24.3L269.6,0l7.7,1.5L269.2,44
		c-1.8,9.2,4.1,14.4,13,16.1c9.7,1.8,16.6-2,18.1-10.1l8.1-42.5L316,9L307.9,51.3z"/>
	<path class="st0" d="M381.7,57.7c-4,6.9-13.5,9.4-22.3,4.4l-16.8-9.6l-15.4,27.1l-6.9-3.8l30.5-53.5l22.1,12.6
		C383.4,40.8,387.4,47.6,381.7,57.7z M374.8,53.4c3.4-5.8,0.2-9.4-6.3-13.1l-14.2-8.1l-8.1,14.4l14.2,8.1
		C366.8,58.4,372.3,57.8,374.8,53.4L374.8,53.4z"/>
	<path class="st0" d="M404.8,135.5l-5.1,4.6L370,107.3L415.6,66l28.6,31.6l-5.1,4.6l-23.4-25.8l-14.6,13.2l16.9,18.6l-5.1,4.6
		L396,94.2l-15.6,14.2L404.8,135.5z"/>
	<path class="st0" d="M470.1,177.7c-6.7,2.8-14.4,0-17.9-6.9c0.4,10.7-14.2,14.5-25,27.5l-3.7-8.4c11.4-12,27.4-16.2,22.2-28.4
		l-5.8-13.5l-29,12.4l-3.1-7.2l56.6-24.1l11.1,26.2C480,165.3,477.6,174.5,470.1,177.7z M465.9,170.5c6.5-2.7,5.3-8.3,2.8-14.3
		l-7.5-17.4l-14.8,6.4l7.5,17.4C457,170.3,460.8,172.8,465.9,170.5L465.9,170.5z"/>
	<path class="st0" d="M480.4,256.6c-7.3,0.5-13.5-4.8-14.6-12.5c-3.2,10.2-18.1,8.9-32.8,17.6l-0.7-9.2c14.7-7.5,31.2-6.2,30.4-19.4
		l-0.9-14.7l-31.6,2l-0.6-7.9l61.4-3.9l1.8,28.4C493.9,248.2,488.6,256.1,480.4,256.6z M478.9,248.5c7-0.4,7.8-6,7.3-12.6l-1.2-19
		l-16.2,1l1.2,19C470.6,245.3,473.3,248.9,478.9,248.5L478.9,248.5z"/>
	<path class="st0" d="M463.6,334.5c-7-2-11.1-9-9.5-16.7c-6.4,8.5-20.1,2.4-36.8,5.5l2.5-8.8c16.4-2.1,31.6,4.6,35.1-8.1l4.1-14.1
		l-30.3-8.7l2.2-7.6l59.2,16.9l-7.9,27.3C479.1,331.1,471.5,336.7,463.6,334.5z M464.8,326.3c6.8,1.9,9.3-3.1,11.1-9.4l5.2-18.3
		l-15.5-4.5l-5.2,18.3C458.2,320.5,459.5,324.7,464.8,326.3z"/>
	<path class="st0" d="M421.8,402.2c-5.9-4.3-7.5-12.3-3.4-19c-8.9,6-19.7-4.6-36.6-7.1l5.4-7.5c16.2,3.5,28.2,14.9,35.8,4.2l8.5-12
		l-25.7-18.2l4.6-6.4l50.1,35.7l-16.5,23C437.6,404.1,428.4,406.9,421.8,402.2z M425.7,394.8c5.8,4,9.8,0.3,13.6-5.2l11-15.5
		l-13.2-9.3l-11,15.5C421.3,387.3,421.2,391.6,425.7,394.8z"/>
	<path class="st0" d="M359.7,452.1c-4.2-6-2.9-14,3.2-19c-10.3,2.6-17.1-10.9-32.1-18.9l7.5-5.2c14,8.8,21.6,23.4,32.3,16l12.1-8.4
		l-18.1-25.9l6.4-4.5l35.3,50.5l-23.3,16C373.9,459.2,364.4,458.6,359.7,452.1z M365.8,446.4c4,5.8,9.2,3.5,14.5-0.2l15.5-10.9
		l-9.2-13.2L371.2,433C364.2,437.8,362.6,441.9,365.8,446.4L365.8,446.4z"/>
	<path class="st0" d="M284.5,478.1c-1.9-7,1.9-14.1,9.3-16.8c-10.6-1-12.4-15.9-23.9-28.5l8.9-2.4c10.4,12.9,12.5,29.3,25.2,25.9
		l14.2-3.9l-8.4-30.5l7.6-2.1l16.4,59.4l-27.4,7.5C295.4,489.6,286.6,485.9,284.5,478.1z M292.1,475c1.8,6.8,7.5,6.4,13.8,4.6
		l18.3-5l-4.3-15.5l-18.3,5C293.5,466.2,290.6,469.5,292.1,475L292.1,475z"/>
	<path class="st0" d="M204.8,477.6c0.5-7.2,6.6-12.7,14.4-12.8c-9.6-4.5-6.4-19.2-12.9-34.9l9.2,0.6c5.4,15.7,1.9,31.9,15.1,32.7
		l14.6,1.1l2.3-31.5l7.9,0.6l-4.6,61.4l-28.3-2.1C211.3,492.1,204.3,485.7,204.8,477.6z M213.1,477.1c-0.5,7.1,4.9,8.5,11.4,8.9
		l19,1.4l1.2-16l-19-1.4C217.4,469.3,213.6,471.5,213.1,477.1z"/>
	<path class="st0" d="M130.1,450.4c2.9-6.7,10.5-9.8,17.8-7.1c-7.6-7.5,0.4-20.2-0.5-37.3l8.4,3.6c-0.2,16.6-8.9,30.6,3.2,36
		l13.5,5.9l12.7-28.9l7.2,3.2l-24.8,56.3l-26-11.5C131.3,466.2,126.8,457.8,130.1,450.4z M138,452.7c-2.8,6.5,1.8,9.6,7.8,12.3
		l17.4,7.6l6.5-14.7l-17.4-7.6C144.6,446.9,140.3,447.6,138,452.7L138,452.7z"/>
	<path class="st0" d="M68.6,399.7c5-5.2,13.2-5.7,19.2-0.8c-4.7-9.6,7.1-18.9,11.9-35.2l6.7,6.3c-5.7,15.6-18.5,25.9-9,35l10.6,10.1
		l21.7-23l5.7,5.3l-42.2,44.8l-20.7-19.5C64.6,415.1,63.1,405.6,68.6,399.7z M75.4,404.6c-4.9,5.2-1.6,9.6,3.2,14.1l13.8,13
		l11.1-11.8l-13.8-13C83.5,401.2,79.1,400.5,75.4,404.6L75.4,404.6z"/>
	<path class="st0" d="M27.7,331.4c6.4-3.3,14.3-1,18.3,5.7c-1.1-10.6,13.1-15.5,23.1-29.1l4.2,8.1c-10.6,12.7-26.2,18.1-20.2,29.9
		l6.6,13.1l28.1-14.3l3.5,7l-54.8,28.1l-12.8-25.3C18.7,344.4,20.5,335,27.7,331.4z M32.5,338.2c-6.3,3.2-4.7,8.6-1.7,14.4l8.6,16.9
		l14.4-7.3l-8.6-16.9C41.3,337.8,37.4,335.6,32.5,338.2L32.5,338.2z"/>
	<path class="st0" d="M12.1,253.4c7.2-1,13.8,3.8,15.4,11.5c2.5-10.4,17.4-10.2,31.5-19.8l1.3,9.1c-14.2,8.4-30.8,8.3-29,21.5
		l2,14.6l31.3-4.2l1.1,7.8L4.5,302l-3.7-28.1C-0.7,262.7,4,254.5,12.1,253.4z M14.2,261.3c-7,0.9-7.3,6.6-6.5,13.1l2.6,18.9l16-2.1
		l-2.6-18.8C22.6,264,19.7,260.6,14.2,261.3z"/>
	<path class="st0" d="M23.5,174.5c7.1,1.5,11.7,8.3,10.7,16c5.9-8.9,19.9-3.7,36.4-8l-1.9,9c-16.3,3.2-31.7-2.4-34.6,10.4L31,216.3
		l31,6.6l-1.7,7.6L0,217.6l5.9-27.8C8.4,178.9,15.6,172.8,23.5,174.5z M22.9,182.7c-6.9-1.5-9.1,3.6-10.5,10.2l-3.9,18.6l15.8,3.4
		l3.9-18.6C29.9,188,28.3,183.9,22.9,182.7z"/>
	<path d="M89.7,133.3l6,3.5l-18.8,33.3l-53.7-30.4l3.8-6.9l47.6,27L89.7,133.3z"/>
	<path d="M105.3,125.1l-6.1,5.7L72.7,71.1l7.3-6.9L138.1,94l-6.3,6.1L108,87.3l-14.3,13.5L105.3,125.1z M90.6,93.8l10.5-10.1
		L80.7,72.4L90.6,93.8z"/>
	<path d="M167.1,28.5c2.7,5.1,1.9,11.4-2,15.8c8.4-0.6,13.4,1.9,16.5,8.7c4.5,9.5,1,18.9-8.9,23.6l-25.2,11.8l-26.2-55.7L144,22
		C157.1,15.9,164.4,22.9,167.1,28.5z M160.5,32.9c-3.3-7.2-9.4-6.4-15.3-3.5l-13.8,6.5l8.4,17.7l13.8-6.5
		C160.2,43.8,163.6,39.5,160.5,32.9L160.5,32.9z M174.6,56.4c-2.7-5.6-7.9-8-14.6-4.9l-17.3,8.2l9,19.2l17.3-8.2
		C177.1,66.9,176.4,60.3,174.6,56.4L174.6,56.4z"/>
</g>
</svg>
