<?xml version="1.0" encoding="utf-8"?>
<!-- Generator: Adobe Illustrator 22.0.1, SVG Export Plug-In . SVG Version: 6.00 Build 0)  -->
<svg version="1.1" id="Ebene_1" xmlns="http://www.w3.org/2000/svg" xmlns:xlink="http://www.w3.org/1999/xlink" x="0px" y="0px"
	 viewBox="0 0 580.9 580.9" enable-background="new 0 0 580.9 580.9" xml:space="preserve">
<g id="background">
	<path fill="#FFFFFF" d="M290.4,580.9c160.4,0,290.4-130.1,290.4-290.4S450.8,0,290.4,0C130.1,0,0,130.2,0,290.4
		C0,450.8,130.1,580.9,290.4,580.9"/>
</g>
<path id="name" fill="#181716" d="M150,365.7l-79.6,47L53,383.4l-10.1,6l41.6,70.4l10.1-6l-17.5-29.5l79.6-47L150,365.7z
	 M138.8,509.1l12,5.6l31-66.3c5.9-12.7,18.7-16.2,33.9-9.1c13.9,6.5,21.2,17.5,14.5,31.7l-31,66.3l12,5.6l31-66.3
	c8.9-19.2,0.8-37.5-21.6-47.9c-22.1-10.3-42.1-4.8-50.9,14.1L138.8,509.1z M320.9,510.4l31.6-6l5.1,26.8l-31.6,6
	c-10.9,2.1-20.4,2.2-22.6-9.6C301.6,518.3,307,513.1,320.9,510.4 M325.7,549.2l47.2-9l-19.6-102.3l-13.1,2.5l10.1,52.5l-24.4,4.7
	c-21.9,4.2-23.3-23.8-39-46.9l-15.3,2.9c17.6,22.8,18.7,48.2,36.5,51.4c-12.7,3.5-20.2,15.1-17.9,27.2
	C292.7,545.5,307,552.8,325.7,549.2 M443.9,448.9l21.9-23.5l20,18.6l-21.9,23.5c-7.6,8.2-15.2,13.8-24,5.6
	C433,466.7,434.3,459.3,443.9,448.9 M470.7,477.4l32.7-35.1l-76.2-71l-9.1,9.7l39.1,36.4l-16.9,18.2c-15.2,16.3-32.8-5.4-59.2-14.9
	l-10.6,11.4c27.7,8,43.6,27.9,59.8,19.9c-8.2,10.3-7.4,24.1,1.6,32.5C441.9,493.9,457.8,491.3,470.7,477.4 M507.4,326.6l3.7-31.9
	l27.1,3.1l-3.7,31.9c-1.3,11.1-4,20.1-15.9,18.7C509.2,347.4,505.7,340.7,507.4,326.6 M545.8,333.6l5.5-47.7l-103.5-11.8l-1.5,13.2
	l53.1,6.1l-2.8,24.7c-2.5,22.1-29.6,15.2-56.4,23.2l-1.8,15.5c27-10,51.6-3.5,59.9-19.5c-0.5,13.2,8.4,23.8,20.6,25.2
	C532.4,364,543.7,352.5,545.8,333.6 M486.8,191.1L471.1,163l23.8-13.3l15.7,28.1c5.4,9.7,8.5,18.7-2,24.5
	C500.4,206.9,493.7,203.4,486.8,191.1 M522.1,174.3l-23.4-41.9l-90.9,50.8l6.5,11.6l46.6-26.1l12.1,21.7
	c10.9,19.5-15.2,29.6-32.3,51.8l7.6,13.6c16.1-23.9,39.9-32.9,37.3-50.8c7.3,11,20.7,14.5,31.4,8.5
	C528.9,206.8,531.3,190.9,522.1,174.3 M390.6,93.4l-29.1-13.6L373,55l29.1,13.6c10.1,4.7,17.8,10.2,12.7,21.1
	C410.9,98.3,403.4,99.4,390.6,93.4 M409.4,59.1l-43.5-20.3l-44.1,94.4l12,5.6l22.6-48.4l22.5,10.5c20.2,9.4,5,32.9,4.1,60.9
	l14.1,6.6c-0.9-28.8,13.1-50,0.5-63c12.3,4.7,25.2-0.4,30.4-11.5C434,81.5,426.7,67.2,409.4,59.1 M255.8,71.3l-31.2,6l-5.1-26.5
	l31.2-6c10.8-2.1,20.2-2.1,22.4,9.5C274.9,63.4,269.6,68.6,255.8,71.3 M251.1,32.9l-46.6,8.9L223.8,143l12.9-2.5l-9.9-51.9l24.2-4.6
	c21.7-4.1,23.1,23.5,38.5,46.4l15.1-2.9c-17.4-22.6-18.5-47.7-36.1-50.8c12.6-3.4,20-14.9,17.7-26.9
	C283.7,36.6,269.5,29.4,251.1,32.9 M206.5,156l-58.7-84.7l-10.9,7.6l58.7,84.7L206.5,156z M138.4,211.1l-29.5-19.4l23.1-35.1
	l-9.7-6.4l-23.1,35.1l-27.5-18.1l32-48.6l-9.7-6.4l-39.2,59.6l86.1,56.7l40.6-61.8l-9.7-6.4L138.4,211.1z M119.9,273.8l-1.2,32.1
	l-35.5-1.3l1.2-32.1c0.5-12.1,8-18.2,18.5-17.8C110.2,254.9,120.5,258.9,119.9,273.8 M72.6,278.6l-1,25.4l-32.8-1.2l1-25.4
	c0.4-11,3.9-20.5,17.2-20C69.3,257.8,73.1,266.2,72.6,278.6 M28.4,273.7l-1.6,41.8l103,3.9l1.8-46.5c0.7-18.2-10.6-30.8-28.2-31.5
	c-12.4-0.5-20.1,4.9-25.7,17.8c-4-9.5-11.5-14.7-21.9-15.1C45.2,243.8,29.3,249.2,28.4,273.7"/>
<g id="super">
	<g>
		<path fill="none" stroke="#00F1F4" stroke-width="3" stroke-miterlimit="10" d="M476.8,215.2c7.7-33.1,1.5-37.6-7.2-37.6h-25.1
			l-17.4,75h25.1C463.4,252.5,470.9,241,476.8,215.2z M488.9,210c-7.8,33.8-21.7,61.2-32.6,64c9,17.6-9.9,86.8-16.2,157.5H428
			c7.8-70.7,28.5-146.9,11.2-146.9h-19.4l-34.1,146.9h-10.4l66.4-286.3h37.5C494,145.2,497.6,172.3,488.9,210z M366.4,399.3
			l-7.5,32.1h-58.3L367,145.1h56.3l-7.5,32.1h-45.9l-21.3,91.5h33.1l-7.5,32.1h-32.9l-22.8,98.2h47.9L366.4,399.3L366.4,399.3z
			 M328.6,215.9c7.3-31.4,3.1-38.4-6.9-38.4h-21.6l-17.9,77h21.6C313.7,254.3,323.2,239.5,328.6,215.9z M339.1,217.5
			c-8.7,37.3-25.4,69.2-38.7,69.2h-25.6l-33.7,144.9h-10.4l66.4-286.3h33.5C346.8,145.2,351.5,163.7,339.1,217.5z M234,346.3
			c-13.3,57.4-34.1,94.3-53.3,94.3c-19.3,0-22.6-36.1-9.2-94.3l46.7-201.1h10.4L182,346.3c-10.1,43.2-5.7,62,6.3,62
			c13,0,26.5-23.6,35.3-62l46.7-201.1h10.4L234,346.3z M113.5,408.3c17.6,0,28-31.4,32.7-51.9c5.2-22.3,3.8-36.9-4.1-46.4
			l-15.8-18.8c-8.4-9.8-8.6-31.8-0.5-66.7c12.1-51.9,30.6-84,48.4-84c18.7,0,19,23.1,15.6,60.9l-13.3,24.3
			c3.4-33.4,3.2-54.6-9.8-54.6c-10.9,0-22.6,19.3-29.4,48.4c-5.1,22-4.1,33.1,3.5,42.4l15.9,19.3c8.6,10.6,8.7,36.6,0.6,71.9
			c-8.1,34.9-26.6,87.5-52,87.5c-12.1,0-24-9-15.2-73l12.2-20.8C98.2,380.1,96.9,408.3,113.5,408.3z"/>
	</g>
</g>
</svg>
