<?xml version="1.0" encoding="utf-8"?>
<!-- Generator: Adobe Illustrator 24.1.1, SVG Export Plug-In . SVG Version: 6.00 Build 0)  -->
<svg version="1.1" id="Ebene_1" xmlns="http://www.w3.org/2000/svg" xmlns:xlink="http://www.w3.org/1999/xlink" x="0px" y="0px"
	 width="250px" height="250px" viewBox="0 0 250 250" style="enable-background:new 0 0 250 250;" xml:space="preserve">
<style type="text/css">
	.st0{fill:none;}
	.st1{fill:none;stroke:#000000;}
	.st2{fill:#FF4100;}
</style>
<g id="background">
	<path id="Pfad_60" class="st0" d="M125,250c69,0,125-56,125-125S194,0,125,0S0,56,0,125S56,250,125,250"/>
</g>
<g id="name" transform="translate(2.414 1.207)">
	<path id="Pfad_41" class="st1" d="M109.9,32.9c6.1-0.9,6.7-4.1,6.4-6.1c-0.3-2.2-2.1-3.4-5.8-3.8l-7.2-0.8
		c-3.8-0.4-5.9-2.3-6.4-5.7c-0.7-5.1,2.6-8.8,8.7-9.6c6.4-0.9,8.7,1.1,11.1,4.5l-2.3,2.8c-2-3-4-4.9-8.5-4.2c-3.8,0.5-6,2.8-5.6,5.6
		c0.3,2.1,1.7,3,5.2,3.5l7.3,0.9c3.9,0.5,6.5,2.7,7,6.2c0.5,3.4-1,8.9-9.7,10.1c-4.2,0.6-9.1,0.4-12.1-5.5l2.2-2.4
		C102,31.2,104.2,33.7,109.9,32.9z"/>
	<path id="Pfad_42" class="st1" d="M151.7,29.7c-1.1,5.6-5.9,8.3-12.4,7.1c-6.6-1.3-9.9-5.5-8.9-11.2l3.7-19.5l3.5,0.7l-3.7,19.5
		c-0.8,4.2,1.9,6.6,5.9,7.4c4.4,0.9,7.6-0.9,8.3-4.6l3.7-19.5l3.5,0.7L151.7,29.7z"/>
	<path id="Pfad_43" class="st1" d="M186.7,32.6c-1.8,3.2-6.2,4.3-10.2,2l-7.7-4.4l-7.1,12.4l-3.1-1.8l14-24.5l10.1,5.8
		C187.5,24.9,189.3,28,186.7,32.6z M183.5,30.6c1.5-2.7,0.1-4.3-2.9-6l-6.5-3.7l-3.8,6.6l6.5,3.7C179.8,32.9,182.3,32.6,183.5,30.6
		L183.5,30.6z"/>
	<path id="Pfad_44" class="st1" d="M199.7,68.3l-2.4,2.1l-13.6-15l20.9-18.9L217.8,51l-2.4,2.1l-10.7-11.8l-6.7,6l7.7,8.5l-2.4,2.1
		l-7.7-8.5l-7.2,6.5L199.7,68.3z"/>
	<path id="Pfad_45" class="st1" d="M229.6,90.4c-3.2,1.3-6.8-0.1-8.2-3.2c0.2,4.9-6.5,6.6-11.5,12.6l-1.7-3.9
		c5.2-5.5,12.6-7.5,10.2-13l-2.6-6.2l-13.3,5.7l-1.4-3.3L227,68l5.1,12C234.1,84.7,233,88.9,229.6,90.4z M227.7,87.2
		c3-1.3,2.4-3.8,1.2-6.6l-3.4-8l-6.8,2.9l3.4,8C223.6,87,225.3,88.2,227.7,87.2L227.7,87.2z"/>
	<path id="Pfad_46" class="st1" d="M234.4,128c-3.4,0.2-6.3-2.4-6.7-5.7c-1.4,4.7-8.3,4.1-15,8.1l-0.3-4.2
		c6.8-3.4,14.3-2.9,13.9-8.9l-0.4-6.7l-14.5,0.9l-0.2-3.6l28.2-1.8l0.8,13C240.5,124.1,238.1,127.7,234.4,128z M233.6,124.2
		c3.2-0.2,3.6-2.7,3.4-5.8l-0.6-8.7l-7.4,0.5l0.6,8.7C229.8,122.8,231.1,124.4,233.6,124.2z"/>
	<path id="Pfad_47" class="st1" d="M226.6,165.1c-3.3-1-5.2-4.3-4.4-7.7c-2.9,3.9-9.2,1.1-16.9,2.5l1.2-4.1
		c7.5-0.9,14.5,2.1,16.1-3.7l1.9-6.5l-13.9-4l1-3.5l27.1,7.8l-3.6,12.5C233.7,163.5,230.2,166.1,226.6,165.1z M227.2,161.3
		c3.1,0.9,4.3-1.4,5.1-4.3l2.4-8.4l-7.1-2l-2.4,8.4C224.1,158.7,224.7,160.6,227.2,161.3L227.2,161.3z"/>
	<path id="Pfad_48" class="st1" d="M207.5,197.5c-2.7-2-3.4-5.8-1.6-8.7c-4.1,2.7-9-2.1-16.8-3.2l2.4-3.4c7.4,1.6,12.9,6.8,16.4,1.9
		l3.9-5.5l-11.8-8.4l2.1-2.9l23,16.4l-7.5,10.6C214.7,198.4,210.5,199.7,207.5,197.5z M209.2,194.2c2.6,1.9,4.5,0.1,6.2-2.4l5.1-7.1
		l-6-4.3l-5.1,7.1C207.2,190.7,207.2,192.7,209.2,194.2z"/>
	<path id="Pfad_49" class="st1" d="M177,222.2c-1.9-2.8-1.3-6.6,1.4-8.7c-4.7,1.2-7.8-5-14.7-8.7l3.5-2.4c6.4,4,9.9,10.8,14.8,7.3
		l5.5-3.9l-8.3-11.9l3-2.1l16.2,23.1l-10.7,7.4C183.5,225.5,179.2,225.3,177,222.2z M179.8,219.7c1.9,2.7,4.2,1.6,6.7-0.1l7.1-5
		l-4.2-6.1l-7.1,5C179.1,215.7,178.4,217.6,179.8,219.7z"/>
	<path id="Pfad_50" class="st1" d="M141.2,234.2c-0.9-3.3,1-6.7,4.3-7.7c-4.9-0.5-5.7-7.3-11-13.1l4.1-1.1
		c4.7,5.9,5.7,13.4,11.5,11.8l6.5-1.8l-3.9-14l3.5-1l7.5,27.2l-12.5,3.5C146.2,239.5,142.2,237.8,141.2,234.2z M144.7,232.7
		c0.9,3.1,3.4,2.9,6.3,2.1l8.4-2.3l-2-7.1l-8.4,2.3C145.3,228.7,144,230.3,144.7,232.7z"/>
	<path id="Pfad_51" class="st1" d="M103.3,234c0.3-3.4,3.2-6,6.6-5.8c-4.4-2.1-2.9-8.8-5.9-16l4.2,0.3c2.5,7.2,0.9,14.6,6.9,15
		l6.7,0.5l1.1-14.4l3.6,0.3l-2.1,28.2l-13-1C106.2,240.6,103,237.7,103.3,234z M107,233.7c-0.2,3.2,2.2,3.9,5.2,4.1l8.7,0.6l0.5-7.4
		l-8.7-0.6C109,230.2,107.2,231.2,107,233.7z"/>
	<path id="Pfad_52" class="st1" d="M67.5,221.5c1.4-3.1,5-4.5,8.2-3.3c-3.5-3.4,0.2-9.3-0.2-17.1l3.9,1.7c-0.1,7.6-4.1,14,1.5,16.5
		l6.2,2.7l5.8-13.3l3.3,1.4L84.7,236l-11.9-5.2C68.1,228.7,66,224.9,67.5,221.5z M71.1,222.5c-1.3,3,0.8,4.4,3.6,5.6l8,3.5l3-6.8
		l-8-3.5C74.2,219.9,72.2,220.2,71.1,222.5L71.1,222.5z"/>
	<path id="Pfad_53" class="st1" d="M36.7,198.3c2.4-2.4,6.2-2.6,8.8-0.4c-2.1-4.4,3.3-8.7,5.5-16.2l3.1,2.9
		c-2.6,7.1-8.5,11.9-4.1,16l4.9,4.6l9.9-10.5l2.6,2.5L48,217.7l-9.5-8.9C34.8,205.3,34.1,201,36.7,198.3z M39.8,200.5
		c-2.2,2.4-0.7,4.4,1.5,6.5l6.3,6l5.1-5.4l-6.3-6C43.5,199,41.5,198.6,39.8,200.5L39.8,200.5z"/>
	<path id="Pfad_54" class="st1" d="M17.9,164.4c3.1-1.5,6.8-0.4,8.4,2.6c-0.5-4.9,6-7.1,10.6-13.4l1.9,3.8c-4.9,5.8-12,8.3-9.3,13.7
		l3.1,6l12.9-6.6l1.6,3.2L22,186.5L16.2,175C13.8,170.4,14.6,166.1,17.9,164.4z M20.1,167.5c-2.9,1.5-2.2,3.9-0.8,6.6l4,7.8l6.6-3.4
		l-4-7.8C24.1,167.4,22.4,166.4,20.1,167.5z"/>
	<path id="Pfad_55" class="st1" d="M10.7,127.3c3.4-0.4,6.5,1.9,7.1,5.3c1.1-4.8,8-4.7,14.5-9.1l0.6,4.2c-6.5,3.9-14.1,3.8-13.3,9.8
		l0.9,6.7l14.4-1.9l0.5,3.6l-28,3.7l-1.7-12.9C4.9,131.6,7,127.8,10.7,127.3z M11.7,131c-3.2,0.4-3.4,3-2.9,6l1.2,8.6l7.3-1
		l-1.2-8.6C15.6,132.2,14.3,130.6,11.7,131z"/>
	<path id="Pfad_56" class="st1" d="M16,89.7c3.3,0.8,5.5,4,4.9,7.3c2.7-4.1,9.1-1.7,16.7-3.7l-0.9,4.1c-7.4,1.5-14.6-1.1-15.8,4.8
		l-1.4,6.6l14.2,3l-0.8,3.5l-27.6-5.9L8,96.7C9,91.7,12.3,88.9,16,89.7z M15.7,93.4c-3.2-0.7-4.2,1.7-4.8,4.6l-1.8,8.5l7.2,1.5
		l1.8-8.5C18.9,95.9,18.2,94,15.7,93.4z"/>
	<path id="Pfad_57" d="M46.3,69.7l2.8,1.6l-8.7,15.3L15.9,72.7l1.8-3.1L39.5,82L46.3,69.7z"/>
	<path id="Pfad_58" d="M55.1,63.5l-2.8,2.6L40.2,38.8l3.4-3.2l26.6,13.6L67.3,52l-10.9-5.9l-6.5,6.2L55.1,63.5z M48.4,49.1l4.8-4.6
		l-9.3-5.2L48.4,49.1z"/>
	<path id="Pfad_59" d="M84.4,19.2c1.2,2.4,0.9,5.3-0.9,7.2c3.9-0.3,6.1,0.9,7.6,4c2.1,4.4,0.4,8.7-4.1,10.8l-11.5,5.4l-12-25.5
		l10.4-4.9C79.9,13.5,83.2,16.6,84.4,19.2z M81.4,21.2c-1.6-3.3-4.3-2.9-7-1.6l-6.3,3l3.8,8.1l6.3-3C81.3,26.2,82.8,24.3,81.4,21.2
		L81.4,21.2z M87.9,32c-1.2-2.6-3.7-3.7-6.7-2.3l-7.9,3.8l4.1,8.8l7.9-3.8C89,36.8,88.7,33.8,87.9,32L87.9,32z"/>
</g>
<g id="super" transform="translate(32.608 51.337)">
	<path id="Pfad_61" class="st2" d="M126.5,127.1l-3.2,15.8h-25L126.9,2.3H151l-3.2,15.8h-19.7l-9.1,45h14.2L130,78.9h-14.2
		l-9.8,48.2C106,127.1,126.5,127.1,126.5,127.1z"/>
	<g id="Gruppe_11" transform="translate(132.551 2.315)">
		<path id="Pfad_62" class="st2" d="M43.6,34.3c3.3-16.2,0.6-18.5-3.1-18.5H29.8l-7.5,36.8h10.8C37.8,52.7,41.1,47.1,43.6,34.3
			 M48.8,31.8c-3.4,16.6-9.3,30.1-14,31.4c3.9,8.7-4.3,42.6-6.9,77.4h-5.2c3.4-34.7,12.3-72.2,4.8-72.2h-8.3L4.5,140.6H0L28.6,0
			h16.1C51,0,52.6,13.3,48.8,31.8"/>
	</g>
	<path id="Pfad_63" class="st2" d="M11.3,131.6c7.6,0,12-15.4,14.1-25.5c2.2-11,1.7-18.1-1.8-22.8L16.8,74
		c-3.6-4.8-3.7-15.6-0.2-32.8C21.8,15.8,29.8,0,37.4,0c8,0,8.1,11.4,6.7,29.9l-5.7,12c1.4-16.4,1.4-26.8-4.2-26.8
		c-4.7,0-9.7,9.5-12.6,23.7c-2.2,10.8-1.8,16.2,1.5,20.8l6.8,9.5c3.7,5.2,3.8,17.9,0.3,35.3c-3.5,17.2-11.5,43-22.4,43
		c-5.2,0-10.3-4.4-6.5-35.9l5.2-10.2C4.8,117.7,4.2,131.6,11.3,131.6"/>
	<path id="Pfad_64" class="st2" d="M65.3,101.1c-5.7,28.2-14.7,46.3-22.9,46.3c-8.3,0-9.8-17.8-4-46.3L58.6,2.3h4.5L43,101.1
		c-4.3,21.2-2.4,30.5,2.7,30.5c5.6,0,11.3-11.6,15.2-30.5l20-98.8h4.5L65.3,101.1z"/>
	<path id="Pfad_65" class="st2" d="M108,37c3.1-15.4,1.3-18.9-3-18.9h-9.3L88.1,56h9.3C101.7,56,105.7,48.6,108,37 M112.5,37.8
		c-3.7,18.3-10.9,34-16.7,34h-11L70.5,143H66L94.6,2.3H109C115.9,2.3,117.9,11.4,112.5,37.8"/>
</g>
</svg>
