<?xml version="1.0" encoding="utf-8"?>
<!-- Generator: Adobe Illustrator 24.1.1, SVG Export Plug-In . SVG Version: 6.00 Build 0)  -->
<svg version="1.1" id="Ebene_1" xmlns="http://www.w3.org/2000/svg" xmlns:xlink="http://www.w3.org/1999/xlink" x="0px" y="0px"
	 width="248.7px" height="248.7px" viewBox="0 0 248.7 248.7" style="enable-background:new 0 0 248.7 248.7;" xml:space="preserve"
	>
<style type="text/css">
	.st0{fill:none;stroke:#000000;}
	.st1{fill:#FFFFFF;}
</style>
<g id="name" transform="translate(488.219 156.692)">
	<path id="Pfad_22" class="st0" d="M-294.2-89.6c4,4.9,7.1,3.7,8.7,2.4c1.8-1.4,1.8-3.7,0.3-7.1l-3.1-6.8c-1.6-3.6-1.1-6.4,1.6-8.7
		c4.1-3.3,9.1-2.3,13.1,2.6c4.2,5.2,3.7,8.2,1.9,12.1l-3.6-0.6c1.6-3.4,2.1-6.1-0.8-9.7c-2.5-3-5.6-3.8-7.9-1.9
		c-1.7,1.4-1.8,3.1-0.3,6.4l3.1,6.9c1.7,3.7,1,7.1-1.7,9.4c-2.7,2.2-8.3,3.8-14-3.2c-2.7-3.4-5.2-7.8-1.5-13.6l3.3,0.7
		C-296.9-97.5-298-94.2-294.2-89.6z"/>
	<path id="Pfad_23" class="st0" d="M-270.1-55.9c-5.5,2-10.5-0.8-12.8-7.2c-2.4-6.5-0.4-11.7,5.1-13.7l19.1-7l1.3,3.5l-19.1,7
		c-4.1,1.5-4.8,5.1-3.3,9.1c1.6,4.4,4.8,6.2,8.5,4.9l19.1-7l1.3,3.5L-270.1-55.9z"/>
	<path id="Pfad_24" class="st0" d="M-254.8-24.5c-3.8,0.1-7.1-3.2-7.2-7.9l-0.2-9.1l-14.7,0.3l-0.1-3.7l29-0.7l0.3,12
		C-247.5-27.9-249.3-24.7-254.8-24.5z M-254.7-28.4c3.2-0.1,3.8-2.2,3.8-5.7l-0.2-7.7l-7.8,0.2l0.2,7.7
		C-258.6-30.4-257.1-28.3-254.7-28.4L-254.7-28.4z"/>
	<path id="Pfad_25" class="st0" d="M-280.5,3.7l-3.1-0.9l6-19.9l27.8,8.4l-5.8,19.2l-3.1-0.9l4.8-15.7l-8.9-2.7l-3.4,11.3l-3.1-0.9
		l3.4-11.3l-9.5-2.9L-280.5,3.7z"/>
	<path id="Pfad_26" class="st0" d="M-281.8,40.3c-2.8-2.1-3.5-6-1.5-8.9c-4.2,2.8-9.3-2.2-17.2-3.4l2.5-3.5
		c7.6,1.7,13.2,7.1,16.9,2.1l4.1-5.6l-12.1-8.7l2.2-3l23.5,17l-7.8,10.8C-274.4,41.3-278.7,42.5-281.8,40.3z M-279.9,36.9
		c2.7,2,4.6,0.1,6.4-2.4l5.2-7.3l-6.2-4.5l-5.2,7.3C-281.9,33.2-282,35.3-279.9,36.9z"/>
	<path id="Pfad_27" class="st0" d="M-311.1,63.6c-1.9-2.9-1.3-6.8,1.5-8.9c-4.9,1.2-8-5.2-15.1-9l3.6-2.5
		c6.6,4.1,10.1,11.1,15.2,7.6l5.7-3.9l-8.5-12.2l3-2.1l16.5,23.9l-11,7.6C-304.5,67-308.9,66.8-311.1,63.6z M-308.2,61
		c1.9,2.7,4.3,1.7,6.9-0.1l7.4-5.1l-4.3-6.3l-7.4,5.1C-308.9,56.9-309.7,58.8-308.2,61L-308.2,61z"/>
	<path id="Pfad_28" class="st0" d="M-346.6,75.7c-0.9-3.4,1.1-6.9,4.4-7.9c-5-0.5-5.8-7.5-11.2-13.5l4.2-1.1
		c4.8,6.1,5.8,13.9,11.8,12.2l6.7-1.8l-3.9-14.4l3.6-1l7.5,28l-12.9,3.5C-341.5,81.1-345.6,79.4-346.6,75.7z M-343,74.2
		c0.9,3.2,3.5,3,6.5,2.2l8.6-2.3l-2-7.3l-8.6,2.3C-342.3,70.1-343.7,71.7-343,74.2L-343,74.2z"/>
	<path id="Pfad_29" class="st0" d="M-384.1,75.3c0.3-3.5,3.3-6.1,6.8-6c-4.5-2.2-3-9.1-6-16.5l4.3,0.3c2.5,7.4,0.8,15,7,15.5
		l6.9,0.5l1.2-14.8l3.7,0.3l-2.3,28.9l-13.3-1C-381.1,82.1-384.4,79.1-384.1,75.3z M-380.2,75.1c-0.3,3.3,2.3,4,5.4,4.2l8.9,0.7
		l0.6-7.6l-8.9-0.7C-378.2,71.4-380,72.4-380.2,75.1z"/>
	<path id="Pfad_30" class="st0" d="M-419.3,62.3c1.5-3.2,5.2-4.6,8.4-3.3c-3.6-3.5,0.2-9.5-0.1-17.5l4,1.8
		c-0.1,7.8-4.3,14.4,1.4,16.9l6.3,2.8l6.1-13.6l3.4,1.5l-11.8,26.5l-12.2-5.5C-418.8,69.7-420.9,65.8-419.3,62.3z M-415.6,63.4
		c-1.4,3.1,0.8,4.5,3.6,5.8l8.2,3.7l3.1-6.9l-8.2-3.7C-412.4,60.6-414.5,61-415.6,63.4L-415.6,63.4z"/>
	<path id="Pfad_31" class="st0" d="M-448.1,38.2c2.4-2.5,6.4-2.6,9.1-0.3c-2.2-4.5,3.4-8.9,5.7-16.6l3.1,3
		c-2.7,7.3-8.8,12.2-4.3,16.4l5,4.8l10.3-10.8l2.7,2.6l-20,21l-9.7-9.2C-450.1,45.4-450.8,41-448.1,38.2z M-445,40.5
		c-2.3,2.4-0.8,4.6,1.5,6.7l6.5,6.2l5.2-5.5l-6.5-6.2C-441.1,39-443.2,38.6-445,40.5z"/>
	<path id="Pfad_32" d="M-441.3,5.5c4.8,9.3-2.2,15.8-7.5,18.5c-5.4,2.7-14.9,4.6-19.7-4.8c-2.9-5.7-1.5-9.5,1.7-13.4l3.3,2.3
		c-3.2,2.6-4,5.9-1.8,10c2.5,5,8.2,6,14.8,2.7c6.5-3.3,8.9-8.6,6.3-13.8c-2.2-4.3-5.7-5.2-11-3.5l-0.3-4.1
		C-449.7-1.8-444.5-0.8-441.3,5.5z"/>
	<path id="Pfad_33" d="M-449.7-22.3c1,8.3-4.3,14.6-13.3,15.8s-15.8-3.7-16.8-11.9c-1.1-8.4,4.3-14.7,13.5-15.9
		C-458.1-35.4-450.8-30.9-449.7-22.3z M-463.5-10.2c7.1-0.9,11.3-5.6,10.5-11.7s-6-9.6-13-8.7c-7.3,0.9-11.5,5.6-10.7,11.8
		C-475.9-12.8-470.6-9.3-463.5-10.2z"/>
	<path id="Pfad_34" d="M-454.7-55.3l-17.9,4.8l21.4,5.4l-0.9,3.4l-28.1-7.1l0.8-3l20.4-5.6l-15.3-14.7l0.8-3l28.1,7.1l-0.9,3.4
		l-21.4-5.4l13.4,12.9L-454.7-55.3z"/>
	<path id="Pfad_35" d="M-439.5-88l-18.4-2.3l17.7,13.2l-2.1,2.8l-23.3-17.3l1.9-2.5l21,2.6l-8.5-19.4l1.9-2.5l23.3,17.3l-2.1,2.8
		l-17.7-13.2l7.5,17L-439.5-88z"/>
	<path id="Pfad_36" d="M-406.1-120.3c3.1,4.9,1.5,10.4-4.3,14.1s-11.3,2.9-14.5-2.1l-11-17.2l3.1-2l11,17.2c2.4,3.7,6,3.6,9.6,1.3
		c3.9-2.5,5-6,2.9-9.3l-11-17.2l3.1-2L-406.1-120.3z"/>
	<path id="Pfad_37" d="M-376.6-120l-19.9-19.6l5.3,22.9l-3.4,0.8l-6.5-28.3l3.9-0.9l20.1,19.7l-5.3-23.1l3.4-0.8l6.5,28.3
		L-376.6-120z"/>
	<path id="Pfad_38" d="M-363.7-120.6l0.6-29l3.7,0.1l-0.6,29L-363.7-120.6z"/>
	<path id="Pfad_39" d="M-344.9-118.5l6.1-25l-9.3-2.3l0.8-3.2l22.1,5.4l-0.8,3.2l-9.2-2.3l-6.1,25L-344.9-118.5z"/>
	<path id="Pfad_40" d="M-320.2-108.9l5.9-9.7l-0.4-20.9l3.9,2.4v16.5l14.4-7.8l3.8,2.3l-18.4,9.4l-5.9,9.7L-320.2-108.9z"/>
</g>
<g id="super" transform="translate(527.133 210.005)">
	<path id="Pfad_61" class="st1" d="M-371.5-33.1l-3.2,15.5h-24.6l28-138.1h23.7l-3.2,15.5h-19.4l-9,44.1h14l-3.2,15.5h-14l-9.6,47.4
		L-371.5-33.1z"/>
	<g id="Gruppe_11" transform="translate(121.485 2.273)">
		<path id="Pfad_62" class="st1" d="M-446.3-124.3c3.2-15.9,0.6-18.2-3-18.2h-10.6l-7.3,36.2h10.6
			C-452.1-106.3-448.9-111.8-446.3-124.3 M-441.3-126.7c-3.3,16.3-9.1,29.6-13.7,30.9c3.8,8.5-4.2,41.9-6.8,76h-5.1
			c3.3-34.1,12-70.8,4.7-70.8h-8.2l-14.4,70.8h-4.4l28-138.1h15.8C-439.1-158-437.6-144.9-441.3-126.7"/>
	</g>
	<path id="Pfad_63" class="st1" d="M-478.1-28.8c7.4,0,11.8-15.2,13.8-25c2.2-10.8,1.6-17.8-1.8-22.4l-6.7-9.1
		c-3.5-4.7-3.6-15.3-0.2-32.2c5.1-25,12.9-40.5,20.4-40.5c7.9,0,8,11.2,6.6,29.4l-5.6,11.7c1.4-16.1,1.4-26.3-4.1-26.3
		c-4.6,0-9.5,9.3-12.4,23.3c-2.2,10.6-1.7,15.9,1.5,20.5l6.7,9.3c3.6,5.1,3.7,17.6,0.2,34.7c-3.4,16.9-11.3,42.2-22,42.2
		c-5.1,0-10.1-4.4-6.4-35.2l5.1-10C-484.5-42.4-485.1-28.8-478.1-28.8"/>
	<path id="Pfad_64" class="st1" d="M-427.3-58.7c-5.6,27.7-14.4,45.5-22.4,45.5c-8.1,0-9.6-17.4-3.9-45.5l19.7-97h4.4l-19.7,97
		c-4.2,20.8-2.4,29.9,2.7,29.9c5.5,0,11.1-11.4,14.9-29.9l19.7-97h4.4L-427.3-58.7z"/>
	<path id="Pfad_65" class="st1" d="M-387.4-121.6c3.1-15.2,1.3-18.6-2.9-18.6h-9.1L-407-103h9.1C-393.7-103-389.7-110.2-387.4-121.6
		 M-383-120.8c-3.7,18-10.7,33.3-16.4,33.3h-10.8l-14.2,69.9h-4.4l28-138.1h14.1C-379.7-155.7-377.7-146.8-383-120.8"/>
</g>
</svg>
