<?xml version="1.0" encoding="utf-8"?>
<!-- Generator: Adobe Illustrator 23.0.4, SVG Export Plug-In . SVG Version: 6.00 Build 0)  -->
<svg version="1.1" id="Ebene_1" xmlns="http://www.w3.org/2000/svg" xmlns:xlink="http://www.w3.org/1999/xlink" x="0px" y="0px"
	 viewBox="0 0 580.9 580.9" style="enable-background:new 0 0 580.9 580.9;" xml:space="preserve">
<style type="text/css">
	.st0{fill:#FFFFFF;}
	.st1{fill:none;stroke:#00F1F4;stroke-width:3;stroke-miterlimit:10;}
</style>
<g id="background">
	<path class="st0" d="M289.4,581c160.4,0,290.4-130.1,290.4-290.4S449.8,0.1,289.4,0.1C129.1,0.1-1,130.3-1,290.5
		C-1,450.9,129.1,581,289.4,581"/>
</g>
<g id="name">
	<path d="M306.9,92.5c-1.7,11.4-5.4,20.5-11,27.4c-5.6,6.9-14.2,11.2-25.8,12.8c-6.9,1-13.3,0.7-19.1-0.9
		c-5.8-1.6-10.6-3.9-14.4-7.1c-3.8-3.1-7.1-7-10-11.5c-2.9-4.5-5-9-6.4-13.3c-1.4-4.3-2.4-8.8-3.1-13.3c-0.7-4.6-0.9-9.2-0.8-13.9
		c0.1-4.6,1-9.6,2.5-14.8c1.5-5.2,3.7-9.9,6.4-14c2.8-4.1,6.8-7.8,12-11c5.3-3.2,11.4-5.3,18.4-6.3c10.4-1.5,18.9-0.4,25.3,3.1
		c6.4,3.6,12.2,9.5,17.4,17.8L287.2,56c-5-14-15.4-19.9-31.3-17.6c-9.8,1.4-17,6.2-21.6,14.5c-4.6,8.3-6,18.9-4.2,31.8
		c1.8,12.7,6.2,22.3,13.1,28.9c7,6.6,15.5,9.2,25.6,7.8c8.3-1.2,14.4-4.4,18.1-9.7c3.8-5.3,5.8-12.9,5.9-23L306.9,92.5z"/>
	<path d="M411.3,132.7c-7.6,8.7-15.6,14.4-24,17.2c-8.5,2.8-18,1.8-28.6-3.1c-6.4-2.9-11.6-6.6-15.6-11.1c-4.1-4.5-6.8-9.1-8.3-13.7
		c-1.5-4.7-2.2-9.7-2.2-15.1c0-5.4,0.6-10.3,1.8-14.7c1.1-4.4,2.7-8.7,4.6-12.8c1.9-4.2,4.2-8.3,6.9-12.1c2.6-3.8,6-7.5,10.1-11.1
		c4.1-3.6,8.4-6.3,13-8.3c4.5-2,9.9-2.9,16-2.7c6.1,0.1,12.4,1.7,18.9,4.6c9.6,4.4,16.1,9.8,19.6,16.3c3.5,6.5,5.2,14.6,5,24.4
		l-13.9,0.9c3.3-14.5-2.3-25.1-16.9-31.8c-9-4.1-17.7-3.9-26,0.5s-15.3,12.7-20.7,24.5c-5.3,11.6-6.8,22.1-4.5,31.4
		c2.3,9.3,8.1,16.1,17.3,20.3c7.6,3.5,14.5,4,20.5,1.6c6-2.4,11.8-7.8,17.4-16.1L411.3,132.7z"/>
	<path d="M477.4,223c-11,3.2-20.9,3.7-29.5,1.5c-8.6-2.2-16.1-8.2-22.4-18c-3.8-5.9-6.2-11.8-7.2-17.8c-1-6-0.9-11.3,0.4-16.1
		c1.3-4.8,3.4-9.4,6.3-13.9c2.9-4.5,6.1-8.3,9.4-11.4c3.3-3.1,6.9-5.9,10.8-8.3c3.9-2.5,8-4.7,12.3-6.5c4.3-1.8,9.1-3.1,14.5-3.9
		c5.4-0.8,10.5-0.8,15.4,0c4.9,0.8,9.9,2.9,15,6.3c5.1,3.4,9.6,8.1,13.4,14.1c5.7,8.9,8.3,17,7.7,24.3c-0.5,7.3-3.5,15.1-8.9,23.2
		l-12.2-6.8c10.6-10.4,11.6-22.3,2.9-35.8c-5.4-8.3-12.8-12.9-22.2-13.6c-9.5-0.7-19.7,2.4-30.7,9.5c-10.8,6.9-17.7,14.9-20.8,24
		c-3.1,9.1-1.9,17.9,3.6,26.5c4.5,7.1,10,11.2,16.4,12.4c6.4,1.2,14.2-0.2,23.3-4.2L477.4,223z"/>
	<path d="M487.1,332.3c-11.2-2.5-20.1-6.8-26.6-12.9c-6.5-6.1-10.2-15-11-26.6c-0.5-7,0.3-13.3,2.3-19c2-5.7,4.7-10.3,8.1-13.9
		c3.4-3.6,7.5-6.6,12.2-9.1c4.7-2.5,9.3-4.3,13.7-5.4c4.4-1.1,8.9-1.8,13.5-2.1c4.7-0.3,9.3-0.2,13.9,0.2c4.6,0.5,9.5,1.7,14.6,3.6
		c5.1,1.9,9.6,4.4,13.5,7.4c3.9,3.1,7.3,7.3,10.1,12.8c2.8,5.5,4.5,11.7,4.9,18.8c0.7,10.5-0.9,18.9-4.9,25c-4,6.2-10.4,11.5-19,16
		l-7.4-11.8c14.3-4,20.9-14,19.8-30c-0.7-9.9-5-17.4-12.9-22.6c-7.9-5.2-18.4-7.4-31.5-6.5c-12.8,0.9-22.7,4.6-29.8,11
		c-7.1,6.5-10.3,14.8-9.6,24.9c0.6,8.4,3.4,14.6,8.4,18.8c5,4.1,12.5,6.7,22.5,7.6L487.1,332.3z"/>
	<path d="M429.6,432.3c-7.5-8.7-12-17.4-13.6-26.2c-1.6-8.8,0.8-18.1,7.1-27.9c3.8-5.9,8.2-10.5,13.2-13.9c5-3.4,9.9-5.5,14.8-6.3
		c4.9-0.8,9.9-0.8,15.2,0c5.3,0.8,10.1,2.1,14.3,3.8c4.2,1.8,8.2,3.9,12.1,6.3c3.9,2.5,7.6,5.4,11,8.5c3.4,3.1,6.6,7,9.6,11.5
		c2.9,4.6,5.1,9.2,6.4,14c1.3,4.8,1.5,10.2,0.4,16.3c-1,6.1-3.4,12.1-7.3,18c-5.7,8.9-12,14.6-18.9,17.1c-6.9,2.5-15.2,3-24.8,1.5
		l1.1-13.9c13.9,5.4,25.1,1.3,33.8-12.2c5.3-8.3,6.4-16.9,3.1-25.9c-3.3-8.9-10.4-16.9-21.4-24c-10.8-6.9-20.9-9.9-30.5-8.9
		c-9.5,1-17.1,5.7-22.6,14.3c-4.5,7.1-6,13.8-4.5,20.1c1.5,6.3,6,12.8,13.5,19.5L429.6,432.3z"/>
	<path d="M330.9,485c-1.6-11.4-0.7-21.2,2.7-29.4c3.4-8.2,10.4-14.8,21-19.6c6.4-2.9,12.6-4.5,18.6-4.6c6-0.2,11.3,0.7,15.9,2.7
		c4.5,1.9,8.8,4.7,12.8,8.2c4,3.5,7.3,7.2,9.9,10.9c2.6,3.7,4.8,7.7,6.7,11.8c1.9,4.2,3.5,8.6,4.7,13.1c1.2,4.5,1.8,9.4,1.8,14.9
		c0,5.4-0.7,10.5-2.2,15.2c-1.5,4.7-4.3,9.4-8.4,13.9c-4.1,4.6-9.4,8.3-15.9,11.3c-9.6,4.4-18,5.8-25.2,4.2
		c-7.2-1.6-14.4-5.6-21.7-12.1l8.5-11.1c8.8,12,20.5,14.6,35.1,8c9-4.1,14.5-10.8,16.6-20.1c2.1-9.3,0.4-19.8-5.1-31.7
		c-5.3-11.6-12.3-19.6-20.8-23.9c-8.6-4.3-17.5-4.4-26.7-0.2c-7.6,3.5-12.5,8.3-14.6,14.5c-2.1,6.2-1.8,14.1,0.9,23.7L330.9,485z"/>
	<path d="M219.3,476c4.8-10.4,10.8-18.2,18.2-23.3c7.3-5.1,16.8-6.8,28.3-5.2c6.9,1,13,3,18.1,6.2c5.2,3.1,9.1,6.7,11.9,10.8
		c2.8,4.1,4.9,8.7,6.4,13.8c1.5,5.2,2.3,10,2.5,14.6c0.2,4.5-0.1,9.1-0.7,13.6c-0.7,4.6-1.7,9.1-3.1,13.6c-1.4,4.4-3.6,8.9-6.5,13.5
		c-2.9,4.6-6.3,8.5-10.1,11.7c-3.8,3.2-8.7,5.6-14.6,7.2c-5.9,1.6-12.4,1.9-19.4,0.9c-10.4-1.5-18.3-4.8-23.5-10
		c-5.2-5.2-9.1-12.5-11.7-22l13.1-4.8c0.9,14.8,9.3,23.4,25.2,25.6c9.8,1.4,18.1-1.3,24.8-7.9c6.7-6.7,11-16.5,12.9-29.4
		c1.8-12.7,0.3-23.1-4.6-31.4c-4.9-8.3-12.3-13.1-22.4-14.6c-8.3-1.2-15,0.2-20.1,4.3c-5.1,4-9.1,10.8-12.1,20.4L219.3,476z"/>
	<path d="M130.4,408.1c9.7-6.2,19-9.5,27.9-9.8c8.9-0.3,17.8,3.3,26.6,11c5.3,4.6,9.3,9.6,11.9,15c2.6,5.4,4,10.6,4.2,15.5
		c0.1,4.9-0.6,10-2.1,15.1c-1.5,5.1-3.5,9.7-5.8,13.6c-2.3,3.9-5,7.6-8,11.1c-3,3.5-6.4,6.8-10,9.7c-3.6,2.9-7.8,5.6-12.8,7.8
		c-4.9,2.3-9.9,3.7-14.8,4.4c-4.9,0.6-10.3,0-16.2-1.8c-5.9-1.9-11.5-5.1-16.8-9.7c-8-6.9-12.7-13.9-14.3-21.1
		c-1.6-7.2-0.9-15.5,2-24.8l13.6,3.1c-7.3,13-4.8,24.7,7.3,35.2c7.5,6.5,15.9,8.7,25.2,6.7c9.3-2,18.2-7.9,26.7-17.8
		c8.4-9.7,12.7-19.3,13.1-28.9c0.4-9.6-3.3-17.7-11-24.4c-6.4-5.5-12.8-7.9-19.2-7.3c-6.5,0.6-13.5,4.2-21.2,10.6L130.4,408.1z"/>
	<path d="M101.3,370.9l45,0l4.4,13.1L42.4,382L37,366l85.4-66.4l4.6,13.8L91,340.1L101.3,370.9z M49.7,370.8l39,0.2l-7.7-22.8
		L49.7,370.8z"/>
	<path d="M115.6,236l-1.9,6.6l-63.5,14.9l74.6,21.7l-3.4,11.8l-98-28.5l3.1-10.6L99,234.5L47,180.9l3.1-10.6l98,28.5l-3.4,11.8
		L70.1,189L115.6,236z"/>
	<path d="M130.5,80c8.2-6.6,15.6-10.1,22.1-10.3c6.6-0.2,12.7,3.3,18.6,10.5c4.3,5.3,5.8,11.5,4.7,18.7c-1.2,7.1-5,13.3-11.3,18.5
		l-24.9,20.2l32.5,40.1l-10.1,8.2l-64.3-79.3L130.5,80z M153.4,111.4c4.8-3.9,7.8-7.9,9-12.1c1.2-4.2,0.5-7.9-2.2-11.1
		c-3.4-4.1-6.9-5.9-10.6-5.3c-3.7,0.6-8.2,3-13.4,7.2l-21.1,17.1l17.3,21.3L153.4,111.4z"/>
</g>
<g id="super">
	<g>
		<path class="st1" d="M476.8,215.2c7.7-33.1,1.5-37.6-7.2-37.6h-25.1l-17.4,75h25.1C463.4,252.5,470.9,241,476.8,215.2z M488.9,210
			c-7.8,33.8-21.7,61.2-32.6,64c9,17.6-9.9,86.8-16.2,157.5H428c7.8-70.7,28.5-146.9,11.2-146.9h-19.4l-34.1,146.9h-10.4l66.4-286.3
			h37.5C494,145.2,497.6,172.3,488.9,210z M366.4,399.3l-7.5,32.1h-58.3L367,145.1h56.3l-7.5,32.1h-45.9l-21.3,91.5h33.1l-7.5,32.1
			h-32.9L318.5,399h47.9V399.3L366.4,399.3z M328.6,215.9c7.3-31.4,3.1-38.4-6.9-38.4h-21.6l-17.9,77h21.6
			C313.7,254.3,323.2,239.5,328.6,215.9z M339.1,217.5c-8.7,37.3-25.4,69.2-38.7,69.2h-25.6l-33.7,144.9h-10.4l66.4-286.3h33.5
			C346.8,145.2,351.5,163.7,339.1,217.5z M234,346.3c-13.3,57.4-34.1,94.3-53.3,94.3c-19.3,0-22.6-36.1-9.2-94.3l46.7-201.1h10.4
			L182,346.3c-10.1,43.2-5.7,62,6.3,62c13,0,26.5-23.6,35.3-62l46.7-201.1h10.4L234,346.3z M113.5,408.3c17.6,0,28-31.4,32.7-51.9
			c5.2-22.3,3.8-36.9-4.1-46.4l-15.8-18.8c-8.4-9.8-8.6-31.8-0.5-66.7c12.1-51.9,30.6-84,48.4-84c18.7,0,19,23.1,15.6,60.9
			l-13.3,24.3c3.4-33.4,3.2-54.6-9.8-54.6c-10.9,0-22.6,19.3-29.4,48.4c-5.1,22-4.1,33.1,3.5,42.4l15.9,19.3
			c8.6,10.6,8.7,36.6,0.6,71.9c-8.1,34.9-26.6,87.5-52,87.5c-12.1,0-24-9-15.2-73l12.2-20.8C98.2,380.1,96.9,408.3,113.5,408.3z"/>
	</g>
</g>
</svg>
