<svg version="1.1" xmlns="http://www.w3.org/2000/svg" xmlns:xlink="http://www.w3.org/1999/xlink" x="0px" y="0px"
	 viewBox="0 0 248.7 248.7" enable-background="new 0 0 248.7 248.7" xml:space="preserve">
<g>
	<path d="M30.7,150.4l-2.1-2.9c2.7-1.5,4.8-4,4.1-7.9c-0.6-3.4-2.6-5.1-5.1-4.6c-2.2,0.4-3.1,2.1-3.3,5.3l-0.2,3.5
		c-0.2,3.8-1.6,6.7-5.7,7.4c-4,0.7-7.6-2.2-8.4-7.2c-0.9-5.3,2-8.6,4.2-9.7l2,2.8c-1.4,0.8-3.9,2.7-3.2,6.8c0.5,3.1,2.4,4.6,4.7,4.2
		c2.1-0.4,2.9-1.8,3.1-4.7l0.2-3.6c0.2-4.1,2.1-7.4,5.8-8c4.3-0.7,8,1.9,8.9,7.6C36.7,144.7,34.4,148.5,30.7,150.4z"/>
	<path d="M23.9,126.1l-15.4-1.2l0.2-3.2l15,1.2c4.6,0.4,7.7-1.4,8.1-5.7c0.3-4.3-2.5-6.5-7.1-6.9l-15-1.2l0.2-3.2l15.4,1.2
		c6.5,0.5,9.9,4,9.5,10.3C34.3,123.2,30.9,126.6,23.9,126.1z"/>
	<path d="M12.5,94.2l3.3-9.5c1.7-5,5.7-6.8,9.9-5.3s6.2,5.3,4.5,10.3L28,96.1l9.5,3.3l-1.1,3.1L12.5,94.2z M27.2,89.3
		c1.2-3.5-0.2-5.8-2.7-6.7c-2.5-0.9-4.8,0.1-6.1,3.7l-2,5.8l8.7,3L27.2,89.3z"/>
	<path d="M22.9,68.5l5.4-8.4c2.9-4.5,7.1-5.3,10.9-2.8c3.7,2.4,4.8,6.6,1.9,11.1l-3.7,5.7l8.4,5.4L44,82.2L22.9,68.5z M38.4,67.3
		c2-3.1,1.2-5.7-1-7.2c-2.2-1.4-4.7-1-6.8,2.1l-3.3,5.2l7.8,5L38.4,67.3z"/>
	<path d="M46.4,56.1C41.2,50.3,41.8,42.7,47,38s12.7-4.4,18,1.5c5.2,5.9,4.7,13.4-0.5,18C59.2,62.3,51.7,62,46.4,56.1z M62.4,41.9
		c-3.8-4.3-9.2-5.2-13.4-1.5s-3.9,9.2,0,13.5s9.2,5.2,13.4,1.5C66.6,51.6,66.3,46.1,62.4,41.9z"/>
	<path d="M66,24.5l9.4-4.6c4.7-2.3,8.6-0.8,10.3,2.7c1.7,3.4,0.3,6.6-2.4,8.6c3.3-1,5.1,0.1,6.9,2.5l3.9,5.2l-3.2,1.6l-3.6-5
		c-1.9-2.7-4-3-7.1-1.5l-4.8,2.3l4.6,9.5l-3,1.4L66,24.5z M80.1,30.6c2.6-1.3,4-3.4,2.7-6.1s-3.8-2.9-6.4-1.6l-6.1,3l3.7,7.7
		L80.1,30.6z"/>
	<path d="M98.6,15.2L89.8,17l-0.6-3l21-4.5l0.6,3l-9.1,2l4.6,21.6l-3.2,0.7L98.6,15.2z"/>
	<path d="M126.5,24.3l1.8-15.4l3.2,0.4l-1.8,14.9c-0.6,4.6,1,7.8,5.3,8.3s6.6-2.2,7.2-6.8l1.8-14.9l3.2,0.4l-1.8,15.4
		c-0.8,6.5-4.4,9.8-10.7,9C129,34.9,125.7,31.3,126.5,24.3z"/>
	<path d="M149.7,31l3.5-0.3c-0.1,3.1,0.9,6.1,4.6,7.5c3.2,1.2,5.7,0.4,6.6-2c0.8-2-0.2-3.8-2.9-5.6l-2.9-2c-3.2-2.2-4.9-4.8-3.4-8.7
		c1.5-3.8,5.8-5.4,10.5-3.5c5,1.9,6.3,6.1,6.1,8.6l-3.4,0.3c0.1-1.6-0.3-4.7-4.2-6.2c-2.9-1.1-5.2-0.3-6,1.8c-0.8,2,0.1,3.4,2.5,5.1
		l3,2c3.4,2.3,5.3,5.6,3.9,9.1c-1.6,4.1-5.7,5.9-11.1,3.7C151.5,39.1,149.4,35.1,149.7,31z"/>
	<path fill="none" stroke="#000000" stroke-width="0.8568" d="M178.3,44.2l3.4,0.8c-1.1,2.9-1.1,6.1,2,8.6c2.6,2.2,5.3,2.2,6.9,0.3
		c1.4-1.7,1-3.6-0.9-6.2l-2.1-2.8c-2.3-3.1-3.1-6.1-0.4-9.4c2.6-3.1,7.2-3.2,11.1,0.1c4.1,3.4,4,7.8,3,10.1l-3.3-0.8
		c0.6-1.5,1.2-4.6-1.9-7.2c-2.4-2-4.8-1.9-6.3-0.2c-1.4,1.7-1,3.3,0.7,5.6l2.2,2.9c2.5,3.3,3.2,6.9,0.7,9.9c-2.8,3.4-7.3,3.7-11.8,0
		C177.4,52.5,176.7,48,178.3,44.2z"/>
	<path fill="none" stroke="#000000" stroke-width="0.8568" d="M199.2,58.3l12.5-9.1l1.9,2.6l-12.2,8.8c-3.8,2.7-5,6-2.5,9.6
		c2.6,3.5,6.1,3.4,9.8,0.7l12.2-8.8l1.9,2.6l-12.5,9.1c-5.3,3.8-10.2,3.4-13.9-1.7C193.1,67.3,193.5,62.4,199.2,58.3z"/>
	<path fill="none" stroke="#000000" stroke-width="0.8568" d="M228.5,75.3l3.6,9.3c1.9,5,0.1,8.8-4.1,10.5c-4.2,1.6-8.2,0-10.1-5
		l-2.4-6.3l-9.3,3.6l-1.2-3L228.5,75.3z M220.4,88.5c1.3,3.5,3.9,4.4,6.4,3.4s3.6-3.2,2.2-6.7l-2.2-5.7l-8.6,3.4L220.4,88.5z"/>
	<path fill="none" stroke="#000000" stroke-width="0.8568" d="M237.2,101.7l2.3,17.4l-3,0.4l-1.8-14.2l-7.5,1l1.4,10.5l-3,0.4
		l-1.4-10.5l-8.4,1.1l1.8,14.2l-3,0.4l-2.3-17.4L237.2,101.7z"/>
	<path fill="none" stroke="#000000" stroke-width="0.8568" d="M239.4,129.3l-1.2,10.4c-0.6,5.1-4,7.7-7.8,7.2
		c-3.8-0.4-5.7-3.3-6-6.7c-1,3.3-2.8,4.2-5.8,4.5l-6.5,0.5l0.4-3.5l6.2-0.4c3.3-0.2,4.7-1.8,5.1-5.2l0.6-5.3l-10.5-1.2l0.4-3.2
		L239.4,129.3z M226.7,137.9c-0.3,2.9,0.7,5.2,3.7,5.5c2.9,0.3,4.5-1.6,4.8-4.5l0.8-6.7l-8.5-1L226.7,137.9z"/>
	<path fill="none" stroke="#000000" stroke-width="0.8568" d="M234.4,158.4l-3.8,9.7c-1.9,4.8-5.8,6.4-9.3,5s-4.6-4.6-4.1-8
		c-1.8,3-3.8,3.3-6.8,2.8l-6.4-1.1l1.3-3.3l6.1,1.2c3.3,0.7,5-0.5,6.3-3.7l1.9-5l-9.8-3.8l1.2-3L234.4,158.4z M219.9,163.4
		c-1.1,2.7-0.6,5.2,2.1,6.3c2.7,1.1,4.8-0.4,5.8-3.2l2.5-6.3l-8-3.1L219.9,163.4z"/>
	<path fill="none" stroke="#000000" stroke-width="0.8568" d="M222.2,185.2l-6.1,8.4c-3,4.2-7.2,4.7-10.3,2.5s-3.3-5.7-1.9-8.7
		c-2.5,2.4-4.5,2.3-7.3,1l-5.9-2.7l2.1-2.9l5.6,2.7c3,1.5,5,0.8,7-2l3.1-4.3L200,173l1.9-2.6L222.2,185.2z M206.9,186.4
		c-1.7,2.4-1.9,4.9,0.5,6.6c2.4,1.7,4.7,0.8,6.4-1.6l4-5.5l-6.9-5L206.9,186.4z"/>
	<path fill="none" stroke="#000000" stroke-width="0.8568" d="M203.6,208l-8.1,6.6c-4,3.3-8.2,2.7-10.6-0.2
		c-2.4-2.9-1.8-6.3,0.3-8.9c-3,1.7-4.9,1.1-7.3-0.8l-5-4.1l2.8-2.3l4.7,4c2.5,2.2,4.6,2,7.3-0.2l4.1-3.4l-6.7-8.2l2.5-2.1L203.6,208
		z M188.5,205.4c-2.3,1.8-3.1,4.2-1.2,6.5c1.9,2.3,4.4,1.9,6.6,0.1l5.2-4.3l-5.4-6.6L188.5,205.4z"/>
	<path fill="none" stroke="#000000" stroke-width="0.8568" d="M179.9,225.4l-9.5,4.4c-4.7,2.2-8.6,0.6-10.2-2.9
		c-1.6-3.4-0.1-6.6,2.6-8.6c-3.3,0.9-5-0.2-6.8-2.6l-3.8-5.2l3.2-1.5l3.5,5.1c1.9,2.7,4,3.1,7.1,1.6l4.8-2.2l-4.4-9.6l2.9-1.4
		L179.9,225.4z M166,219.1c-2.6,1.2-4.1,3.3-2.8,6c1.2,2.7,3.8,3,6.4,1.8l6.1-2.8l-3.6-7.8L166,219.1z"/>
	<path fill="none" stroke="#000000" stroke-width="0.8568" d="M152.5,236.3l-10.3,1.8c-5.1,0.9-8.5-1.6-9.1-5.4
		c-0.7-3.7,1.5-6.4,4.7-7.6c-3.5,0-4.8-1.5-5.9-4.3l-2.4-6l3.5-0.6l2.1,5.8c1.1,3.1,3,4,6.4,3.4l5.2-0.9l-1.8-10.4l3.2-0.6
		L152.5,236.3z M140.6,226.6c-2.9,0.5-4.8,2.2-4.3,5.1c0.5,2.9,2.9,3.8,5.7,3.3l6.7-1.2l-1.5-8.4L140.6,226.6z"/>
	<path fill="none" stroke="#000000" stroke-width="0.8568" d="M123.3,239.8l-10.4-0.8c-5.2-0.4-7.8-3.7-7.5-7.5s3.1-5.8,6.4-6.2
		c-3.4-0.8-4.3-2.7-4.7-5.6l-0.8-6.5l3.6,0.3l0.6,6.1c0.3,3.3,1.9,4.6,5.4,4.9l5.3,0.4l0.8-10.5l3.2,0.3L123.3,239.8z M114.3,227.5
		c-2.9-0.2-5.2,0.9-5.4,3.9c-0.2,2.9,1.8,4.4,4.7,4.7l6.7,0.5l0.7-8.5L114.3,227.5z"/>
	<path fill="none" stroke="#000000" stroke-width="0.8568" d="M94.1,236l-9.9-3.4c-4.9-1.7-6.6-5.5-5.3-9.1c1.2-3.6,4.5-4.8,7.8-4.4
		c-3-1.7-3.5-3.7-3.1-6.6l0.9-6.4l3.4,1.2l-1,6.1c-0.5,3.3,0.7,5,4,6.1l5,1.8l3.5-10l3.1,1.1L94.1,236z M88.5,221.7
		c-2.8-1-5.2-0.4-6.2,2.4c-1,2.8,0.6,4.8,3.4,5.7l6.4,2.2l2.8-8.1L88.5,221.7z"/>
	<path fill="none" stroke="#000000" stroke-width="0.8568" d="M66.9,224.7l-8.7-5.8c-4.3-2.9-5-7-2.8-10.2c2.1-3.1,5.5-3.5,8.7-2.2
		c-2.5-2.4-2.4-4.4-1.3-7.2l2.5-6l3,2l-2.5,5.6c-1.4,3-0.6,5,2.3,6.9l4.4,3l5.9-8.7l2.7,1.8L66.9,224.7z M65.1,209.5
		c-2.4-1.6-5-1.7-6.6,0.7s-0.6,4.8,1.8,6.4l5.6,3.8l4.8-7.1L65.1,209.5z"/>
	<path fill="none" stroke="#000000" stroke-width="0.8568" d="M43.4,207.1l-6.9-7.8c-3.4-3.9-3-8.1-0.2-10.6s6.2-2,8.9,0
		c-1.8-2.9-1.3-4.9,0.6-7.3l3.9-5.2l2.4,2.7l-3.8,4.8c-2.1,2.6-1.8,4.7,0.5,7.3l3.5,4l7.9-7l2.1,2.4L43.4,207.1z M45.5,191.9
		c-1.9-2.2-4.4-2.9-6.6-1c-2.2,2-1.8,4.5,0.2,6.6l4.5,5.1l6.4-5.7L45.5,191.9z"/>
	<path fill="none" stroke="#000000" stroke-width="0.8568" d="M25.1,184l-4.7-9.3c-2.3-4.6-0.9-8.6,2.5-10.3s6.6-0.4,8.7,2.3
		c-1-3.3,0-5.1,2.4-6.9l5.1-4l1.6,3.2l-4.9,3.7c-2.7,2-2.9,4.1-1.4,7.2l2.4,4.8l9.4-4.8l1.5,2.9L25.1,184z M30.9,169.8
		c-1.3-2.6-3.5-3.9-6.1-2.6c-2.6,1.3-2.8,3.9-1.5,6.5l3.1,6l7.6-3.9L30.9,169.8z"/>
</g>
<g transform="translate(527.133 210.005)">
	<path fill="#FF4100" d="M-371.1-33.1l-3.2,15.5h-24.6l28-138.1h23.7l-3.2,15.5h-19.4l-9,44.1h14l-3.2,15.5h-14
		l-9.6,47.4L-371.1-33.1z"/>
	<g transform="translate(121.485 2.273)">
		<path id="Pfad_62" fill="#FF4100" d="M-445.9-124.3c3.2-15.9,0.6-18.2-3-18.2h-10.6l-7.3,36.2h10.6
			C-451.7-106.3-448.5-111.8-445.9-124.3 M-440.9-126.7c-3.3,16.3-9.1,29.6-13.7,30.9c3.8,8.5-4.2,41.9-6.8,76h-5.1
			c3.3-34.1,12-70.8,4.7-70.8h-8.2l-14.4,70.8h-4.4l28-138.1h15.8C-438.7-158-437.2-144.9-440.9-126.7"/>
	</g>
	<path fill="#FF4100" d="M-477.7-28.8c7.4,0,11.8-15.2,13.8-25c2.2-10.8,1.6-17.8-1.8-22.4l-6.7-9.1
		c-3.5-4.7-3.6-15.3-0.2-32.2c5.1-25,12.9-40.5,20.4-40.5c7.9,0,8,11.2,6.6,29.4l-5.6,11.7c1.4-16.1,1.4-26.3-4.1-26.3
		c-4.6,0-9.5,9.3-12.4,23.3c-2.2,10.6-1.7,15.9,1.5,20.5l6.7,9.3c3.6,5.1,3.7,17.6,0.2,34.7c-3.4,16.9-11.3,42.2-22,42.2
		c-5.1,0-10.1-4.4-6.4-35.2l5.1-10C-484.1-42.4-484.7-28.8-477.7-28.8"/>
	<path fill="#FF4100" d="M-426.9-58.7c-5.6,27.7-14.4,45.5-22.4,45.5c-8.1,0-9.6-17.4-3.9-45.5l19.7-97h4.4l-19.7,97
		c-4.2,20.8-2.4,29.9,2.7,29.9c5.5,0,11.1-11.4,14.9-29.9l19.7-97h4.4L-426.9-58.7z"/>
	<path fill="#FF4100" d="M-387-121.6c3.1-15.2,1.3-18.6-2.9-18.6h-9.1l-7.6,37.2h9.1C-393.3-103-389.3-110.2-387-121.6
		 M-382.6-120.8c-3.7,18-10.7,33.3-16.4,33.3h-10.8L-424-17.6h-4.4l28-138.1h14.1C-379.3-155.7-377.3-146.8-382.6-120.8"/>
</g>
</svg>
