<?xml version="1.0" encoding="utf-8"?>
<!-- Generator: Adobe Illustrator 22.0.1, SVG Export Plug-In . SVG Version: 6.00 Build 0)  -->
<svg version="1.1" id="Ebene_1" xmlns="http://www.w3.org/2000/svg" xmlns:xlink="http://www.w3.org/1999/xlink" x="0px" y="0px"
	 viewBox="0 0 580.9 580.9" enable-background="new 0 0 580.9 580.9" xml:space="preserve">
<g id="background">
	<path fill="#FFFFFF" d="M290.4,580.9c160.4,0,290.4-130.1,290.4-290.4S450.8,0,290.4,0C130.1,0,0,130.2,0,290.4
		C0,450.8,130.1,580.9,290.4,580.9"/>
</g>
<g id="name">
	<g>
		<path fill="#181716" d="M122.3,241.9l11.7,0.4l-2.1,64.4l-103.6-3.3l0.4-13.2l92,2.9L122.3,241.9z"/>
	</g>
	<g>
		<path fill="#181716" d="M162.9,202.2c-15.7,25.4-45,31-72.6,13.9S54.8,170.3,70.4,145c16-25.9,45-31.2,73.4-13.6
			C169.2,147.2,179.2,175.8,162.9,202.2z M97.3,204.9c21.8,13.5,44.1,9.9,55.7-8.8c11.5-18.6,4.9-40.3-16.4-53.5
			c-22.2-13.8-44.4-10.5-56.2,8.6C68.8,169.8,75.5,191.4,97.3,204.9z"/>
	</g>
	<g>
		<path fill="#181716" d="M255.2,134.3L173.6,77l32.1,77.7l-11.6,4.8l-39.6-95.9l13.3-5.5l82.4,57.7l-32.3-78.4l11.6-4.8l39.6,95.9
			L255.2,134.3z"/>
	</g>
	<g>
		<path fill="#181716" d="M341.7,34.8c26,4.2,38.6,26,33.6,57.8c-5.1,31.9-24.1,48.7-49.9,44.6l-39.5-6.3l16.4-102.4L341.7,34.8z
			 M362.2,90.7c4.2-26.1-4.3-41.5-24.6-44.7l-24.2-3.9l-12.7,79.4l24.2,3.9C345.2,128.6,358.1,116.5,362.2,90.7z"/>
	</g>
	<g>
		<path fill="#181716" d="M397,181.3c-22.4-19.8-23-49.6-1.5-73.9s51.1-27.3,73.4-7.6c22.8,20.2,23.2,49.6,1.1,74.6
			C450.2,196.8,420.3,201.9,397,181.3z M405.4,116.2c-17,19.2-17.2,41.8-0.7,56.4c16.4,14.5,38.9,11.6,55.5-7.1
			c17.3-19.6,17.8-42,0.9-56.9C444.8,94,422.4,97,405.4,116.2z"/>
	</g>
	<g>
		<path fill="#181716" d="M446.7,281.6l70.4-70.6L435,229.3l-2.7-12.2l101.2-22.6l3.1,14l-71,71.3l82.7-18.4l2.7,12.2l-101,22.6
			L446.7,281.6z"/>
	</g>
	<g>
		<path fill="#181716" d="M424.1,370.4l98-18.3l-78-31.5l4.7-11.6l96.2,38.8l-5.4,13.3l-98.9,18.5l78.6,31.7l-4.7,11.6l-96.2-38.8
			L424.1,370.4z"/>
	</g>
	<g>
		<path fill="#181716" d="M358.7,435.9l91.1,40.5l-46.4-70.1l10.4-6.9l57.2,86.5l-12,7.9L367,453l46.8,70.7l-10.4,6.9l-57.2-86.5
			L358.7,435.9z"/>
	</g>
	<g>
		<path fill="#181716" d="M270.7,447.3l50.9,85.7l2.7-84l12.5,0.4L333.5,553l-14.4-0.5L267.6,466l-2.7,84.7l-12.5-0.4l3.3-103.6
			L270.7,447.3z"/>
	</g>
	<g>
		<path fill="#181716" d="M188.8,406.9l-8.4,99.4l51-66.8l9.9,7.6l-62.9,82.4l-11.4-8.7l8.4-100.3L124,487.9l-10-7.6l62.9-82.4
			L188.8,406.9z"/>
	</g>
	<g>
		<path fill="#181716" d="M139.3,332.7l-59.8,79.8l78.7-29.6l4.4,11.7l-97,36.6l-5.1-13.4l60.2-80.6L41.4,367L37,355.3l97-36.6
			L139.3,332.7z"/>
	</g>
</g>
<g id="super">
	<g>
		<path fill="none" stroke="#00F1F4" stroke-width="3" stroke-miterlimit="10" d="M476.8,215.2c7.7-33.1,1.5-37.6-7.2-37.6h-25.1
			l-17.4,75h25.1C463.4,252.5,470.9,241,476.8,215.2z M488.9,210c-7.8,33.8-21.7,61.2-32.6,64c9,17.6-9.9,86.8-16.2,157.5H428
			c7.8-70.7,28.5-146.9,11.2-146.9h-19.4l-34.1,146.9h-10.4l66.4-286.3h37.5C494,145.2,497.6,172.3,488.9,210z M366.4,399.3
			l-7.5,32.1h-58.3L367,145.1h56.3l-7.5,32.1h-45.9l-21.3,91.5h33.1l-7.5,32.1h-32.9L318.5,399h47.9L366.4,399.3L366.4,399.3z
			 M328.6,215.9c7.3-31.4,3.1-38.4-6.9-38.4h-21.6l-17.9,77h21.6C313.7,254.3,323.2,239.5,328.6,215.9z M339.1,217.5
			c-8.7,37.3-25.4,69.2-38.7,69.2h-25.6l-33.7,144.9h-10.4l66.4-286.3h33.5C346.8,145.2,351.5,163.7,339.1,217.5z M234,346.3
			c-13.3,57.4-34.1,94.3-53.3,94.3c-19.3,0-22.6-36.1-9.2-94.3l46.7-201.1h10.4L182,346.3c-10.1,43.2-5.7,62,6.3,62
			c13,0,26.5-23.6,35.3-62l46.7-201.1h10.4L234,346.3z M113.5,408.3c17.6,0,28-31.4,32.7-51.9c5.2-22.3,3.8-36.9-4.1-46.4
			l-15.8-18.8c-8.4-9.8-8.6-31.8-0.5-66.7c12.1-51.9,30.6-84,48.4-84c18.7,0,19,23.1,15.6,60.9l-13.3,24.3
			c3.4-33.4,3.2-54.6-9.8-54.6c-10.9,0-22.6,19.3-29.4,48.4c-5.1,22-4.1,33.1,3.5,42.4l15.9,19.3c8.6,10.6,8.7,36.6,0.6,71.9
			c-8.1,34.9-26.6,87.5-52,87.5c-12.1,0-24-9-15.2-73l12.2-20.8C98.2,380.1,96.9,408.3,113.5,408.3z"/>
	</g>
</g>
</svg>
