<?xml version="1.0" encoding="utf-8"?>
<!-- Generator: Adobe Illustrator 16.0.0, SVG Export Plug-In . SVG Version: 6.00 Build 0)  -->
<!DOCTYPE svg PUBLIC "-//W3C//DTD SVG 1.1//EN" "http://www.w3.org/Graphics/SVG/1.1/DTD/svg11.dtd">
<svg version="1.1" id="Ebene_1" xmlns="http://www.w3.org/2000/svg" xmlns:xlink="http://www.w3.org/1999/xlink" x="0px" y="0px"
	 width="580.895px" height="580.896px" viewBox="7.651 130.038 580.895 580.896"
	 enable-background="new 7.651 130.038 580.895 580.896" xml:space="preserve">
<g id="background">
	<path fill="#FFFFFF" d="M298.1,710.934c160.373,0,290.447-130.074,290.447-290.448S458.472,130.038,298.1,130.038
		c-160.374,0-290.448,130.228-290.448,290.448C7.651,580.86,137.726,710.934,298.1,710.934"/>
</g>
<g id="name">
	<g>
		<path fill="#181716" d="M64.884,375.343c10.559,0.153,18.21,5.203,22.496,14.69c5.356-13.16,12.854-18.822,25.402-18.669
			c17.751,0.153,29.382,12.548,29.229,30.911l-0.612,46.827l-103.753-1.377l0.459-42.083
			C38.41,381.158,54.325,375.189,64.884,375.343z M66.567,388.656c-13.313-0.153-16.68,9.488-16.833,20.506l-0.306,25.556
			l33.054,0.459l0.306-25.556C82.941,397.073,78.962,388.809,66.567,388.656z M112.629,384.677
			c-10.559-0.153-18.058,6.121-18.21,18.363l-0.459,32.289l35.656,0.459l0.459-32.289
			C130.38,388.503,119.974,384.677,112.629,384.677z"/>
	</g>
	<path fill="#181716" d="M179.349,293.319l9.947,6.121l-39.481,63.201l-87.992-54.938l38.104-60.905l9.947,6.121L78.81,302.654
		l28.157,17.599l22.342-35.809l9.947,6.121l-22.342,35.809l29.994,18.822L179.349,293.319z"/>
	<g>
		<path fill="#181716" d="M241.326,187.118c4.897,11.171,0.153,24.179-11.477,30.3c17.904-0.919,24.638,23.566,46.674,41.776
			l-14.232,6.274c-20.353-19.129-27.851-45.909-48.204-37.033l-22.648,9.947l21.271,48.815l-12.089,5.356l-41.471-95.184
			l43.766-19.129C220.208,170.744,235.817,174.569,241.326,187.118z M229.39,194.31c-4.744-11.019-13.926-8.876-24.179-4.438
			l-29.229,13.008l10.865,24.943l29.381-12.854C229.083,209.307,233.215,202.88,229.39,194.31z"/>
	</g>
	<g>
		<path fill="#181716" d="M389.457,198.289c-2.602,11.937-14.078,19.588-27.086,17.904c14.998,9.794,6.121,33.514,13.314,61.364
			l-15.15-3.366c-5.203-27.393,4.438-53.561-17.293-58.304l-24.178-5.203l-11.324,52.029l-13.007-2.754l22.189-101.458l46.674,10.1
			C382.111,172.733,392.365,184.975,389.457,198.289z M375.531,197.218c2.602-11.63-6.121-15.303-16.986-17.751l-31.217-6.887
			l-5.814,26.627l31.217,6.887C366.656,209.001,373.542,206.399,375.531,197.218z"/>
	</g>
	<g>
		<path fill="#181716" d="M502.851,294.849c-9.182,8.111-22.955,7.651-32.441-1.53c6.426,16.833-14.844,30.606-25.402,57.386
			l-10.254-11.63c11.936-25.25,35.043-40.705,20.354-57.232l-16.375-18.517l-39.787,35.35l-8.723-9.947l77.586-68.862l31.676,35.809
			C512.033,269.906,513.105,285.821,502.851,294.849z M492.292,285.821c8.875-7.957,4.131-15.915-3.213-24.331l-21.271-24.026
			l-20.354,18.058l21.271,24.025C478.06,290.106,485.253,292.095,492.292,285.821z"/>
	</g>
	<g>
		<g>
			<path fill="#181716" d="M538.201,438.085c-12.09,1.377-23.107-6.887-25.557-19.895c-4.438,17.446-29.688,16.527-53.713,32.29
				l-1.836-15.456c24.18-13.773,52.029-13.161,49.582-35.197l-2.756-24.638l-52.947,6.121l-1.529-13.16l103.141-11.783l5.355,47.438
				C560.083,422.934,551.667,436.554,538.201,438.085z M534.833,424.618c11.938-1.377,12.549-10.712,11.324-21.73l-3.672-31.83
				l-26.934,3.061l3.674,31.83C520.603,420.027,525.5,425.689,534.833,424.618z"/>
		</g>
	</g>
	<g>
		<path fill="#181716" d="M480.357,577.034c-10.561-6.273-14.232-19.435-8.418-31.218c-14.078,11.171-33.666-4.743-62.436-6.58
			l7.957-13.313c27.699,3.673,49.43,20.965,60.754,1.837l12.547-21.271l-45.754-27.086l6.732-11.324l89.369,52.795l-24.332,41.165
			C506.982,578.105,492.14,584.074,480.357,577.034z M485.712,564.333c10.252,6.121,16.527-1.071,22.189-10.559l16.221-27.545
			l-23.414-13.772l-16.221,27.545C477.296,551.937,477.755,559.436,485.712,564.333z"/>
	</g>
	<g>
		<g>
			<path fill="#181716" d="M353.648,654.467c-4.896-11.171-0.152-24.179,11.479-30.3c-17.904,0.918-24.639-23.566-46.674-41.776
				l14.23-6.274c20.354,19.129,27.852,45.908,48.205,37.033l22.648-9.947l-21.271-48.815l12.09-5.356l41.623,95.03l-43.766,19.129
				C374.613,670.994,359.158,667.014,353.648,654.467z M365.585,647.274c4.742,11.019,13.926,8.876,24.178,4.285l29.381-12.854
				l-10.865-24.943l-29.381,12.854C365.89,632.43,361.759,638.705,365.585,647.274z"/>
		</g>
		<g>
			<path fill="#181716" d="M236.735,580.707l1.836-11.477l63.661,10.559l-16.987,102.376l-13.007-2.143l14.997-90.898
				L236.735,580.707z"/>
		</g>
	</g>
	<g>
		<path fill="#181716" d="M221.126,556.681l-52.795,89.368l-11.477-6.732l52.795-89.369L221.126,556.681z"/>
	</g>
	<path fill="#181716" d="M153.793,486.9l-38.563,91.971l69.168-47.898l7.192,10.253l-85.237,59.069l-8.263-11.783l38.869-92.889
		L67.18,544.134l-7.192-10.253l85.39-59.223L153.793,486.9z"/>
</g>
<g id="super">
	<g>
		<path fill="none" stroke="#00F1F4" stroke-width="3" stroke-miterlimit="10" d="M484.488,345.196
			c7.652-33.054,1.529-37.645-7.191-37.645h-25.098l-17.445,74.983h25.098C471.021,382.535,478.519,371.057,484.488,345.196z
			 M496.578,339.993c-7.805,33.819-21.73,61.212-32.596,63.966c9.029,17.599-9.947,86.768-16.221,157.467h-12.09
			c7.805-70.699,28.463-146.907,11.172-146.907h-19.436l-34.125,146.907h-10.406l66.414-286.316h37.492
			C501.626,275.262,505.3,302.348,496.578,339.993z M374.001,529.29l-7.498,32.136h-58.305l66.414-286.316h56.314l-7.498,32.136
			h-45.908l-21.271,91.511h33.055l-7.498,32.137h-32.902l-22.801,98.244h47.898V529.29z M336.203,345.962
			c7.346-31.371,3.061-38.41-6.885-38.41H307.74l-17.904,76.973h21.578C321.359,384.371,330.847,369.527,336.203,345.962z
			 M346.763,347.492c-8.723,37.339-25.404,69.168-38.717,69.168H282.49l-33.666,144.918h-10.406l66.414-286.315h33.514
			C354.414,275.262,359.158,293.778,346.763,347.492z M241.632,476.342c-13.313,57.386-34.125,94.266-53.254,94.266
			c-19.282,0-22.648-36.115-9.182-94.266l46.673-201.079h10.406l-46.674,201.079c-10.1,43.154-5.662,61.977,6.274,61.977
			c13.007,0,26.474-23.566,35.349-61.977l46.674-201.079h10.406L241.632,476.342z M121.198,538.318
			c17.599,0,28.004-31.371,32.748-51.877c5.203-22.342,3.826-36.88-4.131-46.367l-15.762-18.823
			c-8.417-9.793-8.569-31.829-0.459-66.72c12.089-51.877,30.605-84.013,48.357-84.013c18.669,0,18.976,23.107,15.609,60.905
			l-13.313,24.331c3.367-33.359,3.214-54.631-9.794-54.631c-10.865,0-22.648,19.281-29.381,48.357
			c-5.05,22.036-4.132,33.054,3.52,42.389l15.915,19.281c8.57,10.56,8.723,36.574,0.612,71.924
			c-8.111,34.891-26.627,87.532-52.03,87.532c-12.089,0-24.025-9.028-15.15-72.994l12.242-20.813
			C105.896,510.161,104.519,538.318,121.198,538.318z"/>
	</g>
</g>
</svg>
