<?xml version="1.0" encoding="utf-8"?>
<!-- Generator: Adobe Illustrator 22.0.1, SVG Export Plug-In . SVG Version: 6.00 Build 0)  -->
<svg version="1.1" id="Ebene_1" xmlns="http://www.w3.org/2000/svg" xmlns:xlink="http://www.w3.org/1999/xlink" x="0px" y="0px"
	 viewBox="0 0 580.9 580.9" enable-background="new 0 0 580.9 580.9" xml:space="preserve">
<g id="background">
	<path fill="#FFFFFF" d="M290.4,580.9c160.4,0,290.4-130.1,290.4-290.4S450.8,0,290.4,0C130.1,0,0,130.2,0,290.4
		C0,450.8,130.1,580.9,290.4,580.9"/>
</g>
<g id="name">
	<polygon fill="#181716" points="131.8,284.3 31.5,310.5 34.7,322.6 116.7,301.2 48.4,375 52,388.9 152.3,362.7 149.1,350.6 
		67.8,371.8 135.6,298.7 	"/>
	<g>
		<path fill="#181716" d="M119.6,473.3c-16.4-15.3-15.4-37.7,2.4-56.8c17.1-18.3,39.6-20.6,55.6-5.7c16.1,15,15.3,37.6-2.1,56.3
			C158.1,485.8,135.6,488.2,119.6,473.3 M112.5,407.3c-22.8,24.5-23.1,53.8-0.9,74.6c21.8,20.2,51.4,18,73.5-5.8
			c22.1-23.7,22.2-53.5,0.4-73.9C162.9,381.1,132.8,385.4,112.5,407.3 M232.2,437.4l-19.6,89.9l-33.2-7.2l-2.5,11.4l79.5,17.3
			l2.5-11.4l-33.3-7.3l19.6-89.9L232.2,437.4z M300.9,523.5l-9.7,9.3c12.6,15.2,25.1,19.9,48.1,14.3c38.7-9.4,40.3-44.7,35.4-64.8
			c-7.5-30.9-31.7-47.9-58.9-41.2c-13.7,3.3-23.3,11.1-30.5,24.4l-5.3-12.9l-9.3,2.3l13.1,53.7l42-10.2l-2.8-11.3l-30.7,7.5
			l-0.7-2.8c-4.4-18,5.7-34.2,24.1-38.7c28.9-7,42.3,16.9,46.3,33.1c6,24.7-4.1,44.5-25.4,49.7C321.3,539.4,308.2,535.4,300.9,523.5
			 M368.7,432.2l74.2,72.4l8.7-9L391,436.5l98.5,20.4l10-10.3l-74.2-72.4l-8.7,9l60.1,58.7l-97.6-20.4L368.7,432.2z M432.3,353.6
			l96.9,36.8l4.7-12.5L437,341.1L432.3,353.6z M456.9,271.1l92-1.2l-0.2-13.2L445.1,258l0.8,64.4l11.7-0.1L456.9,271.1z
			 M429.4,196.6l80.3-44.9l-6.5-11.5l-90.5,50.6l31.4,56.2l10.2-5.7L429.4,196.6z M358.2,135.7l18.1-30.6l36.4,21.5l5.9-10L382.2,95
			l16.9-28.5l50.4,29.8l5.9-10l-61.8-36.5L340.9,139l64,37.8l5.9-10L358.2,135.7z M343.6,24.3l-14,1.2l-20.8,89.9L290.7,75
			l11.8-47.2l-14,1.2l-6.2,28.4l-11.5-26.8L256.5,32l20.8,45l-9.8,42.1l-38.1-84.7l-14.2,1.3l46.3,100l14.2-1.3l9.8-40.8l17.3,38.4
			l14.2-1.3L343.6,24.3z M189.4,43.7l-11.7,7.8l24.9,88.9l-35.3-26.7l-12.3-47l-11.7,7.8l8.2,27.9l-23-18l-11.8,7.9l39.9,29.4
			l11.6,41.7l-74.1-56l-11.8,7.9l88.6,65.4l11.8-7.9l-11-40.5l33.6,25.4l11.8-7.9L189.4,43.7z M57.6,143.7l-3.3,13.7l78.4,48.7
			l-44,4.2l-40.8-26.4l-3.3,13.7l24.9,15l-29.1,2.3L37,228.7l49.3-5.2l36.7,22.9l-92.4,8.8L27,268.9l109.5-11.6l3.4-13.8L104.4,221
			l41.9-4l3.4-13.8L57.6,143.7z"/>
	</g>
</g>
<g id="super">
	<g>
		<path fill="none" stroke="#00F1F4" stroke-width="3" stroke-miterlimit="10" d="M476.8,215.2c7.7-33.1,1.5-37.6-7.2-37.6h-25.1
			l-17.4,75h25.1C463.4,252.5,470.9,241,476.8,215.2z M488.9,210c-7.8,33.8-21.7,61.2-32.6,64c9,17.6-9.9,86.8-16.2,157.5H428
			c7.8-70.7,28.5-146.9,11.2-146.9h-19.4l-34.1,146.9h-10.4l66.4-286.3h37.5C494,145.2,497.6,172.3,488.9,210z M366.4,399.3
			l-7.5,32.1h-58.3L367,145.1h56.3l-7.5,32.1h-45.9l-21.3,91.5h33.1l-7.5,32.1h-32.9L318.5,399h47.9L366.4,399.3L366.4,399.3z
			 M328.6,215.9c7.3-31.4,3.1-38.4-6.9-38.4h-21.6l-17.9,77h21.6C313.7,254.3,323.2,239.5,328.6,215.9z M339.1,217.5
			c-8.7,37.3-25.4,69.2-38.7,69.2h-25.6l-33.7,144.9h-10.4l66.4-286.3h33.5C346.8,145.2,351.5,163.7,339.1,217.5z M234,346.3
			c-13.3,57.4-34.1,94.3-53.3,94.3c-19.3,0-22.6-36.1-9.2-94.3l46.7-201.1h10.4L182,346.3c-10.1,43.2-5.7,62,6.3,62
			c13,0,26.5-23.6,35.3-62l46.7-201.1h10.4L234,346.3z M113.5,408.3c17.6,0,28-31.4,32.7-51.9c5.2-22.3,3.8-36.9-4.1-46.4
			l-15.8-18.8c-8.4-9.8-8.6-31.8-0.5-66.7c12.1-51.9,30.6-84,48.4-84c18.7,0,19,23.1,15.6,60.9l-13.3,24.3
			c3.4-33.4,3.2-54.6-9.8-54.6c-10.9,0-22.6,19.3-29.4,48.4c-5.1,22-4.1,33.1,3.5,42.4l15.9,19.3c8.6,10.6,8.7,36.6,0.6,71.9
			c-8.1,34.9-26.6,87.5-52,87.5c-12.1,0-24-9-15.2-73l12.2-20.8C98.2,380.1,96.9,408.3,113.5,408.3z"/>
	</g>
</g>
</svg>
