<?xml version="1.0" encoding="utf-8"?>
<!-- Generator: Adobe Illustrator 25.4.0, SVG Export Plug-In . SVG Version: 6.00 Build 0)  -->
<svg version="1.1" id="vision" xmlns="http://www.w3.org/2000/svg" xmlns:xlink="http://www.w3.org/1999/xlink" x="0px" y="0px"
	 viewBox="0 0 351.1 351.4" enable-background="new 0 0 351.1 351.4" xml:space="preserve">
<g id="name">
	<path fill="#FE4E00" d="M181.2,49.6c-1-1.1-1.7-2.3-2.2-3.7l-7.5-18.4c-1.7-4.2-3.4-8-5-11.3c-1.2-2.6-2.6-5.1-4.2-7.6
		c-0.8-1.1-1.6-2.1-2.4-3.1c-0.4-0.5-0.8-0.9-1.1-1.4c-0.2-0.4-0.3-0.9-0.2-1.4c0-0.9,0.5-1.7,1.2-2.1c0.8-0.5,1.9-0.8,2.8-0.6
		c0.5,0,1.1,0.1,1.6,0.2l1.3,0.2c1.3,0.3,2.7,0.5,4,0.6c0.9,0.1,2.4,0.1,4.5,0s3.4,0,4.3,0c1,0,2,0.4,2.8,1c0.6,0.6,1,1.4,0.9,2.3
		c0,0.5-0.2,1-0.5,1.4c-0.5,0.5-0.9,1-1.5,1.4c-1,0.7-1.8,1.6-2.6,2.6c-0.3,0.5-0.5,1.1-0.6,1.7c0,1.7,0.3,3.4,0.9,4.9
		c0.7,2.1,1.9,5.1,3.6,9l4.5,10.8c0.2,0.4,0.4,0.7,0.5,0.7s0.4-0.2,0.6-0.7l4.8-9.2c1.9-3.7,3.3-6.6,4.3-8.7
		c0.8-1.6,1.3-3.4,1.5-5.1c0.1-0.8-0.1-1.5-0.5-2.2c-0.5-0.8-1.1-1.6-1.8-2.3c-0.6-0.6-1-0.9-1-1c-0.5-0.4-0.9-0.9-1.3-1.3
		c-0.3-0.4-0.4-0.8-0.4-1.3c0-0.9,0.5-1.7,1.2-2.1c0.9-0.5,1.9-0.8,2.9-0.6c0.6,0,1.1,0.1,1.7,0.2l1.5,0.2c1.4,0.3,2.9,0.5,4.4,0.6
		c1.2,0.1,2.4,0.1,3.5,0c1.1-0.1,2.3-0.1,3.4,0c1,0,2,0.4,2.7,1c0.7,0.6,1,1.4,0.9,2.3c0,0.5-0.2,1-0.5,1.3c-0.5,0.4-1,0.8-1.5,1.2
		c-1.1,0.8-2.2,1.7-3.1,2.7c-2.7,2.8-6.4,8.7-11.1,17.5l-9.4,16.9c-0.7,1.3-1.6,2.5-2.7,3.6c-0.6,0.6-1.5,1-2.4,0.9
		C183,50.6,182,50.3,181.2,49.6z"/>
	<path fill="#FE4E00" d="M204.6,51c-0.5-0.6-0.6-1.5-0.4-2.2c0.1-0.6,0.5-1.1,0.9-1.5c0.6-0.4,1.2-0.7,1.8-0.8
		c0.7-0.2,1.4-0.5,1.9-0.7c0.6-0.3,1.2-0.6,1.8-1c1.2-1,2.2-2.4,2.8-3.9c1.1-2.3,2-4.7,2.7-7.1l1.9-5.9c0.8-2.4,1.4-4.8,1.9-7.3
		c0.4-1.6,0.3-3.2-0.1-4.8c-0.5-1.2-1-2.4-1.6-3.6c-0.3-0.5-0.5-1.1-0.8-1.7c-0.1-0.5-0.1-1,0.1-1.4c0.2-0.8,0.9-1.5,1.7-1.8
		c1-0.3,2-0.3,2.9,0.1c0.5,0.2,1,0.3,1.5,0.5l1.2,0.5c1.2,0.6,2.4,1.1,3.7,1.5c1.1,0.3,2.3,0.6,3.4,0.8c1.1,0.2,2.2,0.5,3.3,0.8
		c1,0.3,1.8,0.8,2.4,1.6c0.5,0.7,0.6,1.6,0.3,2.4c-0.1,0.5-0.4,0.9-0.7,1.2c-0.5,0.3-1,0.6-1.6,0.9c-1.2,0.6-2.3,1.2-3.4,2
		c-1.2,1-2.2,2.4-2.8,3.9c-1.1,2.3-2,4.7-2.7,7.1l-1.9,5.8c-0.8,2.4-1.4,4.9-1.9,7.3c-0.4,1.6-0.3,3.2,0.1,4.8
		c0.2,0.6,0.5,1.3,0.8,1.8c0.3,0.5,0.7,1.1,1.1,1.7c0.4,0.5,0.8,1.1,1,1.7c0.2,0.6,0.1,1.2-0.1,1.8c-0.2,0.8-0.8,1.4-1.6,1.6
		c-1,0.3-2,0.2-2.9-0.1c-0.8-0.3-1.9-0.7-3.4-1.3s-2.8-1.2-3.6-1.4c-1.1-0.3-2.2-0.6-3.3-0.8c-1.3-0.3-2.7-0.6-4-1
		C206.1,52.3,205.2,51.8,204.6,51z"/>
	<path fill="#FE4E00" d="M234.5,59c-0.6-0.9-1-1.8-1.3-2.8c-0.2-0.9-0.1-1.9,0.2-2.8c0.5-1.4,1.2-2.8,2.1-4c1.2-1.9,2.8-3.5,4.7-4.7
		c1.6-0.9,2.9-1,3.9-0.3c0.5,0.3,0.9,0.8,1.1,1.4c0.2,0.6,0.2,1.3,0.1,1.9c-0.1,0.7-0.3,2.1-0.6,4.1c-0.4,2.7,0,5.5,1.2,8.1
		c1.4,2.9,3.7,5.4,6.4,7.1c1.7,1.3,3.6,2.2,5.7,2.8c1.4,0.4,2.9,0.4,4.3,0.1c1.1-0.3,2.1-1,2.7-1.9c0.6-0.8,0.8-1.8,0.5-2.8
		c-0.4-1.4-1.2-2.6-2.2-3.7c-1.8-2-3.7-3.8-5.7-5.5c-3.1-2.6-5.9-5.6-8.4-8.8c-1.7-2.1-2.7-4.6-3-7.3c-0.1-2.6,0.7-5.1,2.3-7.1
		c1.7-2.5,4.1-4.3,7-5.1c3.1-0.9,6.4-0.9,9.5-0.2c3.5,0.8,6.8,2.2,9.7,4.3c1.7,1.1,3.3,2.4,4.7,3.8c1.2,1.3,2.3,2.6,3.2,4
		c0.6,0.9,1.2,1.7,1.8,2.4c0.6,0.7,1.2,1.3,2,1.9c0.7,0.4,1.1,1.1,1.3,1.9c0,0.8-0.2,1.5-0.7,2.1c-0.7,0.9-1.4,1.8-2.2,2.6l-1.6,1.9
		c-0.9,1.2-2,2.2-3.3,3c-0.9,0.5-1.9,0.4-2.7-0.2c-0.5-0.3-0.8-0.7-1-1.2c-0.1-0.7-0.1-1.3,0-2c0.1-0.8,0.3-1.8,0.5-2.9
		c0.5-2.3,0.4-4.8-0.5-7c-0.9-2.1-2.7-4-5.4-5.9c-1.5-1.1-3.2-1.9-5-2.3c-1.5-0.4-3-0.4-4.5-0.1c-1.2,0.2-2.3,0.9-3,1.9
		c-0.5,0.8-0.7,1.9-0.3,2.8c0.7,1.5,1.6,2.9,2.8,4c2.1,2.2,4.4,4.3,6.7,6.3c4.4,3.9,7.2,7.7,8.5,11.4c1.2,3.6,0.6,7.7-1.7,10.8
		c-1.8,2.7-4.6,4.6-7.7,5.3c-3.3,0.7-6.8,0.6-10.1-0.4c-3.6-1.1-7-2.7-10.1-4.8C241.7,68,237.6,63.9,234.5,59z"/>
	<path fill="#FE4E00" d="M267.6,86.6c-0.1-0.8,0.3-1.6,0.9-2.1c0.4-0.4,1-0.7,1.6-0.8c0.7,0,1.3,0.1,2,0.2c0.8,0.2,1.4,0.3,2,0.4
		c0.7,0.1,1.3,0.1,2,0.1c1.6-0.2,3.1-0.8,4.5-1.7c2.1-1.4,4.2-2.9,6.1-4.5l4.7-3.9c2-1.6,3.8-3.3,5.5-5.2c1.2-1.1,2-2.5,2.5-4.1
		c0.3-1.3,0.4-2.6,0.5-3.9c0-0.6,0.1-1.2,0.3-1.8c0.2-0.5,0.4-0.9,0.8-1.1c0.6-0.6,1.5-0.8,2.4-0.6c1,0.3,1.8,0.8,2.4,1.6
		c0.4,0.4,0.7,0.8,1,1.2s0.5,0.8,0.8,1.1c0.7,1.2,1.5,2.3,2.3,3.3c0.8,0.9,1.6,1.7,2.5,2.6c0.8,0.8,1.6,1.6,2.3,2.5
		c0.7,0.7,1.1,1.7,1.2,2.7c0,0.9-0.3,1.7-1,2.2c-0.3,0.3-0.8,0.5-1.3,0.6c-0.6,0-1.2,0-1.8-0.1c-1.3-0.1-2.6-0.2-3.9-0.2
		c-1.6,0.2-3.1,0.8-4.5,1.7c-2.1,1.4-4.2,2.9-6.1,4.5l-4.7,3.9c-2,1.6-3.9,3.3-5.6,5.1c-1.2,1.1-2,2.5-2.5,4.1
		c-0.2,0.7-0.3,1.3-0.3,2c0,0.6,0,1.3,0,2c0.1,0.7,0,1.3-0.1,2c-0.2,0.6-0.6,1.1-1,1.4c-0.6,0.5-1.4,0.7-2.2,0.5
		c-0.9-0.3-1.8-0.9-2.4-1.7c-0.5-0.7-1.2-1.6-2.1-3s-1.7-2.5-2.3-3.2c-0.7-0.9-1.5-1.7-2.4-2.4c-1-1-2-2-2.9-3
		C268.1,88.4,267.7,87.5,267.6,86.6z"/>
	<path fill="#FE4E00" d="M290.9,114.6c0.4-4.3,1.9-8.5,4.5-12c2.6-3.6,6.1-6.4,10.2-8c4-1.7,8.4-2.2,12.6-1.5
		c4.3,0.7,8.4,2.5,11.8,5.3c3.5,2.8,6.3,6.5,8,10.8c1.8,4.2,2.5,8.7,2.1,13.2c-0.4,4.3-2,8.5-4.5,12c-5.2,7.2-14,10.8-22.8,9.5
		c-4.3-0.7-8.4-2.5-11.8-5.3c-3.5-2.8-6.3-6.6-8-10.8C291.1,123.7,290.4,119.1,290.9,114.6z M305.9,109.4c-2.5,2.4-4.3,5.3-5.4,8.5
		c-1,2.9-0.9,6.1,0.3,9c1.6,4.2,5.5,7,10,7.3c2.3,0.1,4.6-0.3,6.8-1.2c3.3-1.4,6.2-3.4,8.8-5.9c2.5-2.3,4.3-5.3,5.3-8.5
		c1-2.9,0.9-6.1-0.4-9c-1.6-4.1-5.5-7-9.9-7.3c-2.3-0.2-4.6,0.2-6.8,1.2C311.4,104.9,308.4,106.9,305.9,109.4L305.9,109.4z"/>
	<path fill="#FE4E00" d="M302.3,194.5l6.3-5.1c3.7-3.1,8.2-6.7,13.4-11l16.3-13.4c0.3-0.2,0.5-0.5,0.5-0.6s-0.2-0.3-0.8-0.4
		c-2.6-0.4-5.2-0.6-7.9-0.6l-6.1-0.1c-2.5-0.1-5.1,0-7.6,0.3c-1.6,0.1-3.2,0.6-4.6,1.4c-0.6,0.4-1.1,0.8-1.5,1.3
		c-0.4,0.4-0.8,1-1.3,1.6c-0.4,0.5-0.9,1-1.4,1.4c-0.5,0.3-1.1,0.5-1.7,0.4c-0.8,0-1.6-0.4-2-1.1c-0.5-0.8-0.8-1.8-0.7-2.8
		c0-1,0.1-2.1,0.3-3.1c0.2-1,0.3-1.9,0.3-2.9c0-0.8-0.1-1.6-0.2-2.5c-0.2-1.2-0.2-2.4-0.2-3.5c0-1,0.2-2,0.8-2.8c0.5-0.6,1.2-1,2-1
		c0.6,0,1.2,0.1,1.7,0.5c0.5,0.4,1,0.9,1.3,1.5c0.5,0.6,0.9,1.2,1.2,1.6c0.4,0.5,0.9,1,1.5,1.4c1.4,0.9,2.9,1.4,4.5,1.6
		c2.5,0.4,5,0.6,7.5,0.6l6.1,0.1c2.5,0.1,5.1,0,7.6-0.3c1.6-0.1,3.2-0.6,4.6-1.4c1-0.8,2-1.7,2.9-2.6c0.4-0.4,0.9-0.8,1.4-1.2
		c0.4-0.2,0.9-0.4,1.4-0.3c0.9,0,1.7,0.4,2.2,1.1c0.6,0.8,0.8,1.8,0.8,2.8c0,0.8-0.1,1.6-0.3,2.4c-0.2,1-0.3,2-0.3,3
		c0,0.9,0.1,1.7,0.2,2.6c0.1,0.9,0.2,1.8,0.2,2.8c0,0.8-0.2,1.7-0.7,2.4c-0.5,0.7-1.1,1.3-1.8,1.9l-29.2,23
		c-0.2,0.1-0.3,0.3-0.3,0.5c0,0.2,0.2,0.3,0.7,0.3l10.2,0.2c2.5,0.1,5.1,0,7.6-0.3c1.6-0.1,3.2-0.6,4.6-1.4c1-0.8,2-1.7,2.9-2.6
		c0.4-0.4,0.9-0.8,1.4-1.2c0.4-0.2,0.9-0.4,1.4-0.3c0.9,0,1.7,0.4,2.2,1.1c0.6,0.8,0.8,1.8,0.8,2.8c0,0.8-0.1,1.6-0.3,2.4
		c-0.2,1-0.3,2-0.3,2.9c0,0.9,0.1,1.7,0.2,2.6c0.1,0.9,0.2,1.8,0.2,2.8c0,1-0.3,2-0.9,2.8c-0.5,0.7-1.4,1-2.2,1
		c-0.5,0-1-0.1-1.4-0.4c-0.5-0.4-0.9-0.8-1.3-1.2c-0.9-1-1.9-1.9-2.9-2.7c-1.4-0.9-2.9-1.4-4.5-1.6c-2.5-0.4-5-0.5-7.5-0.6
		l-25.1-0.3c-1.1,0-2.3-0.1-3.4-0.5c-0.7-0.3-1.1-1-1-1.8C300.2,196.7,300.9,195.7,302.3,194.5z"/>
	<path fill="#FE4E00" d="M282.2,245.6c1.4-0.3,2.9-0.3,4.3,0l19.7,2.8c4.5,0.6,8.6,1.1,12.3,1.3c2.9,0.3,5.8,0.3,8.6,0.2
		c1.3-0.1,2.6-0.3,3.9-0.6c0.6-0.1,1.2-0.2,1.8-0.3c0.5,0,0.9,0.2,1.3,0.5c0.7,0.5,1.2,1.2,1.2,2.1c0,1-0.3,2-0.9,2.8
		c-0.3,0.4-0.6,0.9-0.9,1.3c-0.3,0.4-0.6,0.7-0.9,1c-0.9,1-1.8,2.1-2.5,3.2c-0.5,0.8-1.3,2.1-2.3,3.9s-1.7,3-2.2,3.7
		c-0.5,0.9-1.3,1.5-2.2,1.9c-0.8,0.3-1.7,0.1-2.4-0.4c-0.4-0.3-0.8-0.7-0.9-1.2c-0.2-0.7-0.4-1.3-0.5-2c-0.2-1.2-0.5-2.4-0.9-3.5
		c-0.3-0.6-0.7-1-1.2-1.4c-1.5-0.8-3.1-1.4-4.7-1.7c-2.1-0.4-5.3-0.9-9.6-1.4l-11.6-1.5c-0.5-0.1-0.7,0-0.8,0.1
		c-0.1,0.1,0,0.4,0.3,0.9l5.5,8.8c2.2,3.5,4,6.2,5.4,8c1,1.5,2.3,2.8,3.7,3.9c0.6,0.5,1.4,0.7,2.1,0.7c1,0,1.9-0.2,2.9-0.5
		c0.8-0.2,1.3-0.4,1.4-0.4c0.6-0.2,1.2-0.3,1.8-0.4c0.5,0,0.9,0.1,1.3,0.4c0.7,0.5,1.2,1.2,1.2,2.1c0,1-0.3,2-0.9,2.8
		c-0.3,0.5-0.7,0.9-1,1.4l-0.9,1.2c-1,1.1-1.9,2.3-2.7,3.5c-0.6,1-1.2,2-1.8,3.1c-0.5,1-1.1,2-1.7,3c-0.5,0.9-1.3,1.5-2.2,1.9
		c-0.8,0.3-1.7,0.1-2.4-0.4c-0.4-0.3-0.7-0.7-0.9-1.1c-0.2-0.6-0.3-1.3-0.3-2c-0.2-1.4-0.4-2.7-0.8-4.1c-1.1-3.7-4.3-9.9-9.6-18.4
		l-9.9-16.6c-0.8-1.3-1.4-2.7-1.8-4.1c-0.2-0.9-0.1-1.8,0.4-2.5C280.5,246.6,281.3,246,282.2,245.6z"/>
	<path fill="#FE4E00" d="M267.7,266.8c0.8-0.1,1.6,0.2,2.1,0.8c0.4,0.4,0.7,1,0.8,1.6c0,0.7,0,1.3-0.2,2c-0.2,0.8-0.3,1.4-0.4,2
		c-0.1,0.7-0.1,1.3,0,2c0.3,1.6,0.9,3.1,1.9,4.4c1.4,2.1,3,4.1,4.6,6l4,4.6c1.6,1.9,3.4,3.7,5.3,5.4c1.2,1.1,2.6,2,4.1,2.4
		c1.3,0.2,2.6,0.4,3.9,0.4c0.6,0,1.2,0.1,1.8,0.2c0.5,0.1,0.9,0.4,1.2,0.8c0.6,0.6,0.8,1.5,0.7,2.3c-0.2,1-0.8,1.8-1.6,2.5
		c-0.4,0.4-0.8,0.7-1.2,1l-1.1,0.8c-1.1,0.7-2.2,1.5-3.2,2.4c-0.9,0.8-1.7,1.6-2.5,2.5c-1,1.1-1.8,1.9-2.4,2.4
		c-0.7,0.7-1.7,1.1-2.6,1.2c-0.9,0.1-1.7-0.3-2.2-1c-0.3-0.3-0.6-0.8-0.6-1.2c0-0.6,0-1.2,0-1.8c0.1-1.3,0.1-2.6,0.1-3.9
		c-0.3-1.6-0.9-3.1-1.8-4.4c-1.4-2.1-3-4.1-4.6-6l-4-4.6c-1.6-1.9-3.4-3.7-5.3-5.4c-1.2-1.1-2.6-2-4.1-2.4c-0.7-0.2-1.3-0.2-2-0.2
		c-0.6,0-1.3,0-2,0.1c-0.7,0.1-1.3,0-2-0.1c-0.6-0.2-1.1-0.5-1.5-1c-0.5-0.6-0.8-1.4-0.6-2.2c0.3-1,0.8-1.8,1.6-2.4
		c0.6-0.5,1.6-1.3,2.9-2.2c1.3-0.9,2.4-1.8,3.1-2.4c0.8-0.8,1.6-1.6,2.4-2.4c0.9-1,1.9-2,3-2.9C265.9,267.4,266.8,267,267.7,266.8z"
		/>
	<path fill="#FE4E00" d="M245.4,288.4c1-0.1,2.1,0,3.1,0.3c0.9,0.3,1.7,0.8,2.3,1.5c1,1.2,1.8,2.5,2.3,3.9c1,2,1.6,4.2,1.6,6.4
		c-0.1,1.8-0.6,3-1.8,3.5c-0.6,0.3-1.2,0.4-1.8,0.2c-0.6-0.2-1.2-0.5-1.7-0.9c-0.6-0.5-1.6-1.3-3.2-2.6c-2.2-1.8-4.8-2.9-7.6-3.2
		c-3.2-0.3-6.5,0.4-9.4,1.8c-1.9,0.8-3.7,2-5.3,3.4c-1.1,1-1.9,2.3-2.3,3.7c-0.3,1.1-0.2,2.3,0.2,3.3c0.4,0.9,1.2,1.6,2.1,1.9
		c1.4,0.3,2.9,0.3,4.3,0c2.6-0.5,5.2-1.2,7.7-2c3.9-1.3,7.9-2.2,11.9-2.7c2.7-0.3,5.4,0.1,7.8,1.2c2.2,1.3,4,3.2,4.9,5.6
		c1.3,2.7,1.5,5.8,0.8,8.7c-0.9,3.1-2.5,6-4.8,8.3c-2.5,2.6-5.4,4.7-8.7,6.1c-1.8,0.9-3.7,1.5-5.7,2c-1.7,0.3-3.4,0.6-5.1,0.7
		c-1.1,0.1-2.1,0.1-3,0.3c-0.9,0.1-1.8,0.4-2.6,0.7c-0.7,0.3-1.5,0.4-2.3,0.2c-0.7-0.4-1.2-1-1.4-1.7c-0.4-1-0.8-2.1-1.1-3.2
		l-0.8-2.4c-0.5-1.4-0.9-2.9-0.9-4.4c0-1,0.7-1.8,1.6-2.2c0.5-0.3,1-0.3,1.6-0.2c0.6,0.2,1.2,0.6,1.7,1c0.6,0.5,1.4,1.2,2.2,1.9
		c1.7,1.7,3.9,2.8,6.3,3.2c2.2,0.3,4.8-0.2,7.9-1.6c1.7-0.7,3.2-1.8,4.6-3.1c1.1-1,1.9-2.3,2.4-3.8c0.4-1.2,0.4-2.4-0.1-3.5
		c-0.4-0.9-1.2-1.5-2.2-1.7c-1.6-0.2-3.3-0.1-4.9,0.3c-3,0.7-6,1.5-8.9,2.5c-5.6,1.8-10.3,2.2-14.2,1.4c-3.8-0.8-6.9-3.4-8.4-7
		c-1.4-2.9-1.6-6.3-0.6-9.4c1.1-3.2,3.1-6.1,5.6-8.4c2.8-2.5,5.9-4.6,9.3-6.2C233.9,289.8,239.6,288.5,245.4,288.4z"/>
	<path fill="#FE4E00" d="M204.7,302.5c0.7,0.4,1.2,1,1.3,1.8c0.1,0.6,0.1,1.2-0.2,1.8c-0.3,0.6-0.7,1.1-1.2,1.6
		c-0.6,0.5-1,1-1.4,1.5c-0.4,0.5-0.8,1.1-1.1,1.7c-0.6,1.5-0.9,3.1-0.8,4.7c0.1,2.5,0.3,5.1,0.7,7.5l0.9,6c0.3,2.5,0.9,5,1.6,7.4
		c0.4,1.6,1.1,3,2.2,4.3c1,0.9,2,1.7,3.1,2.5c0.5,0.3,1,0.7,1.4,1.2c0.3,0.4,0.5,0.8,0.5,1.3c0.2,0.8-0.1,1.7-0.7,2.3
		c-0.7,0.7-1.7,1.1-2.6,1.2c-0.5,0.1-1.1,0.1-1.6,0.2l-1.3,0.1c-1.3,0-2.7,0.1-4,0.3c-1.2,0.2-2.3,0.4-3.4,0.8
		c-1.1,0.3-2.2,0.6-3.3,0.8c-1,0.2-2,0.1-2.9-0.4c-0.7-0.4-1.3-1.2-1.4-2c-0.1-0.5-0.1-1,0.1-1.4c0.3-0.5,0.6-1,1-1.5
		c0.8-1,1.5-2.1,2.2-3.3c0.6-1.5,0.9-3.1,0.8-4.7c-0.1-2.5-0.3-5-0.7-7.5l-0.9-6c-0.3-2.5-0.9-5-1.6-7.4c-0.4-1.6-1.1-3-2.2-4.3
		c-0.5-0.5-1-0.9-1.6-1.3c-0.5-0.3-1.1-0.6-1.8-1c-0.6-0.3-1.1-0.7-1.6-1.1c-0.4-0.5-0.6-1-0.7-1.6c-0.1-0.8,0.1-1.6,0.7-2.1
		c0.7-0.7,1.7-1.1,2.7-1.2c0.8-0.1,2-0.2,3.7-0.3s3-0.2,3.9-0.3c1.1-0.2,2.2-0.4,3.3-0.8c1.3-0.4,2.7-0.6,4.1-0.9
		C202.8,302,203.8,302.1,204.7,302.5z"/>
	<path fill="#FE4E00" d="M169.8,307.8c3.5,2.6,6.3,6,8.1,10c1.8,4,2.4,8.5,1.7,12.8c-0.6,4.3-2.4,8.3-5.1,11.6
		c-2.8,3.4-6.4,6-10.6,7.5c-4.3,1.6-8.8,2.1-13.3,1.4c-4.5-0.6-8.8-2.3-12.5-5c-3.5-2.6-6.3-6-8.1-10c-1.8-4-2.4-8.5-1.7-12.8
		c0.6-4.3,2.4-8.3,5.1-11.6c2.8-3.4,6.4-5.9,10.6-7.5c4.3-1.6,8.8-2.1,13.3-1.4C161.8,303.5,166.1,305.2,169.8,307.8z M166.7,323.4
		c-0.8-3.3-2.4-6.4-4.6-9c-2-2.4-4.9-3.9-8-4.3c-4.4-0.7-8.8,1.2-11.3,4.9c-1.3,1.9-2.1,4.1-2.4,6.4c-0.5,3.5-0.3,7.1,0.6,10.5
		c0.8,3.3,2.4,6.4,4.6,8.9c2,2.4,4.9,3.9,7.9,4.3c4.4,0.7,8.8-1.2,11.3-4.8c1.3-1.9,2.1-4.1,2.4-6.4
		C167.8,330.4,167.6,326.8,166.7,323.4z"/>
	<path fill="#FE4E00" d="M96.9,278.5l1.4,7.9c0.8,4.7,1.8,10.4,3,17.1s2.4,13.6,3.8,20.8c0,0.4,0.2,0.7,0.3,0.8s0.4-0.1,0.7-0.5
		c1.6-2.1,3.1-4.3,4.4-6.6l3.1-5.3c1.3-2.2,2.4-4.4,3.4-6.8c0.7-1.5,1-3.1,1-4.7c-0.1-0.7-0.2-1.4-0.4-2c-0.2-0.5-0.4-1.2-0.8-1.9
		c-0.3-0.6-0.5-1.2-0.6-1.9c0-0.6,0.2-1.2,0.5-1.7c0.4-0.7,1.1-1.2,1.9-1.2c1-0.1,2,0.2,2.8,0.8c0.9,0.5,1.7,1.1,2.6,1.8
		c0.8,0.6,1.5,1.2,2.4,1.7c0.7,0.4,1.5,0.7,2.3,1c1.1,0.4,2.2,1,3.2,1.5c0.9,0.5,1.6,1.2,2.1,2.1c0.3,0.7,0.3,1.6-0.1,2.3
		c-0.3,0.5-0.7,1-1.2,1.3c-0.6,0.2-1.3,0.4-1.9,0.5c-0.8,0.1-1.4,0.2-2,0.3c-0.7,0.1-1.3,0.3-1.9,0.6c-1.4,0.8-2.7,1.8-3.6,3.2
		c-1.5,2-2.9,4.1-4.2,6.3l-3.1,5.3c-1.3,2.2-2.4,4.4-3.4,6.8c-0.7,1.5-1,3.1-1,4.7c0.2,1.3,0.5,2.6,0.8,3.8c0.2,0.6,0.3,1.2,0.4,1.8
		c0,0.5-0.1,1-0.4,1.4c-0.4,0.8-1.1,1.3-2,1.4c-1,0.1-2-0.2-2.8-0.7c-0.7-0.4-1.3-0.9-1.9-1.4c-0.8-0.6-1.6-1.2-2.4-1.7
		c-0.8-0.4-1.5-0.8-2.4-1.1c-0.9-0.3-1.7-0.7-2.5-1.1c-0.7-0.4-1.3-1-1.7-1.8c-0.4-0.8-0.6-1.6-0.8-2.5l-5.8-36.8
		c0-0.2-0.1-0.4-0.3-0.5c-0.2-0.1-0.4,0-0.6,0.4l-5.1,8.8c-1.3,2.2-2.4,4.4-3.4,6.8c-0.7,1.5-1.1,3.1-1,4.7c0.2,1.3,0.5,2.6,0.8,3.8
		c0.2,0.6,0.3,1.2,0.4,1.8c0,0.5-0.1,0.9-0.4,1.4c-0.4,0.8-1.1,1.3-2,1.4c-1,0.1-2-0.2-2.8-0.7c-0.7-0.4-1.4-0.9-2-1.4
		c-0.8-0.6-1.6-1.2-2.4-1.7c-0.8-0.4-1.5-0.8-2.4-1.1c-0.9-0.3-1.7-0.7-2.5-1.2c-0.9-0.5-1.6-1.2-2-2.1c-0.3-0.8-0.2-1.7,0.2-2.4
		c0.2-0.4,0.6-0.8,1-1c0.6-0.2,1.2-0.4,1.8-0.6c1.3-0.3,2.5-0.7,3.7-1.2c1.4-0.8,2.7-1.8,3.6-3.2c1.5-2,2.9-4.1,4.2-6.3L91,277.8
		c0.5-1,1.2-1.9,2-2.7c0.6-0.4,1.4-0.4,2,0C96,275.6,96.6,276.7,96.9,278.5z"/>
	<path fill="#FE4E00" d="M62,234.8c-0.4,1.4-1.2,2.7-2.1,3.8l-12.3,15.7c-2.8,3.6-5.2,6.9-7.3,10c-1.7,2.4-3.2,4.8-4.5,7.4
		c-0.6,1.2-1,2.4-1.4,3.6c-0.2,0.6-0.4,1.1-0.7,1.7c-0.3,0.4-0.6,0.7-1.1,0.9c-0.8,0.4-1.7,0.4-2.4,0c-0.9-0.5-1.6-1.2-2-2.2
		c-0.2-0.5-0.5-1-0.6-1.4l-0.4-1.2c-0.4-1.3-0.9-2.5-1.5-3.8c-0.4-0.8-1.1-2.2-2.2-4c-1-1.7-1.7-3-2.1-3.7c-0.5-0.9-0.7-1.9-0.5-2.9
		c0.2-0.8,0.7-1.6,1.5-1.9c0.5-0.2,1-0.3,1.5-0.2c0.7,0.1,1.3,0.3,1.9,0.6c1.1,0.5,2.3,0.8,3.5,1c0.6,0,1.2-0.1,1.8-0.4
		c1.5-0.8,2.8-1.9,3.8-3.3c1.4-1.6,3.4-4.2,6-7.6l7.1-9.3c0.3-0.4,0.4-0.6,0.3-0.8s-0.4-0.2-0.9-0.2L37,236.9
		c-4.1,0.2-7.4,0.4-9.7,0.6c-1.8,0.1-3.6,0.6-5.2,1.3c-0.7,0.3-1.3,0.8-1.6,1.5c-0.4,0.9-0.8,1.8-1,2.7c-0.2,0.8-0.3,1.3-0.4,1.4
		c-0.1,0.6-0.3,1.2-0.5,1.8c-0.2,0.4-0.6,0.7-1,0.9c-0.8,0.4-1.7,0.4-2.4,0c-0.9-0.5-1.6-1.2-2-2.2c-0.3-0.5-0.5-1-0.7-1.5l-0.4-1.3
		c-0.5-1.4-1-2.8-1.6-4.1c-0.5-1.1-1.1-2.1-1.8-3.1C7.9,234,7.4,233,6.8,232c-0.5-0.9-0.7-1.9-0.5-2.9c0.2-0.8,0.7-1.6,1.5-1.9
		c0.4-0.2,0.9-0.3,1.4-0.2c0.6,0.2,1.3,0.4,1.9,0.7c1.3,0.6,2.6,1,3.9,1.4c3.8,0.9,10.7,1.2,20.7,0.9l19.3-0.3c1.5,0,3,0.2,4.5,0.5
		c0.8,0.2,1.6,0.8,1.9,1.6C62,232.7,62.2,233.7,62,234.8z"/>
	<path fill="#FE4E00" d="M50.9,211.6c-0.3,0.7-1,1.3-1.8,1.4c-0.6,0.2-1.2,0.1-1.8-0.1c-0.6-0.3-1.1-0.7-1.6-1.2
		c-0.6-0.5-1.1-1-1.5-1.3c-0.5-0.4-1.1-0.7-1.8-1c-1.5-0.6-3.1-0.8-4.7-0.6c-2.5,0.2-5,0.5-7.5,1l-6,1.2c-2.5,0.5-4.9,1.1-7.3,1.9
		c-1.6,0.4-3,1.2-4.2,2.4c-0.8,1-1.6,2.1-2.3,3.1c-0.3,0.5-0.7,1-1.1,1.5c-0.3,0.3-0.8,0.5-1.3,0.6c-0.8,0.2-1.7,0-2.4-0.6
		c-0.7-0.7-1.2-1.6-1.3-2.6c-0.1-0.5-0.2-1.1-0.3-1.6c-0.1-0.5-0.1-1-0.1-1.3c-0.1-1.3-0.2-2.7-0.5-4c-0.2-1.2-0.5-2.3-0.9-3.4
		c-0.4-1.1-0.7-2.2-0.9-3.3c-0.2-1-0.1-2,0.3-2.9c0.4-0.8,1.1-1.3,2-1.4c0.5-0.1,0.9-0.1,1.4,0.1c0.5,0.3,1.1,0.6,1.6,0.9
		c1.1,0.7,2.2,1.4,3.4,2.1c1.5,0.6,3.1,0.8,4.7,0.6c2.5-0.2,5-0.5,7.5-1l6-1.2c2.5-0.5,4.9-1.1,7.3-1.9c1.6-0.4,3-1.2,4.2-2.4
		c0.5-0.5,0.9-1,1.2-1.6c0.3-0.5,0.6-1.1,0.9-1.8c0.3-0.6,0.6-1.2,1-1.7c0.4-0.4,1-0.7,1.6-0.8c0.8-0.2,1.6,0.1,2.2,0.6
		c0.7,0.7,1.1,1.6,1.3,2.6c0.2,0.8,0.3,2,0.5,3.6s0.3,3,0.5,3.9c0.2,1.1,0.5,2.2,0.9,3.3c0.5,1.5,0.8,2.9,1,4
		C51.3,209.6,51.2,210.7,50.9,211.6z"/>
	<path fill="#FE4E00" d="M43.6,182.6c-0.5,0.9-1.1,1.8-1.8,2.5c-0.7,0.6-1.5,1-2.5,1.2c-1.5,0.3-3,0.3-4.6,0.1
		c-2.2-0.1-4.4-0.7-6.4-1.8c-1.6-1-2.3-2-2.2-3.3c0-0.6,0.3-1.2,0.7-1.7c0.5-0.4,1-0.8,1.6-1c0.7-0.3,2-0.8,3.9-1.5
		c2.6-1,4.9-2.7,6.5-5c1.8-2.7,2.9-5.8,3.1-9.1c0.2-2.1,0.1-4.2-0.4-6.3c-0.3-1.4-1-2.7-2-3.8c-0.8-0.8-1.9-1.3-3-1.4
		c-1-0.1-2,0.2-2.7,0.9c-1,1.1-1.7,2.4-2.1,3.7c-0.9,2.5-1.5,5.1-2,7.7c-0.8,4-2,7.9-3.6,11.7c-1,2.5-2.7,4.6-4.9,6.2
		c-2.2,1.3-4.8,1.9-7.3,1.5c-3-0.2-5.8-1.5-8-3.7c-2.3-2.3-4-5.1-4.9-8.2c-1.5-5.4-1.5-11.1,0-16.5c0.5-1.6,1.2-3.2,1.9-4.8
		c0.5-0.9,0.9-1.8,1.2-2.7c0.3-0.9,0.5-1.7,0.7-2.6c0-0.8,0.4-1.6,1-2.1c0.7-0.4,1.4-0.5,2.2-0.4c1.1,0.1,2.3,0.3,3.4,0.6l2.5,0.5
		c1.5,0.2,2.9,0.7,4.2,1.4c0.8,0.5,1.3,1.5,1.1,2.4c0,0.5-0.2,1.1-0.6,1.5c-0.5,0.4-1.1,0.8-1.7,0.9c-0.8,0.3-1.7,0.6-2.8,0.9
		c-2.3,0.7-4.4,2-5.9,3.9c-1.4,1.8-2.2,4.3-2.5,7.7c-0.2,1.8,0,3.7,0.4,5.5c0.4,1.5,1.1,2.9,2.1,4c0.8,0.9,1.9,1.5,3.2,1.6
		c1,0.1,1.9-0.3,2.6-1.1c1-1.3,1.7-2.8,2.1-4.4c0.9-2.9,1.6-5.9,2.2-8.9c1.2-5.7,3.1-10.1,5.8-13c2.6-2.9,6.4-4.3,10.2-3.8
		c3.2,0.2,6.3,1.7,8.4,4.1c2.3,2.6,3.8,5.7,4.6,9c0.9,3.7,1.1,7.4,0.8,11.2C47.9,171.9,46.3,177.5,43.6,182.6z"/>
	<path fill="#FE4E00" d="M51.3,140.3c-0.7,0.5-1.5,0.6-2.2,0.2c-0.6-0.2-1.1-0.5-1.5-1c-0.3-0.6-0.6-1.2-0.8-1.8
		c-0.2-0.7-0.4-1.4-0.6-1.9c-0.2-0.6-0.5-1.2-0.9-1.8c-1-1.3-2.2-2.3-3.7-3c-2.2-1.2-4.5-2.2-6.9-3.1l-5.7-2.2
		c-2.3-0.9-4.8-1.7-7.2-2.3c-1.6-0.4-3.2-0.5-4.8-0.2c-1.2,0.4-2.5,0.9-3.6,1.4c-0.6,0.3-1.1,0.5-1.7,0.7c-0.5,0.1-1,0-1.4-0.2
		c-0.8-0.3-1.4-0.9-1.7-1.8c-0.3-1-0.2-2,0.2-2.9c0.2-0.5,0.4-1,0.6-1.4s0.4-0.8,0.6-1.2c0.7-1.2,1.3-2.4,1.7-3.7
		c0.4-1.1,0.7-2.2,1-3.4c0.3-1.1,0.6-2.2,1-3.3c0.3-1,0.9-1.8,1.8-2.4c0.7-0.5,1.6-0.5,2.4-0.2c0.5,0.1,0.9,0.4,1.1,0.8
		c0.3,0.5,0.6,1.1,0.8,1.6c0.5,1.2,1.1,2.4,1.8,3.5c1,1.3,2.2,2.3,3.7,3c2.2,1.2,4.5,2.2,6.9,3.1l5.7,2.2c2.3,0.9,4.8,1.7,7.2,2.3
		c1.6,0.4,3.2,0.5,4.8,0.2c0.7-0.2,1.3-0.4,1.9-0.7c0.5-0.3,1.1-0.6,1.8-1.1c0.6-0.4,1.1-0.7,1.8-0.9c0.6-0.1,1.2,0,1.8,0.2
		c0.8,0.3,1.3,0.9,1.5,1.7c0.2,1,0.1,2-0.3,2.9c-0.3,0.8-0.8,1.9-1.5,3.3s-1.3,2.7-1.6,3.5c-0.4,1.1-0.7,2.2-1,3.3
		c-0.4,1.4-0.8,2.7-1.3,4C52.7,138.8,52.1,139.7,51.3,140.3z"/>
	<path fill="#FE4E00" d="M63.2,108.3c-3.9,1.8-8.3,2.6-12.7,2.2c-8.8-0.9-16.4-6.6-19.7-14.9c-1.6-4.1-2.1-8.5-1.4-12.9
		c0.7-4.5,2.5-8.8,5.2-12.3c2.7-3.7,6.3-6.6,10.4-8.5c3.9-1.8,8.3-2.6,12.7-2.2c4.4,0.4,8.5,2.1,12,4.8c3.5,2.6,6.1,6.1,7.6,10.1
		c1.6,4.1,2.1,8.5,1.4,12.9c-0.7,4.5-2.5,8.7-5.2,12.3C70.9,103.5,67.4,106.4,63.2,108.3z M51.2,98c3.3,0.9,6.7,1.1,10.1,0.3
		c3.1-0.6,5.8-2.3,7.6-4.8c2.8-3.5,3.3-8.3,1.3-12.2c-1-2.1-2.6-3.9-4.4-5.3c-2.8-2.1-6-3.7-9.5-4.6c-3.3-0.9-6.7-1-10-0.3
		c-3,0.6-5.8,2.4-7.6,4.8c-1.4,1.7-2.2,3.8-2.4,6c-0.2,2.1,0.2,4.3,1.2,6.2c1,2.1,2.5,3.9,4.4,5.2C44.5,95.5,47.8,97.1,51.2,98z"/>
	<path fill="#FE4E00" d="M124.3,58.8l-7.6-2.7c-4.6-1.5-10-3.4-16.4-5.6l-20-6.8c-0.4-0.2-0.7-0.2-0.8-0.1s-0.1,0.4,0.1,0.8
		c1,2.4,2.2,4.8,3.6,7l3.1,5.2c1.3,2.2,2.7,4.3,4.3,6.3c0.9,1.3,2.2,2.4,3.6,3.1c0.6,0.3,1.3,0.5,1.9,0.6c0.6,0.1,1.2,0.2,2,0.2
		c0.7,0.1,1.3,0.2,1.9,0.4c0.5,0.3,1,0.7,1.3,1.3c0.4,0.7,0.5,1.5,0.1,2.3c-0.4,0.9-1.1,1.6-2,2.1c-0.9,0.5-1.8,1-2.8,1.4
		c-0.9,0.4-1.8,0.8-2.6,1.3c-0.7,0.4-1.4,0.9-2,1.5c-0.9,0.7-1.9,1.4-2.9,2c-0.8,0.6-1.8,0.8-2.8,0.8c-0.8-0.1-1.5-0.5-1.9-1.2
		C84.1,78.1,84,77.6,84,77c0.1-0.7,0.3-1.3,0.6-1.9c0.3-0.7,0.5-1.3,0.7-1.9c0.2-0.7,0.3-1.3,0.4-2c0-1.6-0.3-3.2-1-4.7
		c-1-2.3-2.2-4.6-3.5-6.7L78,54.5c-1.3-2.2-2.7-4.3-4.3-6.3c-0.9-1.3-2.2-2.4-3.6-3.1c-1.2-0.5-2.5-0.9-3.8-1.2
		c-0.6-0.1-1.2-0.3-1.8-0.5c-0.4-0.2-0.8-0.6-1-1c-0.5-0.7-0.6-1.6-0.2-2.4c0.4-0.9,1.1-1.7,2-2.2c0.7-0.4,1.4-0.7,2.2-1
		c0.9-0.4,1.8-0.8,2.7-1.3c0.7-0.5,1.4-1,2.1-1.5c0.7-0.6,1.4-1.2,2.2-1.6c0.7-0.5,1.5-0.7,2.4-0.6c0.9,0.1,1.7,0.3,2.6,0.6l35,12.7
		c0.2,0.1,0.4,0.1,0.6,0c0.2-0.1,0.2-0.4-0.1-0.8l-5.2-8.8c-1.3-2.2-2.7-4.3-4.3-6.3c-0.9-1.3-2.2-2.4-3.6-3.1
		c-1.2-0.5-2.5-0.8-3.8-1.1c-0.6-0.1-1.2-0.3-1.8-0.5c-0.4-0.2-0.8-0.6-1-1c-0.5-0.7-0.6-1.6-0.2-2.4c0.4-0.9,1.1-1.7,2-2.1
		c0.7-0.4,1.4-0.7,2.2-1c0.9-0.4,1.8-0.8,2.7-1.3c0.7-0.4,1.4-0.9,2.1-1.5c0.7-0.6,1.5-1.2,2.2-1.6c0.8-0.6,1.8-0.8,2.8-0.7
		c0.8,0.1,1.6,0.6,2,1.4c0.3,0.4,0.4,0.9,0.4,1.3c-0.1,0.6-0.2,1.2-0.4,1.8c-0.3,1.3-0.6,2.6-0.8,3.9c0,1.6,0.3,3.2,1,4.7
		c1,2.3,2.2,4.6,3.5,6.7L127.8,54c0.6,0.9,1.1,2,1.4,3.1c0.1,0.7-0.3,1.5-0.9,1.8C127.3,59.4,126,59.4,124.3,58.8z"/>
</g>
</svg>
