<?xml version="1.0" encoding="utf-8"?>
<!-- Generator: Adobe Illustrator 23.0.3, SVG Export Plug-In . SVG Version: 6.00 Build 0)  -->
<svg version="1.1" id="element" xmlns="http://www.w3.org/2000/svg" xmlns:xlink="http://www.w3.org/1999/xlink" x="0px" y="0px"
	 width="433.5px" height="437.3px" viewBox="0 0 433.5 437.3" style="enable-background:new 0 0 433.5 437.3;" xml:space="preserve"
	>
<style type="text/css">
	.st0{fill:#FFFFFF;}
</style>
<g id="name" transform="translate(-46.63 90.636) rotate(-19)">
	<path class="st0" d="M237.7,49.7c11,2.1,14-3.1,14.7-6.7c0.8-4-1.7-7.1-7.8-10l-12-5.7c-6.4-3-8.9-7.5-7.7-13.7
		c1.8-9.2,9.7-13.6,20.9-11.5c11.7,2.2,14.4,7,16.5,14.3l-5.6,3.4c-1.7-6.4-4.1-10.8-12.1-12.3c-6.8-1.3-12,1.2-13,6.4
		c-0.7,3.9,1.1,6.3,6.9,9.1l12.1,5.8c6.5,3.2,9.6,8.5,8.4,14.8c-1.2,6.2-6.9,14.8-22.8,11.7c-7.6-1.4-16-4.7-17.6-16.8l5.3-2.8
		C225,42.1,227.3,47.7,237.7,49.7z"/>
	<path class="st0" d="M309.3,68.1c-5.1,9-15.2,10.9-25.7,4.9c-10.6-6.1-13.9-15.5-8.7-24.6l18-31.5l5.7,3.3l-18,31.5
		c-3.9,6.8-0.7,12.5,5.9,16.3c7.2,4.1,13.7,2.9,17.1-3.1l18-31.5l5.7,3.3L309.3,68.1z"/>
	<path class="st0" d="M366.1,93.3c-5.1,4.4-13.3,3.8-18.9-2.6l-10.7-12.2l-19.6,17.3l-4.4-4.9l38.8-34.1l14.1,16
		C372.1,80.4,373.4,86.9,366.1,93.3z M361.8,88c4.3-3.7,2.7-7.4-1.4-12.1l-9.1-10.3l-10.4,9.2l9.1,10.3
		C354.1,89.8,358.6,90.8,361.8,88L361.8,88z"/>
	<path class="st0" d="M363.2,161.4l-5.3,2.3l-14.6-34.1l47.5-20.3l14.1,32.9l-5.3,2.3l-11.5-26.9l-15.2,6.5l8.3,19.4l-5.3,2.3
		l-8.3-19.4l-16.3,7L363.2,161.4z"/>
	<path class="st0" d="M403.5,212.7c-6.1,0.4-11.4-3.9-12.3-10.4c-2.6,8.6-15.2,7.6-27.4,15l-0.6-7.7c12.3-6.4,26.2-5.4,25.4-16.5
		l-0.9-12.3l-26.4,1.9l-0.5-6.6l51.5-3.7l1.7,23.8C414.7,205.6,410.3,212.2,403.5,212.7z M402.1,205.9c5.9-0.4,6.5-5.1,6.1-10.6
		l-1.2-15.9l-13.5,1l1.2,15.9C395.1,203.3,397.4,206.3,402.1,205.9L402.1,205.9z"/>
	<path class="st0" d="M390.1,278.2c-5.9-1.6-9.4-7.5-8.2-13.9c-5.3,7.2-16.8,2.1-30.8,5l2-7.5c13.7-1.9,26.5,3.6,29.4-7.1l3.3-11.9
		l-25.6-7l1.7-6.4l49.8,13.7l-6.3,23C403.1,275.2,396.7,280,390.1,278.2z M391.1,271.3c5.7,1.6,7.8-2.6,9.2-8l4.2-15.4l-13.1-3.6
		l-4.2,15.4C385.4,266.5,386.6,270.1,391.1,271.3L391.1,271.3z"/>
	<path class="st0" d="M355.5,335.4c-5-3.5-6.3-10.2-3-15.9c-7.4,5-16.6-3.6-30.7-5.7l4.4-6.3c13.6,2.8,23.8,12.3,30.1,3.2l7.1-10.1
		l-21.7-15.2l3.8-5.4l42.4,29.6l-13.7,19.5C368.7,336.9,361.1,339.3,355.5,335.4z M358.7,329.2c4.9,3.4,8.2,0.1,11.4-4.4l9.1-13.1
		l-11.1-7.8L359,317C355,322.8,354.9,326.5,358.7,329.2z"/>
	<path class="st0" d="M303.8,377.7c-3.5-5-2.6-11.8,2.5-16c-8.7,2.3-14.4-9-27.1-15.6l6.3-4.5c11.9,7.2,18.3,19.5,27.3,13.1l10-7.2
		L307.4,326l5.4-3.8l30,42l-19.4,13.8C315.8,383.5,307.8,383.2,303.8,377.7z M308.9,372.9c3.5,4.8,7.7,2.9,12.2-0.4l13-9.3l-7.9-11
		l-13,9.3C307.5,365.7,306.2,369.1,308.9,372.9z"/>
	<path class="st0" d="M240.9,400.3c-1.7-5.9,1.5-11.9,7.7-14.2c-8.9-0.8-10.6-13.3-20.3-23.8l7.4-2.1c8.7,10.8,10.7,24.5,21.3,21.5
		l11.9-3.4l-7.3-25.5l6.3-1.8l14.2,49.7l-22.9,6.5C250.2,409.8,242.8,406.8,240.9,400.3z M247.3,397.5c1.6,5.7,6.3,5.3,11.6,3.8
		l15.3-4.4l-3.7-13l-15.3,4.4C248.4,390.2,246,393,247.3,397.5L247.3,397.5z"/>
	<path class="st0" d="M174.1,400.4c0.4-6.1,5.4-10.7,12-10.8c-8.1-3.7-5.5-16-11.2-29.2l7.7,0.5c4.7,13.1,1.9,26.7,12.9,27.4
		l12.3,0.8l1.7-26.5l6.6,0.4l-3.2,51.6l-23.8-1.5C179.6,412.5,173.6,407.2,174.1,400.4z M181,400c-0.4,5.9,4.2,7.1,9.7,7.4l15.9,1
		l0.8-13.5l-15.9-1C184.5,393.4,181.3,395.3,181,400L181,400z"/>
	<path class="st0" d="M111,378.2c2.4-5.6,8.7-8.3,14.9-6.2c-6.4-6.2,0.2-17-0.7-31.2l7.1,3c0,13.9-7.2,25.8,3,30.1l11.3,4.9
		l10.4-24.4l6.1,2.6l-20.4,47.5l-21.9-9.4C112.2,391.5,108.4,384.5,111,378.2z M117.7,380.1c-2.3,5.5,1.6,8.1,6.6,10.2l14.7,6.3
		l5.3-12.4l-14.7-6.3C123.2,375.1,119.6,375.8,117.7,380.1z"/>
	<path class="st0" d="M59.1,336.2c4.1-4.5,11-4.9,16.1-0.8c-4-8,5.8-15.9,9.8-29.7l5.7,5.2c-4.7,13.1-15.4,21.9-7.3,29.4l9.1,8.4
		l18-19.5l4.8,4.5l-35.1,37.9l-17.5-16.2C55.8,349.1,54.5,341.2,59.1,336.2z M64.8,340.2c-4,4.4-1.2,8.1,2.8,11.9l11.7,10.8l9.2-9.9
		l-11.7-10.8C71.6,337.4,68,336.8,64.8,340.2L64.8,340.2z"/>
	<path class="st0" d="M24.2,279.2c5.4-2.8,12-0.9,15.5,4.6c-1.1-8.9,10.8-13.1,19.1-24.7l3.6,6.8c-8.8,10.8-21.8,15.5-16.7,25.3
		l5.7,10.9l23.5-12.3l3.1,5.8l-45.7,24l-11.1-21.1C16.8,290.3,18.2,282.4,24.2,279.2z M28.2,284.9c-5.3,2.8-3.9,7.2-1.3,12.1
		l7.4,14.1l12-6.3l-7.4-14.1C35.6,284.5,32.3,282.7,28.2,284.9L28.2,284.9z"/>
	<path class="st0" d="M10.4,213.8c6-0.9,11.6,3.1,13,9.5c2-8.7,14.6-8.7,26.3-16.8l1.1,7.6c-11.9,7.2-25.7,7.2-24.2,18.2l1.7,12.2
		l26.2-3.7l0.9,6.5l-51.2,7.3L1,231C-0.3,221.7,3.7,214.7,10.4,213.8z M12.3,220.5c-5.9,0.8-6.1,5.5-5.3,11l2.2,15.8l13.4-1.9
		l-2.2-15.8C19.4,222.6,16.9,219.8,12.3,220.5L12.3,220.5z"/>
	<path class="st0" d="M19.3,147.6c6,1.2,9.9,6.8,9.1,13.3c4.8-7.6,16.6-3.3,30.4-7.1l-1.5,7.6c-13.6,2.8-26.7-1.8-28.9,9.1L26,182.6
		l26,5.2l-1.3,6.5L0,184.1l4.7-23.3C6.6,151.5,12.6,146.3,19.3,147.6z M18.8,154.5c-5.8-1.2-7.6,3.2-8.7,8.6L7,178.8l13.3,2.7
		l3.1-15.6C24.8,158.9,23.4,155.4,18.8,154.5z"/>
	<path class="st0" d="M49.9,88.1c5.2,3.1,7,9.8,4.1,15.6c7.1-5.5,16.8,2.5,31.1,3.6l-4,6.6c-13.8-1.9-24.5-10.6-30.3-1.2l-6.4,10.6
		L67.2,137l-3.4,5.6l-44.3-26.7l12.3-20.4C36.7,87.5,44.1,84.6,49.9,88.1z M47.2,94.5c-5.1-3.1-8.2,0.4-11.1,5.2l-8.2,13.7l11.6,7
		l8.2-13.7C51.3,100.6,51.2,96.9,47.2,94.5z"/>
	<path d="M113.7,73.5l3.8,4.4L93.5,99.2L59.2,60.4l4.9-4.4l30.4,34.4L113.7,73.5z"/>
	<path d="M128.3,71.3l-6.4,2.9l-4.7-54.7l7.7-3.5l38,39.5l-6.7,3.1l-15.4-16.7l-15,6.8L128.3,71.3z M125.2,42.4l11.1-5.1l-13.1-14.6
		L125.2,42.4z"/>
	<path d="M203.8,11.5c0.7,4.8-1.6,9.6-5.9,12c6.8,1.8,10.1,5.2,10.7,11.4c1,8.8-4.4,15.3-13.5,16.3l-23.2,2.5l-5.6-51.4l20.9-2.3
		C199.3-1.2,203.2,6.3,203.8,11.5z M197.3,13.2c-0.7-6.6-5.7-7.6-11.2-7l-12.7,1.4l1.8,16.3l12.7-1.4
		C194.1,21.8,198,19.3,197.3,13.2L197.3,13.2z M202.1,35.7c-0.6-5.2-4.1-8.5-10.2-7.9l-16,1.8l1.9,17.7l16-1.8
		C201.2,44.7,202.5,39.3,202.1,35.7L202.1,35.7z"/>
</g>
</svg>
