<?xml version="1.0" encoding="utf-8"?>
<!-- Generator: Adobe Illustrator 23.0.6, SVG Export Plug-In . SVG Version: 6.00 Build 0)  -->
<svg version="1.1" id="element" xmlns="http://www.w3.org/2000/svg" xmlns:xlink="http://www.w3.org/1999/xlink" x="0px" y="0px"
	 width="413.9px" height="415.4px" viewBox="0 0 413.9 415.4" style="enable-background:new 0 0 413.9 415.4;" xml:space="preserve"
	>
<style type="text/css">
	.st0{fill:#FFFFFF;}
</style>
<g id="name" transform="translate(-46.63 90.636) rotate(-19)">
	<path class="st0" d="M232.3,36c11,2.1,14-3.1,14.7-6.7c0.8-4-1.7-7.1-7.8-10l-12-5.7c-6.4-3-8.9-7.5-7.7-13.7
		c1.8-9.2,9.7-13.6,20.9-11.5c11.7,2.2,14.4,7,16.5,14.3l-5.6,3.4c-1.7-6.4-4.1-10.8-12.1-12.3c-6.8-1.3-12,1.2-13,6.4
		c-0.7,3.9,1.1,6.3,6.9,9.1l12.1,5.8c6.5,3.2,9.6,8.5,8.4,14.8c-1.2,6.2-6.9,14.8-22.8,11.7c-7.6-1.4-16-4.7-17.6-16.8l5.3-2.8
		C219.6,28.4,221.9,34,232.3,36z"/>
	<path class="st0" d="M303.9,54.4c-5.1,9-15.2,10.9-25.7,4.9c-10.6-6.1-13.9-15.5-8.7-24.6l18-31.5l5.7,3.3l-18,31.5
		c-3.9,6.8-0.7,12.5,5.9,16.3c7.2,4.1,13.7,2.9,17.1-3.1l18-31.5l5.7,3.3L303.9,54.4z"/>
	<path class="st0" d="M360.7,79.6c-5.1,4.4-13.3,3.8-18.9-2.6l-10.7-12.2l-19.6,17.3l-4.4-4.9l38.8-34.1l14.1,16
		C366.7,66.7,368,73.2,360.7,79.6z M356.4,74.3c4.3-3.7,2.7-7.4-1.4-12.1l-9.1-10.3l-10.4,9.2l9.1,10.3
		C348.7,76.1,353.2,77.1,356.4,74.3L356.4,74.3z"/>
	<path class="st0" d="M357.8,147.7l-5.3,2.3l-14.6-34.1l47.5-20.3l14.1,32.9l-5.3,2.3l-11.5-26.9l-15.2,6.5l8.3,19.4l-5.3,2.3
		l-8.3-19.4l-16.3,7L357.8,147.7z"/>
	<path class="st0" d="M398.1,199c-6.1,0.4-11.4-3.9-12.3-10.4c-2.6,8.6-15.2,7.6-27.4,15l-0.6-7.7c12.3-6.4,26.2-5.4,25.4-16.5
		l-0.9-12.3l-26.4,1.9l-0.5-6.6l51.5-3.7l1.7,23.8C409.3,191.9,404.9,198.5,398.1,199z M396.7,192.2c5.9-0.4,6.5-5.1,6.1-10.6
		l-1.2-15.9l-13.5,1l1.2,15.9C389.7,189.6,392,192.6,396.7,192.2L396.7,192.2z"/>
	<path class="st0" d="M384.7,264.5c-5.9-1.6-9.4-7.5-8.2-13.9c-5.3,7.2-16.8,2.1-30.8,5l2-7.5c13.7-1.9,26.5,3.6,29.4-7.1l3.3-11.9
		l-25.6-7l1.7-6.4l49.8,13.7l-6.3,23C397.7,261.5,391.3,266.3,384.7,264.5z M385.7,257.6c5.7,1.6,7.8-2.6,9.2-8l4.2-15.4l-13.1-3.6
		l-4.2,15.4C380,252.8,381.2,256.4,385.7,257.6L385.7,257.6z"/>
	<path class="st0" d="M350.1,321.7c-5-3.5-6.3-10.2-3-15.9c-7.4,5-16.6-3.6-30.7-5.7l4.4-6.3c13.6,2.8,23.8,12.3,30.1,3.2l7.1-10.1
		l-21.7-15.2l3.8-5.4l42.4,29.6l-13.7,19.5C363.3,323.2,355.7,325.6,350.1,321.7z M353.3,315.5c4.9,3.4,8.2,0.1,11.4-4.4l9.1-13.1
		l-11.1-7.8l-9.1,13.1C349.6,309.1,349.5,312.8,353.3,315.5z"/>
	<path class="st0" d="M298.4,364c-3.5-5-2.6-11.8,2.5-16c-8.7,2.3-14.4-9-27.1-15.6l6.3-4.5c11.9,7.2,18.3,19.5,27.3,13.1l10-7.2
		L302,312.3l5.4-3.8l30,42L318,364.3C310.4,369.8,302.4,369.5,298.4,364z M303.5,359.2c3.5,4.8,7.7,2.9,12.2-0.4l13-9.3l-7.9-11
		l-13,9.3C302.1,352,300.8,355.4,303.5,359.2z"/>
	<path class="st0" d="M235.5,386.6c-1.7-5.9,1.5-11.9,7.7-14.2c-8.9-0.8-10.6-13.3-20.3-23.8l7.4-2.1C239,357.3,241,371,251.6,368
		l11.9-3.4l-7.3-25.5l6.3-1.8l14.2,49.7l-22.9,6.5C244.8,396.1,237.4,393.1,235.5,386.6z M241.9,383.8c1.6,5.7,6.3,5.3,11.6,3.8
		l15.3-4.4l-3.7-13l-15.3,4.4C243,376.5,240.6,379.3,241.9,383.8L241.9,383.8z"/>
	<path class="st0" d="M168.7,386.7c0.4-6.1,5.4-10.7,12-10.8c-8.1-3.7-5.5-16-11.2-29.2l7.7,0.5c4.7,13.1,1.9,26.7,12.9,27.4
		l12.3,0.8l1.7-26.5l6.6,0.4l-3.2,51.6l-23.8-1.5C174.2,398.8,168.2,393.5,168.7,386.7z M175.6,386.3c-0.4,5.9,4.2,7.1,9.7,7.4
		l15.9,1l0.8-13.5l-15.9-1C179.1,379.7,175.9,381.6,175.6,386.3L175.6,386.3z"/>
	<path class="st0" d="M105.6,364.5c2.4-5.6,8.7-8.3,14.9-6.2c-6.4-6.2,0.2-17-0.7-31.2l7.1,3c0,13.9-7.2,25.8,3,30.1l11.3,4.9
		l10.4-24.4l6.1,2.6l-20.4,47.5l-21.9-9.4C106.8,377.8,103,370.8,105.6,364.5z M112.3,366.4c-2.3,5.5,1.6,8.1,6.6,10.2l14.7,6.3
		l5.3-12.4l-14.7-6.3C117.8,361.4,114.2,362.1,112.3,366.4z"/>
	<path class="st0" d="M53.7,322.5c4.1-4.5,11-4.9,16.1-0.8c-4-8,5.8-15.9,9.8-29.7l5.7,5.2c-4.7,13.1-15.4,21.9-7.3,29.4l9.1,8.4
		l18-19.5l4.8,4.5l-35.1,37.9l-17.5-16.2C50.4,335.4,49.1,327.5,53.7,322.5z M59.4,326.5c-4,4.4-1.2,8.1,2.8,11.9l11.7,10.8l9.2-9.9
		l-11.7-10.8C66.2,323.7,62.6,323.1,59.4,326.5L59.4,326.5z"/>
	<path class="st0" d="M18.8,265.5c5.4-2.8,12-0.9,15.5,4.6c-1.1-8.9,10.8-13.1,19.1-24.7l3.6,6.8c-8.8,10.8-21.8,15.5-16.7,25.3
		l5.7,10.9l23.5-12.3l3.1,5.8l-45.7,24l-11.1-21.1C11.4,276.6,12.8,268.7,18.8,265.5z M22.8,271.2c-5.3,2.8-3.9,7.2-1.3,12.1
		l7.4,14.1l12-6.3L33.5,277C30.2,270.8,26.9,269,22.8,271.2L22.8,271.2z"/>
	<path class="st0" d="M5,200.1c6-0.9,11.6,3.1,13,9.5c2-8.7,14.6-8.7,26.3-16.8l1.1,7.6c-11.9,7.2-25.7,7.2-24.2,18.2l1.7,12.2
		l26.2-3.7l0.9,6.5l-51.2,7.3l-3.2-23.6C-5.7,208-1.7,201,5,200.1z M6.9,206.8c-5.9,0.8-6.1,5.5-5.3,11l2.2,15.8l13.4-1.9L15,215.9
		C14,208.9,11.5,206.1,6.9,206.8L6.9,206.8z"/>
	<path class="st0" d="M13.9,133.9c6,1.2,9.9,6.8,9.1,13.3c4.8-7.6,16.6-3.3,30.4-7.1l-1.5,7.6c-13.6,2.8-26.7-1.8-28.9,9.1
		l-2.4,12.1l26,5.2l-1.3,6.5l-50.7-10.2l4.7-23.3C1.2,137.8,7.2,132.6,13.9,133.9z M13.4,140.8c-5.8-1.2-7.6,3.2-8.7,8.6l-3.1,15.7
		l13.3,2.7l3.1-15.6C19.4,145.2,18,141.7,13.4,140.8z"/>
	<path class="st0" d="M44.5,74.4c5.2,3.1,7,9.8,4.1,15.6c7.1-5.5,16.8,2.5,31.1,3.6l-4,6.6C61.9,98.3,51.2,89.6,45.4,99L39,109.6
		l22.8,13.7l-3.4,5.6l-44.3-26.7l12.3-20.4C31.3,73.8,38.7,70.9,44.5,74.4z M41.8,80.8c-5.1-3.1-8.2,0.4-11.1,5.2l-8.2,13.7l11.6,7
		L42.3,93C45.9,86.9,45.8,83.2,41.8,80.8z"/>
	<path d="M108.3,59.8l3.8,4.4l-24,21.3L53.8,46.7l4.9-4.4l30.4,34.4L108.3,59.8z"/>
	<path d="M122.9,57.6l-6.4,2.9l-4.7-54.7l7.7-3.5l38,39.5l-6.7,3.1l-15.4-16.7l-15,6.8L122.9,57.6z M119.8,28.7l11.1-5.1L117.8,9
		L119.8,28.7z"/>
	<path d="M198.4-2.2c0.7,4.8-1.6,9.6-5.9,12c6.8,1.8,10.1,5.2,10.7,11.4c1,8.8-4.4,15.3-13.5,16.3L166.5,40l-5.6-51.4l20.9-2.3
		C193.9-14.9,197.8-7.4,198.4-2.2z M191.9-0.5c-0.7-6.6-5.7-7.6-11.2-7L168-6.1l1.8,16.3l12.7-1.4C188.7,8.1,192.6,5.6,191.9-0.5
		L191.9-0.5z M196.7,22c-0.6-5.2-4.1-8.5-10.2-7.9l-16,1.8l1.9,17.7l16-1.8C195.8,31,197.1,25.6,196.7,22L196.7,22z"/>
</g>
</svg>
