<?xml version="1.0" encoding="utf-8"?>
<!-- Generator: Adobe Illustrator 23.0.6, SVG Export Plug-In . SVG Version: 6.00 Build 0)  -->
<svg version="1.1" id="Element" xmlns="http://www.w3.org/2000/svg" xmlns:xlink="http://www.w3.org/1999/xlink" x="0px" y="0px"
	 width="445px" height="444px" viewBox="0 0 445 444" style="enable-background:new 0 0 445 444;" xml:space="preserve">
<style type="text/css">
	.st0{fill:#FFFFFF;}
</style>
<g id="name" transform="translate(197.381 -71.363) rotate(40)">
	<g transform="translate(0 0)">
		<path class="st0" d="M239.1,51.5c11,2.1,14-3.1,14.7-6.7c0.8-4-1.7-7.1-7.8-10l-12-5.7c-6.4-3-8.9-7.5-7.7-13.7
			c1.8-9.2,9.7-13.6,20.9-11.5c11.7,2.2,14.4,7,16.5,14.3l-5.6,3.4c-1.7-6.4-4.1-10.8-12.1-12.3c-6.8-1.3-12,1.2-13,6.4
			c-0.7,3.9,1.1,6.3,6.9,9.1l12.1,5.8c6.5,3.2,9.6,8.5,8.4,14.8c-1.2,6.2-6.9,14.8-22.8,11.7c-7.6-1.4-16-4.7-17.6-16.8l5.3-2.8
			C226.4,43.9,228.7,49.6,239.1,51.5z"/>
		<path class="st0" d="M310.7,69.9c-5.1,9-15.2,10.9-25.7,4.9c-10.6-6.1-13.9-15.5-8.7-24.6l18-31.5L300,22l-18,31.5
			c-3.9,6.8-0.7,12.5,5.9,16.3c7.2,4.1,13.7,2.9,17.1-3.1l18-31.5l5.7,3.3L310.7,69.9z"/>
		<path class="st0" d="M367.5,95.2c-5.1,4.4-13.3,3.8-18.9-2.6l-10.7-12.2l-19.6,17.3l-4.4-4.9l38.8-34.1l14.1,16
			C373.5,82.3,374.8,88.8,367.5,95.2z M363.2,89.8c4.3-3.7,2.7-7.4-1.4-12.1l-9.1-10.3l-10.4,9.2l9.1,10.3
			C355.5,91.6,360,92.6,363.2,89.8L363.2,89.8z"/>
		<path class="st0" d="M364.6,163.3l-5.3,2.3l-14.6-34.1l47.5-20.3l14.1,32.9l-5.3,2.3l-11.5-26.9l-15.2,6.5l8.3,19.4l-5.3,2.3
			l-8.3-19.4l-16.3,7L364.6,163.3z"/>
		<path class="st0" d="M404.9,214.6c-6.1,0.4-11.4-3.9-12.3-10.4c-2.6,8.6-15.2,7.6-27.4,15l-0.6-7.7c12.3-6.4,26.2-5.4,25.4-16.5
			l-0.9-12.3l-26.4,1.9l-0.5-6.6l51.5-3.7l1.7,23.8C416.1,207.4,411.7,214.1,404.9,214.6z M403.5,207.8c5.9-0.4,6.5-5.1,6.1-10.6
			l-1.2-15.9l-13.5,1l1.2,15.9C396.5,205.2,398.8,208.1,403.5,207.8L403.5,207.8z"/>
		<path class="st0" d="M391.5,280.1c-5.9-1.6-9.4-7.5-8.2-13.9c-5.3,7.2-16.8,2.1-30.8,5l2-7.5c13.7-1.9,26.5,3.6,29.4-7.1l3.3-11.9
			l-25.6-7l1.7-6.4l49.8,13.7l-6.3,23C404.5,277.1,398.1,281.9,391.5,280.1z M392.5,273.2c5.7,1.6,7.8-2.6,9.2-8l4.2-15.4l-13.1-3.6
			l-4.2,15.4C386.8,268.4,388,271.9,392.5,273.2L392.5,273.2z"/>
		<path class="st0" d="M356.9,337.2c-5-3.5-6.3-10.2-3-15.9c-7.4,5-16.6-3.6-30.7-5.7l4.4-6.3c13.6,2.8,23.8,12.3,30.1,3.2l7.1-10.1
			l-21.7-15.2l3.8-5.4l42.4,29.6L375.5,331C370.1,338.8,362.5,341.1,356.9,337.2z M360.1,331.1c4.9,3.4,8.2,0.1,11.4-4.4l9.1-13.1
			l-11.1-7.8l-9.1,13.1C356.4,324.6,356.3,328.4,360.1,331.1z"/>
		<path class="st0" d="M305.2,379.5c-3.5-5-2.6-11.8,2.5-16c-8.7,2.3-14.4-9-27.1-15.6l6.3-4.5c11.9,7.2,18.3,19.5,27.3,13.1l10-7.2
			l-15.4-21.6l5.4-3.8l30,42l-19.4,13.8C317.2,385.4,309.2,385.1,305.2,379.5z M310.3,374.8c3.5,4.8,7.7,2.9,12.2-0.4l13-9.3
			l-7.9-11l-13,9.3C308.9,367.5,307.6,371,310.3,374.8z"/>
		<path class="st0" d="M242.3,402.1c-1.7-5.9,1.5-11.9,7.7-14.2c-8.9-0.8-10.6-13.3-20.3-23.8l7.4-2.1c8.7,10.8,10.7,24.5,21.3,21.5
			l11.9-3.4l-7.3-25.5l6.3-1.8l14.2,49.7l-22.9,6.5C251.6,411.6,244.2,408.7,242.3,402.1z M248.7,399.3c1.6,5.7,6.3,5.3,11.6,3.8
			l15.3-4.4l-3.7-13l-15.3,4.4C249.8,392,247.4,394.8,248.7,399.3L248.7,399.3z"/>
		<path class="st0" d="M175.5,402.3c0.4-6.1,5.4-10.7,12-10.8c-8.1-3.7-5.5-16-11.2-29.2l7.7,0.5c4.7,13.1,1.9,26.7,12.9,27.4
			l12.3,0.8l1.7-26.5l6.6,0.4l-3.2,51.6l-23.8-1.5C181,414.4,175,409.1,175.5,402.3z M182.4,401.8c-0.4,5.9,4.2,7.1,9.7,7.4l15.9,1
			l0.8-13.5l-15.9-1C185.9,395.3,182.7,397.1,182.4,401.8L182.4,401.8z"/>
		<path d="M147.3,349.8c17.2,7.3,15.1,24.1,11,33.8c-4.2,9.9-15,23.3-32.4,15.9c-10.4-4.4-13-11.2-13.1-20.2l7-0.6
			c-1.5,7.2,1.3,12.6,9,15.8c9.2,3.9,18.1-1.2,23.3-13.4c5-11.9,2.2-22-7.2-26c-8-3.4-13.7-0.5-19,7.9l-5.1-5.3
			C127.5,349.5,135.6,344.8,147.3,349.8z"/>
		<path d="M103.9,321.5c10.9,10.1,10.9,25,0,36.8c-11,11.9-25.8,13.1-36.6,3c-11.1-10.3-11-24.9,0.3-37.2
			C77.6,313.2,92.5,311,103.9,321.5z M99,353.8c8.7-9.4,9-20.6,0.9-28.1c-8-7.4-19.3-6.2-27.7,3c-8.8,9.6-9.3,20.7-1.1,28.3
			C79.2,364.5,90.3,363.2,99,353.8L99,353.8z"/>
		<path d="M59.4,282l-18.9,27.1L75.9,292l2.7,5.6L32.1,320l-2.4-5l21.4-31l-37.7-2.6l-2.4-5L57.5,254l2.7,5.6l-35.4,17.1l33.1,2.3
			L59.4,282z"/>
		<path d="M42.6,220.1L14.8,238l39.3-2.3l0.4,6.2L2.9,245l-0.3-5.6l31.7-20.6L0.3,202L0,196.4l51.6-3.1l0.4,6.2l-39.3,2.3l29.7,14.7
			L42.6,220.1z"/>
		<path d="M51.2,137.9c9.9,3.1,13.9,12.5,10.3,24.1c-3.7,11.7-12.1,16.9-22.2,13.8L4.7,164.9l2-6.3l34.6,10.9
			c7.4,2.3,12.4-2,14.6-9.2c2.5-7.9-0.1-14-6.7-16.1l-34.6-10.9l2-6.3L51.2,137.9z"/>
		<path d="M91.8,104.5l-49.5-3.9l33.4,25.3l-3.8,5L30.7,99.6l4.3-5.7l50,3.9L51.3,72.4l3.8-5l41.2,31.2L91.8,104.5z"/>
		<path d="M108.7,88.8L76.3,48.6l5.2-4.2l32.4,40.2L108.7,88.8z"/>
		<path d="M136.8,70.1L116.6,29l-15.3,7.5l-2.6-5.2l36.4-17.9l2.6,5.2l-15.2,7.5l20.3,41.1L136.8,70.1z"/>
		<path d="M181.6,55l-3.1-20L154,7l8.1-1.2l18.8,22.5l10.7-27.1l7.8-1.2L185,34l3.1,20L181.6,55z"/>
	</g>
</g>
</svg>
