<?xml version="1.0" encoding="UTF-8"?>
<svg id="Ebene_1" xmlns="http://www.w3.org/2000/svg" viewBox="0 0 2085 387">
  <path d="M190.01,272.5c0-14-5.5-25.5-25.5-34l-41.5-17c-48-19.5-70-55-70-97.5,0-70,60.5-115,129-115,97.5,0,122.5,67,122.5,103.5l-73.5,12c0-10-4.5-47-52.5-47-29,0-46,20-46,39.5,0,18,11,27.5,25,33.5l37.5,16c55,23.5,77,56.5,77,100,0,55.5-46.5,111.5-128.5,111.5-100.5,0-135.5-67.5-135.5-113.5,0-6.5.5-10.5,1-13.5l72.5-12.5c-.5,2.5-1,7-1,11.5,0,29.5,18,58.5,61.5,59.5,30.5,0,48-14.5,48-37Z"/>
  <path d="M636.51,16l-51,240.5c-17.5,81-75,121.5-144,121.5-77,0-128-47-128-117,0-16,2.5-28,6-45.5l41.5-199.5h80l-43,203.5c-2.5,12-4,23.5-4,30,0,29.5,15.5,50.5,54.5,50.5,31,0,53-19,61-58l47-226h80Z"/>
  <path d="M809.01,16c64.5,0,110,41,110,101.5,0,77.5-56.5,124.5-140,125h-56l-27.5,128h-78.5L692.01,16h117ZM757.01,84l-19.5,90.5h40.5c43.5,0,59.5-25.5,59.5-50s-13.5-40.5-48.5-40.5h-32Z"/>
  <path d="M899,370.5L974,16h224.5l-16,74.5h-145.5l-14.5,67.5h132l-14.5,69.5h-132l-14.5,68h146l-16,75h-224.5Z"/>
  <path d="M1312,238.5h-37l-28,132h-79l75-354.5h127.5c68,0,103.5,39.5,103.5,92,0,59-36,101.5-86,118.5l53,144h-83.5l-45.5-132ZM1334,170.5c36.5,0,58.5-21.5,58.5-51,0-21.5-12.5-35.5-41.5-35.5h-43.5l-18.5,86.5h45Z"/>
  <path d="M1613.49,238.5h-37l-28,132h-79l75-354.5h127.5c68,0,103.5,39.5,103.5,92,0,59-36,101.5-86,118.5l53,144h-83.5l-45.5-132ZM1635.49,170.5c36.5,0,58.5-21.5,58.5-51,0-21.5-12.5-35.5-41.5-35.5h-43.5l-18.5,86.5h45Z"/>
  <path d="M1914.99,238.5h-37l-28,132h-79l75-354.5h127.5c68,0,103.5,39.5,103.5,92,0,59-36,101.5-86,118.5l53,144h-83.5l-45.5-132ZM1936.99,170.5c36.5,0,58.5-21.5,58.5-51,0-21.5-12.5-35.5-41.5-35.5h-43.5l-18.5,86.5h45Z"/>
</svg>