<?xml version="1.0" encoding="utf-8"?>
<!-- Generator: Adobe Illustrator 16.0.0, SVG Export Plug-In . SVG Version: 6.00 Build 0)  -->
<!DOCTYPE svg PUBLIC "-//W3C//DTD SVG 1.1//EN" "http://www.w3.org/Graphics/SVG/1.1/DTD/svg11.dtd">
<svg version="1.1" id="Ebene_1" xmlns="http://www.w3.org/2000/svg" xmlns:xlink="http://www.w3.org/1999/xlink" x="0px" y="0px"
	 width="79px" height="82px" viewBox="704.5 791.5 79 82" enable-background="new 704.5 791.5 79 82" xml:space="preserve">
<path d="M707.918,831.645c0-10.018,3.544-18.57,10.632-25.659c7.089-7.088,15.642-10.632,25.659-10.632s18.57,3.544,25.659,10.632
	c7.088,7.089,10.632,15.642,10.632,25.659s-3.544,18.57-10.632,25.659c-7.088,7.088-15.642,10.632-25.659,10.632
	s-18.57-3.544-25.659-10.632C711.462,850.215,707.918,841.662,707.918,831.645L707.918,831.645z M711.888,831.645
	c0,8.884,3.166,16.492,9.498,22.824c6.331,6.331,13.939,9.497,22.823,9.497s16.492-3.166,22.824-9.497
	c6.331-6.332,9.498-13.94,9.498-22.824s-3.167-16.492-9.498-22.823c-6.332-6.332-13.94-9.498-22.824-9.498
	s-16.492,3.166-22.823,9.498C715.054,815.152,711.888,822.761,711.888,831.645L711.888,831.645z M722.094,839.441
	c-0.188-0.189-0.188-0.378,0-0.567c0.378-0.378,0.851-0.52,1.418-0.425c0.567,0.094,0.898,0.189,0.992,0.283
	c0.661,0.284,1.395,0.922,2.197,1.914c0.804,0.992,1.441,1.678,1.914,2.056c2.269,1.891,4.584,2.032,6.946,0.426
	c0.189-0.662,0.496-1.229,0.921-1.702c0.426-0.473,0.828-0.803,1.205-0.992c0.378-0.188,1.04-0.473,1.985-0.851
	c-3.119-0.283-5.647-0.827-7.585-1.63c-1.937-0.804-3.473-1.819-4.607-3.048c-1.512-1.701-2.433-3.922-2.764-6.663
	s-0.118-5.245,0.638-7.513c0.567-1.418,1.37-2.694,2.41-3.828c-0.757-2.362-0.614-5.056,0.425-8.08
	c3.024,0.188,5.766,1.229,8.223,3.118c4.726-1.229,9.64-1.275,14.743-0.142c0.661-0.473,1.678-1.063,3.048-1.771
	c1.37-0.709,3.095-1.111,5.174-1.205c0.378,1.039,0.639,2.268,0.78,3.686c0.142,1.417,0.071,2.741-0.213,3.969
	c2.174,2.269,3.309,5.293,3.402,9.073c0,3.024-0.52,5.528-1.56,7.514c-1.039,1.984-2.882,3.638-5.528,4.961
	c-1.796,0.851-4.158,1.37-7.088,1.56c1.323,0.661,2.291,1.347,2.906,2.056c0.614,0.709,1.016,1.819,1.205,3.331v4.466
	c0,0,0.047,1.441,0.142,4.324c0.283,0.473,0.614,0.874,0.992,1.205c0.378,0.33,0.709,0.567,0.992,0.709s0.378,0.354,0.283,0.638
	c-0.094,0.283-0.473,0.425-1.134,0.425c-1.606,0-2.883-0.566-3.827-1.701c-0.283-0.473-0.426-1.039-0.426-1.7v-6.805
	c0-0.757-0.189-1.3-0.566-1.631c-0.379-0.331-0.757-0.544-1.135-0.638v8.931c0,1.606,0.189,2.646,0.567,3.119
	s0.614,0.944,0.709,1.417c0.094,0.095,0.023,0.165-0.213,0.213s-0.638-0.023-1.205-0.213c-1.229-0.283-2.079-0.921-2.552-1.913
	c-0.473-0.993-0.709-2.056-0.709-3.19v-8.789h-1.843v8.789c0,1.135-0.236,2.221-0.709,3.261c-0.661,1.323-1.89,2.032-3.686,2.127
	c-0.283-0.095-0.425-0.189-0.425-0.284c0.094-0.094,0.377-0.566,0.851-1.417c0.094-0.189,0.212-0.567,0.354-1.135
	c0.142-0.566,0.212-1.229,0.212-1.984v-8.931c-0.378,0.094-0.732,0.307-1.062,0.638c-0.332,0.331-0.497,0.874-0.497,1.63v6.805
	c0,0.661-0.142,1.229-0.425,1.701c-0.851,1.135-2.127,1.701-3.828,1.701c-0.661,0-1.039-0.142-1.134-0.425
	c-0.094-0.189-0.07-0.354,0.071-0.496c0.142-0.143,0.354-0.308,0.638-0.497c0.283-0.188,0.473-0.331,0.567-0.425
	c0.377-0.283,0.661-0.661,0.851-1.134c0.283-0.378,0.354-1.37,0.212-2.978c-0.142-1.606-0.165-2.646-0.07-3.118
	c-2.458,0.851-4.962,0.425-7.514-1.276c-0.757-0.756-1.512-1.843-2.269-3.261C724.93,842.088,723.795,840.859,722.094,839.441
	L722.094,839.441z"/>
</svg>
