<?xml version="1.0" encoding="utf-8"?>
<!-- Generator: Adobe Illustrator 16.0.0, SVG Export Plug-In . SVG Version: 6.00 Build 0)  -->
<!DOCTYPE svg PUBLIC "-//W3C//DTD SVG 1.1//EN" "http://www.w3.org/Graphics/SVG/1.1/DTD/svg11.dtd">
<svg version="1.1" id="Ebene_1" xmlns="http://www.w3.org/2000/svg" xmlns:xlink="http://www.w3.org/1999/xlink" x="0px" y="0px"
	 width="1326.724px" height="377.584px" viewBox="0 0 1326.724 377.584" enable-background="new 0 0 1326.724 377.584"
	 xml:space="preserve">
<rect x="0.357" y="300.87" fill="#FFFFFF" width="1326.366" height="76.314"/>
<g>
	<path d="M563.771,345.914c-0.164-4.103,2.051-6.195,4.882-6.195c1.723,0,3.037,0.534,5.785,1.846
		c2.093,0.985,3.611,1.723,5.129,1.723c1.477,0,2.174-1.189,2.215-3.446h2.462c0.206,4.595-2.174,6.195-4.718,6.195
		c-1.641,0-3.119-0.492-5.95-1.805c-1.928-0.944-3.446-1.806-4.924-1.806c-1.477,0-2.379,1.027-2.461,3.487H563.771z"/>
	<path d="M612.634,342.386c-0.205-3.857-0.451-8.494-0.41-11.94h-0.124c-0.943,3.241-2.093,6.688-3.487,10.503l-4.882,13.417h-2.708
		l-4.473-13.172c-1.313-3.897-2.421-7.466-3.201-10.749h-0.082c-0.082,3.447-0.288,8.083-0.533,12.226l-0.738,11.859h-3.405
		l1.928-27.654h4.554l4.719,13.375c1.148,3.405,2.093,6.442,2.79,9.314h0.123c0.697-2.79,1.683-5.827,2.914-9.314l4.923-13.375
		h4.554l1.724,27.654h-3.488L612.634,342.386z"/>
	<path d="M636.632,341.564h-10.75v9.971h11.98v2.996h-15.55v-27.654h14.935v2.995h-11.365v8.739h10.75V341.564z"/>
	<path d="M657.636,354.531l-3.529-6.113c-1.436-2.339-2.338-3.857-3.2-5.458h-0.083c-0.779,1.601-1.559,3.078-2.994,5.498
		l-3.324,6.073h-4.103l8.452-13.991l-8.124-13.663h4.144l3.652,6.483c1.026,1.804,1.805,3.199,2.543,4.676h0.124
		c0.779-1.641,1.477-2.912,2.502-4.676l3.776-6.483h4.103l-8.412,13.457l8.616,14.197H657.636z"/>
	<path d="M669.49,326.876v27.654h-3.569v-27.654H669.49z"/>
	<path d="M695.05,353.627c-1.313,0.657-3.939,1.313-7.303,1.313c-7.796,0-13.663-4.922-13.663-13.991
		c0-8.657,5.867-14.525,14.442-14.525c3.446,0,5.622,0.739,6.565,1.231l-0.861,2.913c-1.354-0.657-3.283-1.149-5.581-1.149
		c-6.482,0-10.791,4.145-10.791,11.407c0,6.769,3.898,11.119,10.627,11.119c2.175,0,4.391-0.452,5.827-1.149L695.05,353.627z"/>
	<path d="M722.291,340.416c0,9.521-5.786,14.566-12.843,14.566c-7.303,0-12.432-5.662-12.432-14.033
		c0-8.781,5.458-14.525,12.843-14.525C717.409,326.424,722.291,332.209,722.291,340.416z M700.832,340.868
		c0,5.909,3.201,11.201,8.821,11.201c5.662,0,8.863-5.209,8.863-11.489c0-5.498-2.872-11.242-8.821-11.242
		C703.787,329.338,700.832,334.794,700.832,340.868z"/>
	<path d="M735.619,327.246c2.175-0.33,4.76-0.575,7.591-0.575c5.127,0,8.781,1.191,11.201,3.447
		c2.462,2.256,3.898,5.458,3.898,9.928c0,4.514-1.396,8.207-3.98,10.751c-2.586,2.584-6.851,3.979-12.228,3.979
		c-2.544,0-4.678-0.122-6.482-0.327V327.246z M739.189,351.699c0.902,0.164,2.215,0.206,3.609,0.206
		c7.632,0,11.777-4.266,11.777-11.734c0.04-6.523-3.653-10.667-11.203-10.667c-1.846,0-3.241,0.164-4.184,0.369V351.699z"/>
	<path d="M760.561,352.396c0-1.517,1.027-2.584,2.461-2.584c1.438,0,2.423,1.067,2.423,2.584c0,1.477-0.944,2.586-2.463,2.586
		C761.548,354.982,760.561,353.873,760.561,352.396z"/>
	<path d="M770.036,326.876h14.895v2.995h-11.324v9.191h10.463v2.954h-10.463v12.514h-3.57V326.876z"/>
	<path d="M785.053,352.396c0-1.517,1.025-2.584,2.462-2.584c1.436,0,2.42,1.067,2.42,2.584c0,1.477-0.944,2.586-2.462,2.586
		C786.036,354.982,785.053,353.873,785.053,352.396z"/>
	<path d="M793.421,345.914c-0.165-4.103,2.053-6.195,4.882-6.195c1.723,0,3.037,0.534,5.786,1.846
		c2.091,0.985,3.611,1.723,5.13,1.723c1.474,0,2.174-1.189,2.213-3.446h2.463c0.206,4.595-2.174,6.195-4.718,6.195
		c-1.641,0-3.12-0.492-5.949-1.805c-1.929-0.944-3.446-1.806-4.925-1.806c-1.477,0-2.378,1.027-2.462,3.487H793.421z"/>
</g>
<rect x="1143.603" y="0.592" width="182.945" height="301.002"/>
<rect x="961.56" y="0.592" width="182.945" height="301.002"/>
<rect x="583.981" fill="#0BC581" width="194.661" height="301.002"/>
<rect x="778.615" y="0.592" width="184.278" height="301.002"/>
<rect x="389.32" fill="#FFD207" width="194.661" height="301.002"/>
<rect x="194.66" fill="#4A72C3" width="194.66" height="301.002"/>
<rect fill="#FD8B2E" width="194.66" height="301.002"/>
<g>
	<path d="M86.565,237.267c-13.084,0-25.928-2.181-38.529-5.089v-19.386c12.844,5.332,26.655,8.724,40.712,8.724
		c17.932,0,36.106-8.239,36.106-28.595c0-18.659-13.57-25.687-27.867-33.684l-14.782-8.239
		c-18.417-10.177-36.107-19.144-36.107-43.377c0-31.261,26.415-42.892,53.797-42.892c11.874,0,23.263,1.939,34.894,4.362v18.66
		c-11.146-4.605-24.475-7.271-36.591-7.271c-15.993,0-31.502,7.513-31.502,25.445c0,15.267,16.235,23.505,27.868,29.807
		l15.508,8.481c19.628,10.663,35.38,21.083,35.38,46.042C145.452,225.393,117.343,237.267,86.565,237.267z"/>
</g>
<g>
	<path d="M287.52,237.267c-36.834,0-51.13-22.538-51.13-56.462V67.395h18.9v109.774c0,23.99,3.878,44.346,32.958,44.346
		c30.775,0,34.652-18.66,34.652-44.346V67.395h18.902v113.409C341.801,217.88,327.019,237.267,287.52,237.267z"/>
</g>
<g>
	<path d="M478.855,162.629h-19.87v74.637h-18.903V70.061h38.773c31.018,0,53.071,11.631,53.071,46.285
		C531.926,149.787,509.632,162.629,478.855,162.629z M474.736,85.812h-15.75v61.067h20.355c20.598,0,33.684-8.482,33.684-30.292
		C513.025,90.658,496.789,85.812,474.736,85.812z"/>
</g>
<g>
	<path d="M635.857,237.267V70.061h80.937v15.751h-62.035v55.978h59.128v15.751h-59.128v63.974h64.216v15.751H635.857z"/>
</g>
<path fill="#FFFFFF" d="M906.541,237.267l-8.239-38.53c-4.846-23.021-9.451-35.864-35.864-35.864h-17.449v74.394h-18.9V70.061
	h41.438c27.383,0,53.312,10.42,53.312,42.165c0,24.233-11.39,36.349-33.925,41.922v0.485c22.052,5.815,24.716,16.962,28.835,36.834
	l9.693,45.799H906.541z M859.044,85.812h-14.055v61.309h10.42c22.778,0,46.526-5.088,46.526-32.958
	C901.936,86.54,880.611,85.812,859.044,85.812z"/>
<path fill="#FFFFFF" d="M1086.349,237.267l-8.239-38.53c-4.846-23.021-9.45-35.864-35.865-35.864h-17.447v74.394h-18.901V70.061
	h41.438c27.383,0,53.312,10.42,53.312,42.165c0,24.233-11.391,36.349-33.926,41.922v0.485c22.052,5.815,24.716,16.962,28.837,36.834
	l9.693,45.799H1086.349z M1038.853,85.812h-14.056v61.309h10.42c22.779,0,46.527-5.088,46.527-32.958
	C1081.744,86.54,1060.42,85.812,1038.853,85.812z"/>
<path fill="#FFFFFF" d="M1262.037,237.267l-8.239-38.53c-4.845-23.021-9.45-35.864-35.863-35.864h-17.448v74.394h-18.9V70.061
	h41.438c27.383,0,53.312,10.42,53.312,42.165c0,24.233-11.391,36.349-33.927,41.922v0.485c22.052,5.815,24.717,16.962,28.836,36.834
	l9.693,45.799H1262.037z M1214.541,85.812h-14.055v61.309h10.42c22.778,0,46.527-5.088,46.527-32.958
	C1257.434,86.54,1236.109,85.812,1214.541,85.812z"/>
</svg>
