<?xml version="1.0" encoding="utf-8"?>
<!-- Generator: Adobe Illustrator 16.0.0, SVG Export Plug-In . SVG Version: 6.00 Build 0)  -->
<!DOCTYPE svg PUBLIC "-//W3C//DTD SVG 1.1//EN" "http://www.w3.org/Graphics/SVG/1.1/DTD/svg11.dtd">
<svg version="1.1" id="Ebene_1" xmlns="http://www.w3.org/2000/svg" xmlns:xlink="http://www.w3.org/1999/xlink" x="0px" y="0px"
	 width="1326.724px" height="377.584px" viewBox="0 0 1326.724 377.584" enable-background="new 0 0 1326.724 377.584"
	 xml:space="preserve">
<rect x="1143.603" y="0.592" width="182.945" height="301.002"/>
<rect x="961.56" y="0.592" width="182.945" height="301.002"/>
<rect x="583.981" fill="#0BC581" width="194.661" height="301.002"/>
<rect x="778.615" y="0.592" width="184.278" height="301.002"/>
<rect x="389.32" fill="#FFD207" width="194.661" height="301.002"/>
<rect x="194.66" fill="#4A72C3" width="194.66" height="301.002"/>
<rect fill="#FD8B2E" width="194.66" height="301.002"/>
<g>
	<path d="M86.565,237.267c-13.084,0-25.928-2.181-38.529-5.089v-19.386c12.844,5.332,26.655,8.724,40.712,8.724
		c17.932,0,36.106-8.239,36.106-28.595c0-18.659-13.57-25.687-27.867-33.684l-14.782-8.239
		c-18.417-10.177-36.107-19.144-36.107-43.377c0-31.261,26.415-42.892,53.797-42.892c11.874,0,23.263,1.939,34.894,4.362v18.66
		c-11.146-4.605-24.475-7.271-36.591-7.271c-15.993,0-31.502,7.513-31.502,25.445c0,15.267,16.235,23.505,27.868,29.807
		l15.508,8.481c19.628,10.663,35.38,21.083,35.38,46.042C145.452,225.393,117.343,237.267,86.565,237.267z"/>
</g>
<g>
	<path d="M287.52,237.267c-36.834,0-51.13-22.538-51.13-56.462V67.395h18.9v109.774c0,23.99,3.878,44.346,32.958,44.346
		c30.775,0,34.652-18.66,34.652-44.346V67.395h18.902v113.409C341.801,217.88,327.019,237.267,287.52,237.267z"/>
</g>
<g>
	<path d="M478.855,162.629h-19.87v74.637h-18.903V70.061h38.773c31.018,0,53.071,11.631,53.071,46.285
		C531.926,149.787,509.632,162.629,478.855,162.629z M474.736,85.812h-15.75v61.067h20.355c20.598,0,33.684-8.482,33.684-30.292
		C513.025,90.658,496.789,85.812,474.736,85.812z"/>
</g>
<g>
	<path d="M635.857,237.267V70.061h80.937v15.751h-62.035v55.978h59.128v15.751h-59.128v63.974h64.216v15.751H635.857z"/>
</g>
<path fill="#FFFFFF" d="M906.541,237.267l-8.239-38.53c-4.846-23.021-9.451-35.864-35.864-35.864h-17.449v74.394h-18.9V70.061
	h41.438c27.383,0,53.312,10.42,53.312,42.165c0,24.233-11.39,36.349-33.925,41.922v0.485c22.052,5.815,24.716,16.962,28.835,36.834
	l9.693,45.799H906.541z M859.044,85.812h-14.055v61.309h10.42c22.778,0,46.526-5.088,46.526-32.958
	C901.936,86.54,880.611,85.812,859.044,85.812z"/>
<path fill="#FFFFFF" d="M1086.349,237.267l-8.239-38.53c-4.846-23.021-9.45-35.864-35.865-35.864h-17.447v74.394h-18.901V70.061
	h41.438c27.383,0,53.312,10.42,53.312,42.165c0,24.233-11.391,36.349-33.926,41.922v0.485c22.052,5.815,24.716,16.962,28.837,36.834
	l9.693,45.799H1086.349z M1038.853,85.812h-14.056v61.309h10.42c22.779,0,46.527-5.088,46.527-32.958
	C1081.744,86.54,1060.42,85.812,1038.853,85.812z"/>
<path fill="#FFFFFF" d="M1262.037,237.267l-8.239-38.53c-4.845-23.021-9.45-35.864-35.863-35.864h-17.448v74.394h-18.9V70.061
	h41.438c27.383,0,53.312,10.42,53.312,42.165c0,24.233-11.391,36.349-33.927,41.922v0.485c22.052,5.815,24.717,16.962,28.836,36.834
	l9.693,45.799H1262.037z M1214.541,85.812h-14.055v61.309h10.42c22.778,0,46.527-5.088,46.527-32.958
	C1257.434,86.54,1236.109,85.812,1214.541,85.812z"/>
<rect x="0.357" y="300.87" fill="#FFFFFF" width="1326.366" height="76.314"/>
<g>
	<path d="M557.935,343.133c-0.174-4.35,2.175-6.567,5.176-6.567c1.827,0,3.219,0.565,6.133,1.957
		c2.218,1.045,3.828,1.827,5.437,1.827c1.566,0,2.305-1.261,2.349-3.653h2.61c0.218,4.871-2.305,6.568-5.002,6.568
		c-1.739,0-3.306-0.521-6.307-1.913c-2.044-1.002-3.654-1.916-5.22-1.916c-1.565,0-2.522,1.089-2.609,3.697H557.935z"/>
	<path d="M609.735,339.394c-0.217-4.089-0.478-9.004-0.434-12.658h-0.131c-1,3.436-2.218,7.091-3.697,11.135l-5.175,14.224h-2.871
		l-4.742-13.963c-1.392-4.131-2.566-7.915-3.393-11.396h-0.087c-0.087,3.654-0.305,8.569-0.566,12.961l-0.783,12.572h-3.61
		l2.044-29.317h4.827l5.003,14.18c1.217,3.61,2.218,6.83,2.958,9.875h0.13c0.739-2.958,1.784-6.177,3.089-9.875l5.219-14.18h4.828
		l1.828,29.317h-3.698L609.735,339.394z"/>
	<path d="M622.256,342.438c0.087,5.176,3.393,7.308,7.22,7.308c2.741,0,4.393-0.479,5.829-1.087l0.652,2.739
		c-1.349,0.61-3.653,1.305-7.003,1.305c-6.481,0-10.353-4.263-10.353-10.612c0-6.351,3.742-11.353,9.875-11.353
		c6.872,0,8.699,6.046,8.699,9.917c0,0.783-0.087,1.392-0.13,1.783H622.256z M633.478,339.697c0.043-2.434-1.001-6.218-5.307-6.218
		c-3.871,0-5.568,3.565-5.872,6.218H633.478z M634.391,322.125l-5.307,6.22h-2.74l3.828-6.22H634.391z"/>
	<path d="M643.565,331.216l3.002,4.523c0.783,1.174,1.436,2.262,2.132,3.436h0.13c0.696-1.261,1.393-2.349,2.088-3.479l2.958-4.48
		h4.132l-7.176,10.178l7.394,10.875h-4.35l-3.089-4.742c-0.826-1.218-1.521-2.392-2.262-3.654h-0.087
		c-0.696,1.263-1.435,2.394-2.218,3.654l-3.045,4.742h-4.219l7.48-10.744l-7.133-10.309H643.565z"/>
	<path d="M666.183,325.301c0.043,1.305-0.914,2.348-2.438,2.348c-1.348,0-2.305-1.043-2.305-2.348c0-1.35,1-2.394,2.393-2.394
		C665.269,322.908,666.183,323.952,666.183,325.301z M661.919,352.269v-21.052h3.828v21.052H661.919z"/>
	<path d="M687.103,351.485c-1,0.523-3.22,1.218-6.047,1.218c-6.351,0-10.482-4.305-10.482-10.743c0-6.48,4.438-11.178,11.31-11.178
		c2.262,0,4.263,0.564,5.306,1.087l-0.869,2.958c-0.914-0.521-2.349-1-4.437-1c-4.828,0-7.438,3.565-7.438,7.959
		c0,4.871,3.131,7.873,7.307,7.873c2.176,0,3.611-0.566,4.698-1.045L687.103,351.485z"/>
	<path d="M710.37,341.568c0,7.785-5.394,11.18-10.482,11.18c-5.698,0-10.092-4.176-10.092-10.831
		c0-7.048,4.611-11.179,10.439-11.179C706.281,330.738,710.37,335.131,710.37,341.568z M693.667,341.786
		c0,4.61,2.654,8.091,6.395,8.091c3.653,0,6.394-3.437,6.394-8.178c0-3.567-1.782-8.091-6.307-8.091
		C695.625,333.608,693.667,337.784,693.667,341.786z"/>
	<path d="M724.545,323.344c2.306-0.349,5.046-0.61,8.046-0.61c5.438,0,9.31,1.262,11.875,3.654
		c2.609,2.392,4.133,5.786,4.133,10.525c0,4.785-1.479,8.7-4.22,11.397c-2.74,2.739-7.264,4.218-12.962,4.218
		c-2.696,0-4.959-0.129-6.872-0.347V323.344z M728.329,349.267c0.957,0.173,2.35,0.218,3.828,0.218
		c8.09,0,12.483-4.523,12.483-12.44c0.044-6.915-3.872-11.309-11.874-11.309c-1.958,0-3.438,0.174-4.438,0.392V349.267z"/>
	<path d="M750.986,350.006c0-1.608,1.087-2.739,2.61-2.739c1.521,0,2.566,1.131,2.566,2.739c0,1.566-1.002,2.742-2.61,2.742
		C752.03,352.748,750.986,351.572,750.986,350.006z"/>
	<path d="M761.032,322.952h15.789v3.176h-12.005v9.743h11.091v3.131h-11.091v13.267h-3.784V322.952z"/>
	<path d="M776.95,350.006c0-1.608,1.088-2.739,2.61-2.739s2.566,1.131,2.566,2.739c0,1.566-1.001,2.742-2.61,2.742
		C777.995,352.748,776.95,351.572,776.95,350.006z"/>
	<path d="M785.822,343.133c-0.174-4.35,2.175-6.567,5.177-6.567c1.826,0,3.218,0.565,6.132,1.957
		c2.22,1.045,3.828,1.827,5.438,1.827c1.565,0,2.305-1.261,2.349-3.653h2.609c0.219,4.871-2.305,6.568-5.002,6.568
		c-1.739,0-3.306-0.521-6.307-1.913c-2.045-1.002-3.653-1.916-5.219-1.916c-1.566,0-2.523,1.089-2.61,3.697H785.822z"/>
</g>
</svg>
