<?xml version="1.0" encoding="utf-8"?>
<!-- Generator: Adobe Illustrator 16.0.0, SVG Export Plug-In . SVG Version: 6.00 Build 0)  -->
<!DOCTYPE svg PUBLIC "-//W3C//DTD SVG 1.1//EN" "http://www.w3.org/Graphics/SVG/1.1/DTD/svg11.dtd">
<svg version="1.1" id="Ebene_1" xmlns="http://www.w3.org/2000/svg" xmlns:xlink="http://www.w3.org/1999/xlink" x="0px" y="0px"
	 width="1326.724px" height="377.584px" viewBox="0 0 1326.724 377.584" enable-background="new 0 0 1326.724 377.584"
	 xml:space="preserve">
<rect x="1143.603" y="0.592" width="182.945" height="301.002"/>
<rect x="961.56" y="0.592" width="182.945" height="301.002"/>
<rect x="583.981" fill="#A8C686" width="194.661" height="301.002"/>
<rect x="778.615" y="0.592" width="184.278" height="301.002"/>
<rect x="389.32" fill="#F0F8EA" width="194.661" height="301.002"/>
<rect x="194.66" fill="#F0F66E" width="194.66" height="301.002"/>
<rect fill="#E4572E" width="194.66" height="301.002"/>
<g>
	<path d="M86.565,237.267c-13.084,0-25.928-2.181-38.529-5.089v-19.386c12.844,5.332,26.655,8.724,40.712,8.724
		c17.932,0,36.106-8.239,36.106-28.595c0-18.659-13.57-25.687-27.867-33.684l-14.782-8.239
		c-18.417-10.177-36.107-19.144-36.107-43.377c0-31.261,26.415-42.892,53.797-42.892c11.874,0,23.263,1.939,34.894,4.362v18.66
		c-11.146-4.605-24.475-7.271-36.591-7.271c-15.993,0-31.502,7.513-31.502,25.445c0,15.267,16.235,23.505,27.868,29.807
		l15.508,8.481c19.628,10.663,35.38,21.083,35.38,46.042C145.452,225.393,117.343,237.267,86.565,237.267z"/>
</g>
<g>
	<path d="M287.52,237.267c-36.834,0-51.13-22.538-51.13-56.462V67.395h18.9v109.774c0,23.99,3.878,44.346,32.958,44.346
		c30.775,0,34.652-18.66,34.652-44.346V67.395h18.902v113.409C341.801,217.88,327.019,237.267,287.52,237.267z"/>
</g>
<g>
	<path d="M478.855,162.629h-19.87v74.637h-18.903V70.061h38.773c31.018,0,53.071,11.631,53.071,46.285
		C531.926,149.787,509.632,162.629,478.855,162.629z M474.736,85.812h-15.75v61.067h20.355c20.598,0,33.684-8.482,33.684-30.292
		C513.025,90.658,496.789,85.812,474.736,85.812z"/>
</g>
<g>
	<path d="M635.857,237.267V70.061h80.937v15.751h-62.035v55.978h59.128v15.751h-59.128v63.974h64.216v15.751H635.857z"/>
</g>
<path fill="#FFFFFF" d="M906.541,237.267l-8.239-38.53c-4.846-23.021-9.451-35.864-35.864-35.864h-17.449v74.394h-18.9V70.061
	h41.438c27.383,0,53.312,10.42,53.312,42.165c0,24.233-11.39,36.349-33.925,41.922v0.485c22.052,5.815,24.716,16.962,28.835,36.834
	l9.693,45.799H906.541z M859.044,85.812h-14.055v61.309h10.42c22.778,0,46.526-5.088,46.526-32.958
	C901.936,86.54,880.611,85.812,859.044,85.812z"/>
<path fill="#FFFFFF" d="M1086.349,237.267l-8.239-38.53c-4.846-23.021-9.45-35.864-35.865-35.864h-17.447v74.394h-18.901V70.061
	h41.438c27.383,0,53.312,10.42,53.312,42.165c0,24.233-11.391,36.349-33.926,41.922v0.485c22.052,5.815,24.716,16.962,28.837,36.834
	l9.693,45.799H1086.349z M1038.853,85.812h-14.056v61.309h10.42c22.779,0,46.527-5.088,46.527-32.958
	C1081.744,86.54,1060.42,85.812,1038.853,85.812z"/>
<path fill="#FFFFFF" d="M1262.037,237.267l-8.239-38.53c-4.845-23.021-9.45-35.864-35.863-35.864h-17.448v74.394h-18.9V70.061
	h41.438c27.383,0,53.312,10.42,53.312,42.165c0,24.233-11.391,36.349-33.927,41.922v0.485c22.052,5.815,24.717,16.962,28.836,36.834
	l9.693,45.799H1262.037z M1214.541,85.812h-14.055v61.309h10.42c22.778,0,46.527-5.088,46.527-32.958
	C1257.434,86.54,1236.109,85.812,1214.541,85.812z"/>
<rect x="0.357" y="300.87" fill="#FFFFFF" width="1326.366" height="76.314"/>
<g>
	<path d="M382.252,344.063c-0.159-3.966,1.983-5.988,4.719-5.988c1.666,0,2.935,0.516,5.592,1.785
		c2.022,0.952,3.49,1.665,4.958,1.665c1.427,0,2.102-1.149,2.141-3.331h2.38c0.199,4.441-2.102,5.989-4.561,5.989
		c-1.585,0-3.014-0.476-5.75-1.745c-1.864-0.914-3.331-1.746-4.76-1.746c-1.427,0-2.299,0.992-2.378,3.37H382.252z"/>
	<path d="M406.479,348.188c1.546,0.951,3.808,1.745,6.187,1.745c3.529,0,5.592-1.864,5.592-4.561c0-2.498-1.428-3.927-5.036-5.313
		c-4.363-1.548-7.06-3.808-7.06-7.576c0-4.163,3.451-7.257,8.646-7.257c2.736,0,4.72,0.635,5.909,1.309l-0.952,2.814
		c-0.873-0.475-2.657-1.269-5.077-1.269c-3.648,0-5.036,2.183-5.036,4.006c0,2.498,1.626,3.729,5.313,5.156
		c4.521,1.744,6.822,3.927,6.822,7.852c0,4.124-3.054,7.694-9.36,7.694c-2.578,0-5.394-0.753-6.821-1.706L406.479,348.188z"/>
	<path d="M431.581,328.596h-8.13v-2.935h19.79v2.935h-8.169v23.796h-3.49V328.596z"/>
	<path d="M467.985,338.749c0,9.202-5.592,14.079-12.414,14.079c-7.059,0-12.016-5.472-12.016-13.563
		c0-8.487,5.275-14.039,12.413-14.039C463.265,325.226,467.985,330.817,467.985,338.749z M447.243,339.186
		c0,5.712,3.094,10.827,8.527,10.827c5.472,0,8.565-5.036,8.565-11.105c0-5.314-2.775-10.865-8.526-10.865
		C450.1,328.042,447.243,333.316,447.243,339.186z"/>
	<path d="M491.141,351.519c-1.269,0.636-3.807,1.27-7.059,1.27c-7.535,0-13.207-4.758-13.207-13.524
		c0-8.368,5.672-14.039,13.96-14.039c3.331,0,5.433,0.714,6.345,1.19l-0.833,2.816c-1.309-0.636-3.172-1.11-5.394-1.11
		c-6.265,0-10.43,4.006-10.43,11.025c0,6.542,3.768,10.748,10.271,10.748c2.102,0,4.243-0.437,5.631-1.111L491.141,351.519z"/>
	<path d="M495.461,325.662h3.45v12.891h0.119c0.714-1.032,1.428-1.983,2.102-2.857l8.17-10.034h4.283l-9.676,11.343l10.431,15.388
		h-4.085l-8.805-13.127l-2.538,2.935v10.193h-3.45V325.662z"/>
	<path d="M520.402,325.662v11.185h12.929v-11.185h3.49v26.73h-3.49V339.86h-12.929v12.532h-3.45v-26.73H520.402z"/>
	<path d="M565.649,338.749c0,9.202-5.592,14.079-12.414,14.079c-7.059,0-12.017-5.472-12.017-13.563
		c0-8.487,5.276-14.039,12.414-14.039C560.929,325.226,565.649,330.817,565.649,338.749z M544.907,339.186
		c0,5.712,3.093,10.827,8.526,10.827c5.473,0,8.566-5.036,8.566-11.105c0-5.314-2.775-10.865-8.526-10.865
		C547.763,328.042,544.907,333.316,544.907,339.186z"/>
	<path d="M570.126,325.662h3.45v23.835h11.422v2.896h-14.872V325.662z"/>
	<path d="M611.367,340.654c-0.198-3.728-0.436-8.209-0.396-11.542h-0.12c-0.912,3.134-2.022,6.466-3.371,10.153l-4.719,12.969
		h-2.618l-4.323-12.731c-1.27-3.767-2.34-7.217-3.094-10.391h-0.079c-0.079,3.333-0.278,7.814-0.516,11.818l-0.714,11.462h-3.292
		l1.865-26.73h4.402l4.56,12.929c1.11,3.292,2.022,6.228,2.697,9.004h0.119c0.674-2.697,1.626-5.633,2.816-9.004l4.758-12.929h4.403
		l1.666,26.73h-3.372L611.367,340.654z"/>
	<path d="M632.578,325.662v26.73h-3.45v-26.73H632.578z"/>
	<path d="M638.604,352.392v-26.73h3.768l8.565,13.524c1.982,3.133,3.53,5.95,4.8,8.684l0.079-0.038
		c-0.318-3.569-0.397-6.821-0.397-10.985v-11.185h3.251v26.73h-3.489l-8.488-13.564c-1.863-2.975-3.648-6.027-4.996-8.922
		l-0.12,0.039c0.199,3.371,0.278,6.583,0.278,11.025v11.422H638.604z"/>
	<path d="M669.771,328.596h-8.129v-2.935h19.79v2.935h-8.17v23.796h-3.49V328.596z"/>
	<path d="M698.244,339.86h-10.392v9.637h11.582v2.896h-15.032v-26.73h14.438v2.896h-10.987v8.446h10.392V339.86z"/>
	<path d="M703.912,326.02c1.745-0.358,4.242-0.557,6.622-0.557c3.689,0,6.069,0.674,7.734,2.183
		c1.348,1.188,2.102,3.014,2.102,5.076c0,3.529-2.221,5.868-5.036,6.82v0.119c2.062,0.714,3.292,2.619,3.927,5.395
		c0.871,3.728,1.507,6.305,2.061,7.336h-3.567c-0.437-0.753-1.032-3.054-1.785-6.386c-0.793-3.688-2.221-5.076-5.354-5.194h-3.253
		v11.58h-3.45V326.02z M707.361,338.194h3.531c3.688,0,6.027-2.022,6.027-5.076c0-3.45-2.499-4.959-6.146-4.997
		c-1.666,0-2.855,0.158-3.412,0.316V338.194z"/>
	<path d="M725.245,352.392v-26.73h3.767l8.567,13.524c1.984,3.133,3.529,5.95,4.8,8.684l0.077-0.038
		c-0.316-3.569-0.396-6.821-0.396-10.985v-11.185h3.251v26.73h-3.489l-8.487-13.564c-1.862-2.975-3.647-6.027-4.995-8.922
		l-0.119,0.039c0.197,3.371,0.277,6.583,0.277,11.025v11.422H725.245z"/>
	<path d="M765.176,339.86h-10.39v9.637h11.58v2.896h-15.03v-26.73h14.436v2.896h-10.985v8.446h10.39V339.86z"/>
	<path d="M776.554,328.596h-8.128v-2.935h19.788v2.935h-8.169v23.796h-3.49V328.596z"/>
	<path d="M799.591,325.662h14.396v2.896h-10.946v8.883h10.114v2.855h-10.114v12.096h-3.45V325.662z"/>
	<path d="M841.747,338.749c0,9.202-5.594,14.079-12.415,14.079c-7.06,0-12.017-5.472-12.017-13.563
		c0-8.487,5.275-14.039,12.413-14.039C837.026,325.226,841.747,330.817,841.747,338.749z M821.005,339.186
		c0,5.712,3.093,10.827,8.526,10.827c5.472,0,8.565-5.036,8.565-11.105c0-5.314-2.774-10.865-8.526-10.865
		C823.86,328.042,821.005,333.316,821.005,339.186z"/>
	<path d="M846.223,326.02c1.744-0.358,4.244-0.557,6.623-0.557c3.688,0,6.067,0.674,7.732,2.183
		c1.349,1.188,2.104,3.014,2.104,5.076c0,3.529-2.221,5.868-5.038,6.82v0.119c2.063,0.714,3.291,2.619,3.925,5.395
		c0.873,3.728,1.507,6.305,2.063,7.336h-3.569c-0.437-0.753-1.032-3.054-1.785-6.386c-0.792-3.688-2.221-5.076-5.354-5.194h-3.251
		v11.58h-3.45V326.02z M849.673,338.194h3.529c3.689,0,6.028-2.022,6.028-5.076c0-3.45-2.498-4.959-6.147-4.997
		c-1.666,0-2.856,0.158-3.411,0.316V338.194z"/>
	<path d="M871.006,325.662v15.824c0,5.988,2.656,8.527,6.226,8.527c3.967,0,6.506-2.618,6.506-8.527v-15.824h3.488v15.586
		c0,8.21-4.323,11.58-10.112,11.58c-5.473,0-9.598-3.133-9.598-11.421v-15.745H871.006z"/>
	<path d="M915.737,340.654c-0.198-3.728-0.437-8.209-0.396-11.542h-0.119c-0.912,3.134-2.023,6.466-3.371,10.153l-4.719,12.969
		h-2.618l-4.323-12.731c-1.269-3.767-2.341-7.217-3.094-10.391h-0.078c-0.081,3.333-0.278,7.814-0.517,11.818l-0.713,11.462h-3.292
		l1.864-26.73h4.402l4.561,12.929c1.109,3.292,2.022,6.228,2.697,9.004h0.119c0.672-2.697,1.626-5.633,2.816-9.004l4.758-12.929
		h4.402l1.665,26.73h-3.371L915.737,340.654z"/>
	<path d="M924.021,344.063c-0.158-3.966,1.982-5.988,4.719-5.988c1.667,0,2.934,0.516,5.592,1.785
		c2.023,0.952,3.49,1.665,4.957,1.665c1.429,0,2.102-1.149,2.142-3.331h2.38c0.199,4.441-2.102,5.989-4.561,5.989
		c-1.586,0-3.014-0.476-5.75-1.745c-1.864-0.914-3.332-1.746-4.759-1.746c-1.428,0-2.301,0.992-2.378,3.37H924.021z"/>
</g>
</svg>
