<?xml version="1.0" encoding="utf-8"?>
<!-- Generator: Adobe Illustrator 16.0.0, SVG Export Plug-In . SVG Version: 6.00 Build 0)  -->
<!DOCTYPE svg PUBLIC "-//W3C//DTD SVG 1.1//EN" "http://www.w3.org/Graphics/SVG/1.1/DTD/svg11.dtd">
<svg version="1.1" id="Ebene_1" xmlns="http://www.w3.org/2000/svg" xmlns:xlink="http://www.w3.org/1999/xlink" x="0px" y="0px"
	 width="1326.724px" height="377.584px" viewBox="0 0 1326.724 377.584" enable-background="new 0 0 1326.724 377.584"
	 xml:space="preserve">
<rect x="1143.603" y="0.592" width="182.945" height="301.002"/>
<rect x="961.56" y="0.592" width="182.945" height="301.002"/>
<rect x="778.615" y="0.592" width="184.278" height="301.002"/>
<rect x="0.357" y="300.87" fill="#FFFFFF" width="1326.366" height="76.314"/>
<rect x="583.981" fill="#0BC581" width="194.661" height="301.002"/>
<rect x="389.32" fill="#FFD207" width="194.661" height="301.002"/>
<rect x="194.66" fill="#4A72C3" width="194.66" height="301.002"/>
<rect fill="#FD8B2E" width="194.66" height="301.002"/>
<g>
	<path d="M86.565,237.267c-13.084,0-25.928-2.181-38.529-5.089v-19.386c12.844,5.332,26.655,8.724,40.712,8.724
		c17.932,0,36.106-8.239,36.106-28.595c0-18.659-13.57-25.687-27.867-33.684l-14.782-8.239
		c-18.417-10.177-36.107-19.144-36.107-43.377c0-31.261,26.415-42.892,53.797-42.892c11.874,0,23.263,1.939,34.894,4.362v18.66
		c-11.146-4.605-24.475-7.271-36.591-7.271c-15.993,0-31.502,7.513-31.502,25.445c0,15.267,16.235,23.505,27.868,29.807
		l15.508,8.481c19.628,10.663,35.38,21.083,35.38,46.042C145.452,225.393,117.343,237.267,86.565,237.267z"/>
</g>
<g>
	<path d="M287.52,237.267c-36.834,0-51.13-22.538-51.13-56.462V67.395h18.9v109.774c0,23.99,3.878,44.346,32.958,44.346
		c30.775,0,34.652-18.66,34.652-44.346V67.395h18.902v113.409C341.801,217.88,327.019,237.267,287.52,237.267z"/>
</g>
<g>
	<path d="M478.855,162.629h-19.87v74.637h-18.903V70.061h38.773c31.018,0,53.071,11.631,53.071,46.285
		C531.926,149.787,509.632,162.629,478.855,162.629z M474.736,85.812h-15.75v61.067h20.355c20.598,0,33.684-8.482,33.684-30.292
		C513.025,90.658,496.789,85.812,474.736,85.812z"/>
</g>
<g>
	<path d="M635.857,237.267V70.061h80.937v15.751h-62.035v55.978h59.128v15.751h-59.128v63.974h64.216v15.751H635.857z"/>
</g>
<path fill="#FFFFFF" d="M906.541,237.267l-8.239-38.53c-4.846-23.021-9.451-35.864-35.864-35.864h-17.449v74.394h-18.9V70.061
	h41.438c27.383,0,53.312,10.42,53.312,42.165c0,24.233-11.39,36.349-33.925,41.922v0.485c22.052,5.815,24.716,16.962,28.835,36.834
	l9.693,45.799H906.541z M859.044,85.812h-14.055v61.309h10.42c22.778,0,46.526-5.088,46.526-32.958
	C901.936,86.54,880.611,85.812,859.044,85.812z"/>
<path fill="#FFFFFF" d="M1086.349,237.267l-8.239-38.53c-4.846-23.021-9.45-35.864-35.865-35.864h-17.447v74.394h-18.901V70.061
	h41.438c27.383,0,53.312,10.42,53.312,42.165c0,24.233-11.391,36.349-33.926,41.922v0.485c22.052,5.815,24.716,16.962,28.837,36.834
	l9.693,45.799H1086.349z M1038.853,85.812h-14.056v61.309h10.42c22.779,0,46.527-5.088,46.527-32.958
	C1081.744,86.54,1060.42,85.812,1038.853,85.812z"/>
<path fill="#FFFFFF" d="M1262.037,237.267l-8.239-38.53c-4.845-23.021-9.45-35.864-35.863-35.864h-17.448v74.394h-18.9V70.061
	h41.438c27.383,0,53.312,10.42,53.312,42.165c0,24.233-11.391,36.349-33.927,41.922v0.485c22.052,5.815,24.717,16.962,28.836,36.834
	l9.693,45.799H1262.037z M1214.541,85.812h-14.055v61.309h10.42c22.778,0,46.527-5.088,46.527-32.958
	C1257.434,86.54,1236.109,85.812,1214.541,85.812z"/>
<g>
	<path d="M456.188,350.692l-6.839-26.955h3.679l3.199,13.638c0.8,3.359,1.52,6.719,2,9.318h0.08c0.44-2.68,1.28-5.879,2.199-9.358
		l3.6-13.598h3.639l3.28,13.678c0.76,3.199,1.479,6.398,1.879,9.238h0.08c0.56-2.96,1.32-5.959,2.16-9.318l3.56-13.598h3.559
		l-7.639,26.955h-3.639l-3.399-14.038c-0.84-3.439-1.4-6.078-1.76-8.798h-0.08c-0.48,2.68-1.08,5.319-2.08,8.798l-3.839,14.038
		H456.188z"/>
	<path d="M499.586,338.054h-10.478v9.718h11.678v2.92h-15.157v-26.955h14.558v2.919h-11.078v8.519h10.478V338.054z"/>
	<path d="M505.309,324.096c2.12-0.319,4.639-0.56,7.399-0.56c4.999,0,8.558,1.159,10.918,3.359c2.399,2.199,3.799,5.319,3.799,9.679
		c0,4.398-1.36,7.998-3.879,10.478c-2.52,2.52-6.679,3.88-11.918,3.88c-2.479,0-4.559-0.12-6.319-0.32V324.096z M508.788,347.932
		c0.88,0.16,2.16,0.2,3.519,0.2c7.439,0,11.479-4.159,11.479-11.438c0.04-6.358-3.56-10.397-10.918-10.397
		c-1.8,0-3.159,0.159-4.079,0.359V347.932z"/>
	<path d="M531.948,350.692v-26.955h3.799l8.639,13.638c2,3.159,3.559,5.999,4.839,8.758l0.08-0.04c-0.32-3.599-0.4-6.879-0.4-11.078
		v-11.277h3.279v26.955h-3.519l-8.559-13.678c-1.88-2.999-3.68-6.079-5.039-8.998l-0.12,0.04c0.2,3.399,0.28,6.639,0.28,11.117
		v11.519H531.948z"/>
	<path d="M572.225,338.054h-10.478v9.718h11.678v2.92h-15.157v-26.955h14.558v2.919h-11.078v8.519h10.478V338.054z"/>
	<path d="M577.467,346.453c1.56,0.96,3.839,1.76,6.239,1.76c3.56,0,5.639-1.88,5.639-4.6c0-2.52-1.439-3.959-5.079-5.358
		c-4.399-1.561-7.119-3.84-7.119-7.639c0-4.2,3.479-7.319,8.718-7.319c2.76,0,4.759,0.64,5.959,1.32l-0.959,2.839
		c-0.88-0.479-2.68-1.279-5.119-1.279c-3.68,0-5.08,2.199-5.08,4.039c0,2.52,1.64,3.76,5.359,5.199
		c4.559,1.76,6.879,3.959,6.879,7.919c0,4.159-3.08,7.759-9.438,7.759c-2.6,0-5.439-0.761-6.879-1.72L577.467,346.453z"/>
	<path d="M597.667,324.096c2.12-0.319,4.639-0.56,7.399-0.56c4.999,0,8.558,1.159,10.918,3.359c2.399,2.199,3.799,5.319,3.799,9.679
		c0,4.398-1.36,7.998-3.879,10.478c-2.52,2.52-6.679,3.88-11.918,3.88c-2.479,0-4.559-0.12-6.319-0.32V324.096z M601.146,347.932
		c0.88,0.16,2.16,0.2,3.519,0.2c7.439,0,11.479-4.159,11.479-11.438c0.04-6.358-3.56-10.397-10.918-10.397
		c-1.8,0-3.159,0.159-4.079,0.359V347.932z"/>
	<path d="M628.106,342.213l-2.8,8.479h-3.599l9.158-26.955h4.199l9.199,26.955h-3.719l-2.88-8.479H628.106z M636.944,339.494
		l-2.64-7.759c-0.6-1.76-1-3.359-1.4-4.919h-0.08c-0.4,1.6-0.84,3.239-1.36,4.879l-2.64,7.799H636.944z"/>
	<path d="M651.066,350.692v-11.438l-8.519-15.517h3.959l3.799,7.438c1.04,2.039,1.839,3.68,2.679,5.559h0.08
		c0.76-1.76,1.68-3.52,2.72-5.559l3.879-7.438h3.959l-9.038,15.477v11.479H651.066z"/>
	<path d="M690.942,339.333v2.4h-17.597v-2.4H690.942z"/>
	<path d="M726.381,338.854c-0.2-3.76-0.44-8.278-0.4-11.638h-0.12c-0.92,3.159-2.04,6.519-3.399,10.238l-4.759,13.077h-2.64
		l-4.359-12.838c-1.28-3.799-2.359-7.278-3.119-10.478h-0.08c-0.08,3.359-0.28,7.878-0.52,11.918l-0.72,11.558h-3.319l1.879-26.955
		h4.439l4.599,13.037c1.12,3.319,2.04,6.279,2.72,9.079h0.12c0.68-2.72,1.64-5.68,2.84-9.079l4.799-13.037h4.439l1.68,26.955h-3.399
		L726.381,338.854z"/>
	<path d="M749.781,338.054h-10.478v9.718h11.678v2.92h-15.157v-26.955h14.558v2.919h-11.078v8.519h10.478V338.054z"/>
	<path d="M770.261,350.692l-3.439-5.959c-1.399-2.279-2.279-3.76-3.119-5.319h-0.08c-0.76,1.56-1.52,3-2.919,5.359l-3.24,5.919
		h-3.999l8.238-13.638l-7.918-13.317h4.039l3.56,6.318c1,1.76,1.76,3.12,2.479,4.56h0.12c0.76-1.6,1.44-2.84,2.439-4.56l3.68-6.318
		h3.999l-8.199,13.117l8.399,13.838H770.261z"/>
	<path d="M781.823,323.737v26.955h-3.479v-26.955H781.823z"/>
	<path d="M806.741,349.812c-1.28,0.64-3.839,1.28-7.119,1.28c-7.599,0-13.317-4.8-13.317-13.638c0-8.439,5.719-14.158,14.078-14.158
		c3.359,0,5.479,0.72,6.399,1.2l-0.84,2.839c-1.32-0.64-3.2-1.119-5.439-1.119c-6.319,0-10.518,4.039-10.518,11.118
		c0,6.599,3.799,10.838,10.358,10.838c2.12,0,4.279-0.44,5.679-1.12L806.741,349.812z"/>
	<path d="M833.299,336.934c0,9.278-5.639,14.197-12.518,14.197c-7.119,0-12.118-5.519-12.118-13.677
		c0-8.559,5.319-14.158,12.518-14.158C828.54,323.296,833.299,328.935,833.299,336.934z M812.383,337.375
		c0,5.759,3.12,10.918,8.599,10.918c5.519,0,8.639-5.079,8.639-11.198c0-5.359-2.8-10.958-8.599-10.958
		C815.262,326.136,812.383,331.456,812.383,337.375z"/>
	<path d="M846.302,324.096c2.12-0.319,4.639-0.56,7.399-0.56c4.999,0,8.558,1.159,10.918,3.359c2.399,2.199,3.799,5.319,3.799,9.679
		c0,4.398-1.36,7.998-3.879,10.478c-2.52,2.52-6.679,3.88-11.918,3.88c-2.479,0-4.559-0.12-6.319-0.32V324.096z M849.782,347.932
		c0.88,0.16,2.16,0.2,3.519,0.2c7.439,0,11.479-4.159,11.479-11.438c0.04-6.358-3.56-10.397-10.918-10.397
		c-1.8,0-3.159,0.159-4.079,0.359V347.932z"/>
	<path d="M870.623,348.612c0-1.479,1-2.52,2.4-2.52c1.399,0,2.359,1.04,2.359,2.52c0,1.44-0.92,2.52-2.399,2.52
		C871.583,351.131,870.623,350.052,870.623,348.612z"/>
	<path d="M879.862,323.737h14.518v2.919h-11.038v8.959h10.198v2.879h-10.198v12.198h-3.479V323.737z"/>
	<path d="M894.502,348.612c0-1.479,1-2.52,2.4-2.52c1.399,0,2.359,1.04,2.359,2.52c0,1.44-0.92,2.52-2.399,2.52
		C895.462,351.131,894.502,350.052,894.502,348.612z"/>
</g>
</svg>
