<?xml version="1.0" encoding="utf-8"?>
<!-- Generator: Adobe Illustrator 16.0.0, SVG Export Plug-In . SVG Version: 6.00 Build 0)  -->
<!DOCTYPE svg PUBLIC "-//W3C//DTD SVG 1.1//EN" "http://www.w3.org/Graphics/SVG/1.1/DTD/svg11.dtd">
<svg version="1.1" id="Ebene_1" xmlns="http://www.w3.org/2000/svg" xmlns:xlink="http://www.w3.org/1999/xlink" x="0px" y="0px"
	 width="1326.723px" height="377.584px" viewBox="0 0 1326.723 377.584" enable-background="new 0 0 1326.723 377.584"
	 xml:space="preserve">
<rect x="1143.604" y="0.592" width="182.943" height="301.002"/>
<rect x="961.559" y="0.592" width="182.945" height="301.002"/>
<rect x="583.981" fill="#FF1654" width="194.659" height="301.002"/>
<rect x="778.616" y="0.592" width="184.276" height="301.002"/>
<rect x="389.32" fill="#F3FFBD" width="194.663" height="301.002"/>
<rect x="194.66" fill="#B2DBBF" width="194.66" height="301.002"/>
<rect fill="#247BA0" width="194.66" height="301.002"/>
<g>
	<path d="M86.565,237.267c-13.084,0-25.928-2.181-38.529-5.089v-19.386c12.844,5.332,26.655,8.725,40.712,8.725
		c17.932,0,36.106-8.24,36.106-28.596c0-18.659-13.57-25.687-27.867-33.684l-14.782-8.239
		c-18.417-10.177-36.107-19.144-36.107-43.377c0-31.261,26.415-42.892,53.797-42.892c11.874,0,23.263,1.939,34.894,4.362v18.66
		c-11.146-4.605-24.475-7.271-36.591-7.271c-15.993,0-31.502,7.513-31.502,25.445c0,15.267,16.235,23.505,27.868,29.807
		l15.508,8.481c19.628,10.663,35.38,21.083,35.38,46.042C145.452,225.394,117.343,237.267,86.565,237.267z"/>
</g>
<g>
	<path d="M287.52,237.267c-36.834,0-51.13-22.537-51.13-56.46V67.395h18.9v109.774c0,23.99,3.878,44.346,32.958,44.346
		c30.775,0,34.652-18.66,34.652-44.346V67.395h18.902v113.409C341.801,217.88,327.019,237.267,287.52,237.267z"/>
</g>
<g>
	<path d="M478.855,162.629h-19.87v74.638h-18.903V70.061h38.773c31.018,0,53.069,11.631,53.069,46.285
		C531.926,149.787,509.632,162.629,478.855,162.629z M474.736,85.812h-15.75v61.067h20.354c20.6,0,33.686-8.482,33.686-30.292
		C513.025,90.658,496.789,85.812,474.736,85.812z"/>
</g>
<g>
	<path d="M635.857,237.267V70.061h80.936v15.751h-62.035v55.978h59.128v15.751h-59.128v63.974h64.216v15.752H635.857
		L635.857,237.267z"/>
</g>
<path fill="#FFFFFF" d="M906.542,237.267l-8.24-38.529c-4.846-23.021-9.451-35.863-35.862-35.863H844.99v74.395h-18.9V70.061h41.439
	c27.383,0,53.311,10.42,53.311,42.165c0,24.233-11.389,36.349-33.924,41.922v0.485c22.051,5.815,24.715,16.962,28.834,36.834
	l9.693,45.8H906.542L906.542,237.267z M859.043,85.812h-14.055v61.309h10.42c22.779,0,46.524-5.088,46.524-32.958
	C901.936,86.54,880.612,85.812,859.043,85.812z"/>
<path fill="#FFFFFF" d="M1086.348,237.267l-8.237-38.529c-4.847-23.021-9.449-35.863-35.865-35.863h-17.447v74.395h-18.899V70.061
	h41.438c27.383,0,53.312,10.42,53.312,42.165c0,24.233-11.392,36.349-33.927,41.922v0.485c22.054,5.815,24.715,16.962,28.836,36.834
	l9.693,45.8H1086.348L1086.348,237.267z M1038.854,85.812h-14.057v61.309h10.42c22.779,0,46.527-5.088,46.527-32.958
	C1081.745,86.54,1060.42,85.812,1038.854,85.812z"/>
<path fill="#FFFFFF" d="M1262.038,237.267l-8.24-38.529c-4.844-23.021-9.449-35.863-35.863-35.863h-17.446v74.395h-18.9V70.061
	h41.439c27.383,0,53.311,10.42,53.311,42.165c0,24.233-11.391,36.349-33.926,41.922v0.485c22.051,5.815,24.717,16.962,28.836,36.834
	l9.693,45.8H1262.038L1262.038,237.267z M1214.542,85.812h-14.055v61.309h10.42c22.776,0,46.524-5.088,46.524-32.958
	C1257.434,86.54,1236.11,85.812,1214.542,85.812z"/>
<rect x="0.357" y="300.87" fill="#FFFFFF" width="1326.366" height="76.312"/>
<rect x="409.761" y="323.491" fill="none" width="469.683" height="60.41"/>
<g enable-background="new    ">
	<path d="M418.331,328.106h-8.611v-3.109h20.962v3.109h-8.654v25.204h-3.697V328.106z"/>
	<path d="M437.482,324.997v16.762c0,6.343,2.814,9.031,6.595,9.031c4.201,0,6.889-2.772,6.889-9.031v-16.762h3.697v16.51
		c0,8.695-4.579,12.266-10.712,12.266c-5.797,0-10.166-3.318-10.166-12.098v-16.678H437.482z"/>
	<path d="M475.662,340.036h-11.006v10.208h12.266v3.066h-15.921v-28.313h15.291v3.067h-11.636v8.947h11.006V340.036z"/>
	<path d="M481.161,348.857c1.638,1.009,4.033,1.849,6.553,1.849c3.739,0,5.923-1.975,5.923-4.831c0-2.646-1.512-4.158-5.335-5.629
		c-4.621-1.638-7.477-4.032-7.477-8.023c0-4.41,3.654-7.688,9.158-7.688c2.898,0,4.999,0.673,6.259,1.387l-1.008,2.982
		c-0.924-0.504-2.814-1.345-5.377-1.345c-3.864,0-5.335,2.311-5.335,4.243c0,2.646,1.723,3.948,5.629,5.461
		c4.789,1.849,7.225,4.159,7.225,8.317c0,4.369-3.234,8.149-9.914,8.149c-2.73,0-5.713-0.798-7.226-1.807L481.161,348.857z"/>
	<path d="M502.37,325.376c2.227-0.337,4.873-0.589,7.771-0.589c5.251,0,8.99,1.219,11.468,3.529
		c2.521,2.311,3.991,5.587,3.991,10.165c0,4.621-1.428,8.402-4.075,11.007c-2.646,2.646-7.016,4.074-12.519,4.074
		c-2.604,0-4.789-0.126-6.637-0.336V325.376z M506.025,350.412c0.924,0.168,2.269,0.21,3.697,0.21
		c7.813,0,12.056-4.369,12.056-12.014c0.042-6.68-3.739-10.923-11.468-10.923c-1.89,0-3.318,0.169-4.285,0.379V350.412z"/>
	<path d="M534.333,344.405l-2.94,8.905h-3.781l9.62-28.313h4.411l9.662,28.313h-3.907l-3.024-8.905H534.333z M543.617,341.549
		l-2.772-8.149c-0.63-1.849-1.05-3.529-1.47-5.167h-0.084c-0.42,1.68-0.882,3.402-1.428,5.125l-2.772,8.191H543.617z"/>
	<path d="M558.441,353.311v-12.014l-8.948-16.3h4.159l3.99,7.813c1.092,2.143,1.933,3.865,2.815,5.84h0.084
		c0.798-1.849,1.764-3.697,2.856-5.84l4.075-7.813h4.159l-9.494,16.258v12.056H558.441z"/>
	<path d="M600.316,341.381v2.52h-18.483v-2.52H600.316z"/>
	<path d="M613.668,325.376c1.597-0.337,4.117-0.589,6.679-0.589c3.655,0,6.007,0.631,7.771,2.059
		c1.47,1.093,2.353,2.772,2.353,4.999c0,2.73-1.806,5.125-4.789,6.217v0.084c2.688,0.673,5.839,2.898,5.839,7.1
		c0,2.437-0.966,4.285-2.395,5.671c-1.975,1.807-5.167,2.646-9.788,2.646c-2.521,0-4.453-0.168-5.671-0.336V325.376z
		 M617.323,336.97h3.319c3.864,0,6.133-2.017,6.133-4.747c0-3.318-2.521-4.621-6.217-4.621c-1.681,0-2.646,0.126-3.235,0.253V336.97
		z M617.323,350.538c0.714,0.126,1.764,0.168,3.066,0.168c3.781,0,7.268-1.386,7.268-5.503c0-3.864-3.319-5.461-7.31-5.461h-3.024
		V350.538z"/>
	<path d="M651.093,340.036h-11.006v10.208h12.266v3.066h-15.921v-28.313h15.291v3.067h-11.636v8.947h11.006V340.036z"/>
	<path d="M657.096,325.376c1.849-0.379,4.495-0.589,7.016-0.589c3.906,0,6.427,0.715,8.191,2.311
		c1.428,1.261,2.227,3.192,2.227,5.377c0,3.739-2.353,6.218-5.336,7.226v0.126c2.186,0.756,3.487,2.772,4.159,5.713
		c0.925,3.949,1.597,6.68,2.185,7.771h-3.781c-0.461-0.798-1.092-3.234-1.89-6.764c-0.841-3.906-2.353-5.377-5.671-5.503h-3.445
		v12.267h-3.655V325.376z M660.75,338.271h3.739c3.907,0,6.386-2.142,6.386-5.377c0-3.654-2.646-5.251-6.512-5.293
		c-1.765,0-3.024,0.168-3.613,0.337V338.271z"/>
	<path d="M679.691,324.997h3.655v25.247h12.099v3.066h-15.754V324.997z"/>
	<path d="M703.17,324.997v28.313h-3.654v-28.313H703.17z"/>
	<path d="M709.553,353.311v-28.313h3.991l9.073,14.325c2.102,3.318,3.739,6.301,5.084,9.199l0.084-0.042
		c-0.336-3.78-0.42-7.225-0.42-11.636v-11.847h3.443v28.313h-3.696l-8.989-14.366c-1.975-3.151-3.865-6.386-5.293-9.452
		l-0.126,0.042c0.21,3.57,0.294,6.974,0.294,11.679v12.098H709.553z"/>
	<path d="M746.807,353.311l1.092-8.233h-3.444v-2.479h3.823l0.798-6.091h-3.612v-2.479h3.99l1.092-8.023h2.438l-1.051,8.023h4.369
		l1.092-8.023h2.479l-1.051,8.023h3.445v2.479h-3.822l-0.757,6.091h3.612v2.479h-3.99l-1.092,8.233h-2.521l1.093-8.233h-4.368
		l-1.093,8.233H746.807z M755.166,342.599l0.799-6.091h-4.369l-0.799,6.091H755.166z"/>
	<path d="M766.84,339.322c0-2.395-0.042-4.453-0.168-6.344h3.234l0.127,3.991h0.168c0.924-2.73,3.15-4.453,5.629-4.453
		c0.42,0,0.713,0.042,1.05,0.126v3.487c-0.378-0.084-0.757-0.126-1.261-0.126c-2.604,0-4.453,1.974-4.957,4.746
		c-0.084,0.505-0.168,1.093-0.168,1.723v10.838h-3.654V339.322z"/>
	<path d="M780.742,339.616c0-2.604-0.084-4.705-0.168-6.638h3.318l0.168,3.487h0.084c1.512-2.479,3.906-3.949,7.225-3.949
		c4.916,0,8.612,4.159,8.612,10.334c0,7.31-4.453,10.922-9.241,10.922c-2.689,0-5.041-1.176-6.26-3.192h-0.084v11.048h-3.654
		V339.616z M784.396,345.035c0,0.546,0.084,1.05,0.168,1.512c0.672,2.562,2.898,4.327,5.545,4.327c3.906,0,6.176-3.192,6.176-7.855
		c0-4.074-2.143-7.562-6.05-7.562c-2.521,0-4.872,1.807-5.587,4.579c-0.126,0.462-0.252,1.008-0.252,1.513V345.035z"/>
	<path d="M808.463,328.106h-8.611v-3.109h20.961v3.109h-8.653v25.204h-3.696V328.106z"/>
	<path d="M838.619,340.036h-11.006v10.208h12.267v3.066h-15.921v-28.313h15.291v3.067h-11.637v8.947h11.006V340.036z"/>
	<path d="M844.623,353.311v-28.313h3.99l9.074,14.325c2.1,3.318,3.738,6.301,5.082,9.199l0.084-0.042
		c-0.336-3.78-0.42-7.225-0.42-11.636v-11.847h3.445v28.313h-3.697l-8.989-14.366c-1.975-3.151-3.864-6.386-5.293-9.452
		l-0.126,0.042c0.21,3.57,0.294,6.974,0.294,11.679v12.098H844.623z"/>
</g>
</svg>
