<?xml version="1.0" encoding="utf-8"?>
<!-- Generator: Adobe Illustrator 16.0.0, SVG Export Plug-In . SVG Version: 6.00 Build 0)  -->
<!DOCTYPE svg PUBLIC "-//W3C//DTD SVG 1.1//EN" "http://www.w3.org/Graphics/SVG/1.1/DTD/svg11.dtd">
<svg version="1.1" id="Ebene_1" xmlns="http://www.w3.org/2000/svg" xmlns:xlink="http://www.w3.org/1999/xlink" x="0px" y="0px"
	 width="1326.724px" height="377.584px" viewBox="0 0 1326.724 377.584" enable-background="new 0 0 1326.724 377.584"
	 xml:space="preserve">
<rect x="1144.603" y="-2.228" width="182.945" height="301.002"/>
<rect x="962.56" y="-2.228" width="182.945" height="301.002"/>
<rect x="584.981" y="-2.82" fill="#5057AF" width="194.661" height="301.002"/>
<rect x="779.615" y="-2.228" width="184.279" height="301.002"/>
<rect x="390.32" y="-2.82" fill="#45B964" width="194.661" height="301.002"/>
<rect x="195.66" y="-2.82" fill="#45B9B3" width="194.66" height="301.002"/>
<rect x="1" y="-2.82" fill="#B550BD" width="194.66" height="301.002"/>
<rect x="1.357" y="298.05" fill="#FFFFFF" width="1326.366" height="76.314"/>
<g>
	<path d="M87.565,234.447c-13.084,0-25.928-2.181-38.529-5.089v-19.386c12.844,5.332,26.655,8.724,40.712,8.724
		c17.932,0,36.106-8.239,36.106-28.595c0-18.659-13.57-25.687-27.867-33.684l-14.782-8.239
		C64.788,138,47.098,129.034,47.098,104.801c0-31.261,26.415-42.892,53.797-42.892c11.874,0,23.263,1.939,34.894,4.362v18.66
		c-11.146-4.605-24.475-7.271-36.591-7.271c-15.993,0-31.502,7.513-31.502,25.445c0,15.267,16.235,23.505,27.868,29.807
		l15.508,8.481c19.628,10.663,35.38,21.083,35.38,46.042C146.452,222.573,118.343,234.447,87.565,234.447z"/>
</g>
<g>
	<path d="M288.52,234.447c-36.834,0-51.13-22.538-51.13-56.462V64.575h18.9V174.35c0,23.99,3.878,44.346,32.958,44.346
		c30.775,0,34.652-18.66,34.652-44.346V64.575h18.902v113.409C342.801,215.061,328.019,234.447,288.52,234.447z"/>
</g>
<g>
	<path d="M479.855,159.81h-19.87v74.637h-18.903V67.241h38.773c31.018,0,53.071,11.631,53.071,46.285
		C532.926,146.967,510.632,159.81,479.855,159.81z M475.736,82.992h-15.75v61.067h20.355c20.598,0,33.684-8.482,33.684-30.292
		C514.025,87.838,497.789,82.992,475.736,82.992z"/>
</g>
<g>
	<path d="M636.857,234.447V67.241h80.937v15.751h-62.035v55.978h59.128v15.751h-59.128v63.974h64.216v15.751H636.857z"/>
</g>
<path fill="#FFFFFF" d="M907.54,234.447l-8.238-38.53c-4.847-23.021-9.451-35.864-35.864-35.864h-17.449v74.394h-18.9V67.241h41.438
	c27.383,0,53.312,10.42,53.312,42.165c0,24.233-11.39,36.349-33.925,41.922v0.485c22.051,5.815,24.716,16.962,28.835,36.834
	l9.692,45.799H907.54z M860.044,82.992h-14.055v61.309h10.42c22.778,0,46.526-5.088,46.526-32.958
	C902.936,83.72,881.611,82.992,860.044,82.992z"/>
<path fill="#FFFFFF" d="M1087.349,234.447l-8.239-38.53c-4.846-23.021-9.45-35.864-35.865-35.864h-17.447v74.394h-18.901V67.241
	h41.438c27.383,0,53.312,10.42,53.312,42.165c0,24.233-11.391,36.349-33.926,41.922v0.485c22.052,5.815,24.716,16.962,28.837,36.834
	l9.693,45.799H1087.349z M1039.853,82.992h-14.056v61.309h10.42c22.779,0,46.527-5.088,46.527-32.958
	C1082.744,83.72,1061.42,82.992,1039.853,82.992z"/>
<path fill="#FFFFFF" d="M1263.037,234.447l-8.239-38.53c-4.845-23.021-9.45-35.864-35.863-35.864h-17.448v74.394h-18.9V67.241
	h41.438c27.383,0,53.312,10.42,53.312,42.165c0,24.233-11.391,36.349-33.927,41.922v0.485c22.052,5.815,24.717,16.962,28.836,36.834
	l9.693,45.799H1263.037z M1215.541,82.992h-14.055v61.309h10.42c22.778,0,46.527-5.088,46.527-32.958
	C1258.434,83.72,1237.109,82.992,1215.541,82.992z"/>
<g>
	<path d="M476.897,340.788c-0.2-3.76-0.44-8.278-0.4-11.638h-0.12c-0.92,3.159-2.04,6.519-3.399,10.238l-4.759,13.077h-2.64
		l-4.359-12.838c-1.28-3.799-2.359-7.278-3.119-10.478h-0.08c-0.08,3.359-0.28,7.878-0.52,11.918l-0.72,11.558h-3.319l1.879-26.955
		h4.439l4.599,13.037c1.12,3.319,2.04,6.279,2.72,9.079h0.12c0.68-2.72,1.64-5.68,2.84-9.079l4.799-13.037h4.439l1.68,26.955h-3.399
		L476.897,340.788z"/>
	<path d="M509.376,338.868c0,9.278-5.639,14.197-12.518,14.197c-7.119,0-12.118-5.519-12.118-13.677
		c0-8.559,5.319-14.158,12.518-14.158C504.617,325.23,509.376,330.869,509.376,338.868z M488.46,339.308
		c0,5.759,3.12,10.918,8.599,10.918c5.519,0,8.639-5.079,8.639-11.198c0-5.359-2.8-10.958-8.599-10.958
		C491.339,328.07,488.46,333.389,488.46,339.308z"/>
	<path d="M513.9,352.625V325.67h3.799l8.639,13.638c2,3.159,3.559,5.999,4.839,8.758l0.08-0.04c-0.32-3.599-0.4-6.879-0.4-11.078
		V325.67h3.279v26.955h-3.519l-8.559-13.678c-1.88-2.999-3.68-6.079-5.039-8.998l-0.12,0.04c0.2,3.399,0.28,6.639,0.28,11.117
		v11.519H513.9z"/>
	<path d="M540.219,326.03c2.12-0.319,4.639-0.56,7.399-0.56c4.999,0,8.558,1.159,10.918,3.359c2.399,2.199,3.799,5.319,3.799,9.679
		c0,4.398-1.36,7.998-3.879,10.478c-2.52,2.52-6.679,3.88-11.918,3.88c-2.479,0-4.559-0.12-6.319-0.32V326.03z M543.699,349.866
		c0.88,0.16,2.16,0.2,3.519,0.2c7.439,0,11.479-4.159,11.479-11.438c0.04-6.358-3.56-10.397-10.918-10.397
		c-1.8,0-3.159,0.159-4.079,0.359V349.866z"/>
	<path d="M570.659,344.147l-2.8,8.479h-3.599l9.158-26.955h4.199l9.199,26.955h-3.719l-2.88-8.479H570.659z M579.497,341.427
		l-2.64-7.759c-0.6-1.76-1-3.359-1.4-4.919h-0.08c-0.4,1.6-0.84,3.239-1.36,4.879l-2.64,7.799H579.497z"/>
	<path d="M593.619,352.625v-11.438L585.1,325.67h3.959l3.799,7.438c1.04,2.039,1.839,3.68,2.679,5.559h0.08
		c0.76-1.76,1.68-3.52,2.72-5.559l3.879-7.438h3.959l-9.038,15.477v11.479H593.619z"/>
	<path d="M633.495,341.267v2.4h-17.597v-2.4H633.495z"/>
	<path d="M649.697,325.67v11.277h13.038V325.67h3.52v26.955h-3.52v-12.638h-13.038v12.638h-3.479V325.67H649.697z"/>
	<path d="M676.657,344.147l-2.8,8.479h-3.599l9.158-26.955h4.199l9.199,26.955h-3.719l-2.88-8.479H676.657z M685.495,341.427
		l-2.64-7.759c-0.6-1.76-1-3.359-1.4-4.919h-0.08c-0.4,1.6-0.84,3.239-1.36,4.879l-2.64,7.799H685.495z"/>
	<path d="M719.333,340.788c-0.2-3.76-0.44-8.278-0.4-11.638h-0.12c-0.92,3.159-2.04,6.519-3.399,10.238l-4.759,13.077h-2.64
		l-4.359-12.838c-1.28-3.799-2.359-7.278-3.119-10.478h-0.08c-0.08,3.359-0.28,7.878-0.52,11.918l-0.72,11.558h-3.319l1.879-26.955
		h4.439l4.599,13.037c1.12,3.319,2.04,6.279,2.72,9.079h0.12c0.68-2.72,1.64-5.68,2.84-9.079l4.799-13.037h4.439l1.68,26.955h-3.399
		L719.333,340.788z"/>
	<path d="M728.776,326.03c1.52-0.319,3.919-0.56,6.359-0.56c3.479,0,5.719,0.6,7.399,1.96c1.399,1.039,2.239,2.639,2.239,4.759
		c0,2.6-1.72,4.879-4.559,5.919v0.08c2.56,0.64,5.559,2.76,5.559,6.759c0,2.319-0.92,4.079-2.28,5.399
		c-1.879,1.72-4.919,2.52-9.318,2.52c-2.399,0-4.239-0.16-5.399-0.32V326.03z M732.256,337.068h3.159c3.68,0,5.839-1.92,5.839-4.519
		c0-3.16-2.4-4.399-5.919-4.399c-1.6,0-2.52,0.12-3.079,0.239V337.068z M732.256,349.986c0.68,0.12,1.68,0.16,2.919,0.16
		c3.599,0,6.919-1.32,6.919-5.239c0-3.68-3.16-5.199-6.959-5.199h-2.879V349.986z"/>
	<path d="M753.936,325.67v15.957c0,6.039,2.679,8.599,6.279,8.599c4,0,6.559-2.64,6.559-8.599V325.67h3.519v15.717
		c0,8.278-4.359,11.678-10.198,11.678c-5.519,0-9.678-3.159-9.678-11.518V325.67H753.936z"/>
	<path d="M776.335,326.03c1.76-0.359,4.279-0.56,6.679-0.56c3.719,0,6.119,0.68,7.799,2.199c1.36,1.2,2.12,3.04,2.12,5.119
		c0,3.56-2.24,5.919-5.079,6.879v0.12c2.08,0.72,3.319,2.64,3.959,5.439c0.88,3.759,1.52,6.358,2.08,7.398h-3.6
		c-0.44-0.76-1.04-3.079-1.8-6.438c-0.8-3.72-2.239-5.119-5.399-5.239h-3.279v11.678h-3.479V326.03z M779.815,338.308h3.559
		c3.72,0,6.079-2.04,6.079-5.119c0-3.479-2.52-4.999-6.199-5.039c-1.68,0-2.88,0.16-3.439,0.319V338.308z"/>
	<path d="M818.492,351.425c-1.56,0.561-4.639,1.48-8.279,1.48c-4.079,0-7.438-1.04-10.078-3.56c-2.32-2.24-3.759-5.839-3.759-10.038
		c0.04-8.039,5.559-13.918,14.597-13.918c3.12,0,5.559,0.68,6.719,1.239l-0.84,2.84c-1.44-0.64-3.24-1.159-5.959-1.159
		c-6.559,0-10.838,4.079-10.838,10.838c0,6.839,4.119,10.878,10.398,10.878c2.279,0,3.839-0.32,4.639-0.72v-8.039h-5.479v-2.799
		h8.878V351.425z"/>
	<path d="M832.974,352.625l1.04-7.839h-3.279v-2.359h3.639l0.76-5.799h-3.439v-2.359h3.799l1.04-7.64h2.32l-1,7.64h4.159l1.04-7.64
		h2.359l-1,7.64h3.28v2.359h-3.64l-0.72,5.799h3.439v2.359h-3.799l-1.04,7.839h-2.399l1.04-7.839h-4.159l-1.04,7.839H832.974z
		 M840.933,342.427l0.76-5.799h-4.159l-0.76,5.799H840.933z"/>
	<path d="M851.774,348.586c1,0.64,3.319,1.64,5.759,1.64c4.52,0,5.919-2.88,5.879-5.039c-0.04-3.64-3.32-5.199-6.719-5.199h-1.959
		v-2.64h1.959c2.56,0,5.799-1.32,5.799-4.399c0-2.08-1.32-3.919-4.56-3.919c-2.08,0-4.079,0.92-5.199,1.72l-0.92-2.56
		c1.36-1,3.999-2,6.799-2c5.119,0,7.438,3.039,7.438,6.199c0,2.68-1.6,4.959-4.799,6.119v0.079c3.199,0.641,5.799,3.04,5.799,6.68
		c0,4.159-3.239,7.798-9.479,7.798c-2.919,0-5.479-0.919-6.759-1.759L851.774,348.586z"/>
	<path d="M871.454,352.625v-2.159l2.759-2.68c6.639-6.319,9.639-9.679,9.679-13.598c0-2.64-1.28-5.079-5.159-5.079
		c-2.36,0-4.319,1.199-5.519,2.199l-1.12-2.479c1.8-1.52,4.359-2.64,7.359-2.64c5.599,0,7.958,3.839,7.958,7.559
		c0,4.8-3.479,8.679-8.958,13.958l-2.08,1.92v0.079h11.678v2.92H871.454z"/>
	<path d="M912.05,351.746c-1.279,0.64-3.839,1.28-7.118,1.28c-7.599,0-13.318-4.8-13.318-13.638c0-8.439,5.719-14.158,14.078-14.158
		c3.359,0,5.479,0.72,6.398,1.2l-0.84,2.839c-1.319-0.64-3.199-1.119-5.438-1.119c-6.319,0-10.519,4.039-10.519,11.118
		c0,6.599,3.799,10.838,10.358,10.838c2.119,0,4.279-0.44,5.679-1.12L912.05,351.746z"/>
	<path d="M916.013,348.586c1,0.64,3.319,1.64,5.759,1.64c4.52,0,5.919-2.88,5.879-5.039c-0.04-3.64-3.319-5.199-6.719-5.199h-1.96
		v-2.64h1.96c2.56,0,5.799-1.32,5.799-4.399c0-2.08-1.319-3.919-4.559-3.919c-2.08,0-4.08,0.92-5.199,1.72l-0.92-2.56
		c1.359-1,3.999-2,6.799-2c5.119,0,7.438,3.039,7.438,6.199c0,2.68-1.6,4.959-4.799,6.119v0.079c3.199,0.641,5.799,3.04,5.799,6.68
		c0,4.159-3.239,7.798-9.479,7.798c-2.919,0-5.479-0.919-6.759-1.759L916.013,348.586z"/>
</g>
</svg>
