<?xml version="1.0" encoding="utf-8"?>
<!-- Generator: Adobe Illustrator 16.0.0, SVG Export Plug-In . SVG Version: 6.00 Build 0)  -->
<!DOCTYPE svg PUBLIC "-//W3C//DTD SVG 1.1//EN" "http://www.w3.org/Graphics/SVG/1.1/DTD/svg11.dtd">
<svg version="1.1" id="Ebene_1" xmlns="http://www.w3.org/2000/svg" xmlns:xlink="http://www.w3.org/1999/xlink" x="0px" y="0px"
	 width="1326.724px" height="377.584px" viewBox="0 0 1326.724 377.584" enable-background="new 0 0 1326.724 377.584"
	 xml:space="preserve">
<rect x="1143.603" y="-0.408" width="182.945" height="301.002"/>
<rect x="961.56" y="-0.408" width="182.945" height="301.002"/>
<rect x="583.981" y="-1" fill="#A8C686" width="194.661" height="301.002"/>
<rect x="778.615" y="-0.408" width="184.278" height="301.002"/>
<rect x="389.32" y="-1" fill="#F0F8EA" width="194.661" height="301.002"/>
<rect x="194.66" y="-1" fill="#F0F66E" width="194.66" height="301.002"/>
<rect y="-1" fill="#E4572E" width="194.66" height="301.002"/>
<g>
	<path d="M86.565,236.267c-13.084,0-25.928-2.181-38.529-5.089v-19.386c12.844,5.332,26.655,8.724,40.712,8.724
		c17.932,0,36.106-8.239,36.106-28.595c0-18.659-13.57-25.687-27.867-33.684l-14.782-8.239
		c-18.417-10.177-36.107-19.144-36.107-43.377c0-31.261,26.415-42.892,53.797-42.892c11.874,0,23.263,1.939,34.894,4.362v18.66
		c-11.146-4.605-24.475-7.271-36.591-7.271c-15.993,0-31.502,7.513-31.502,25.445c0,15.267,16.235,23.505,27.868,29.807
		l15.508,8.481c19.628,10.663,35.38,21.083,35.38,46.042C145.452,224.393,117.343,236.267,86.565,236.267z"/>
</g>
<g>
	<path d="M287.52,236.267c-36.834,0-51.13-22.538-51.13-56.462V66.395h18.9v109.774c0,23.99,3.878,44.346,32.958,44.346
		c30.775,0,34.652-18.66,34.652-44.346V66.395h18.902v113.409C341.801,216.88,327.019,236.267,287.52,236.267z"/>
</g>
<g>
	<path d="M478.855,161.629h-19.87v74.637h-18.903V69.061h38.773c31.018,0,53.071,11.631,53.071,46.285
		C531.926,148.787,509.632,161.629,478.855,161.629z M474.736,84.812h-15.75v61.067h20.355c20.598,0,33.684-8.482,33.684-30.292
		C513.025,89.658,496.789,84.812,474.736,84.812z"/>
</g>
<g>
	<path d="M635.857,236.267V69.061h80.937v15.751h-62.035v55.978h59.128v15.751h-59.128v63.974h64.216v15.751H635.857z"/>
</g>
<path fill="#FFFFFF" d="M906.541,236.267l-8.239-38.53c-4.846-23.021-9.451-35.864-35.864-35.864h-17.449v74.394h-18.9V69.061
	h41.438c27.383,0,53.312,10.42,53.312,42.165c0,24.233-11.39,36.349-33.925,41.922v0.485c22.052,5.815,24.716,16.962,28.835,36.834
	l9.693,45.799H906.541z M859.044,84.812h-14.055v61.309h10.42c22.778,0,46.526-5.088,46.526-32.958
	C901.936,85.54,880.611,84.812,859.044,84.812z"/>
<path fill="#FFFFFF" d="M1086.349,236.267l-8.239-38.53c-4.846-23.021-9.45-35.864-35.865-35.864h-17.447v74.394h-18.901V69.061
	h41.438c27.383,0,53.312,10.42,53.312,42.165c0,24.233-11.391,36.349-33.926,41.922v0.485c22.052,5.815,24.716,16.962,28.837,36.834
	l9.693,45.799H1086.349z M1038.853,84.812h-14.056v61.309h10.42c22.779,0,46.527-5.088,46.527-32.958
	C1081.744,85.54,1060.42,84.812,1038.853,84.812z"/>
<path fill="#FFFFFF" d="M1262.037,236.267l-8.239-38.53c-4.845-23.021-9.45-35.864-35.863-35.864h-17.448v74.394h-18.9V69.061
	h41.438c27.383,0,53.312,10.42,53.312,42.165c0,24.233-11.391,36.349-33.927,41.922v0.485c22.052,5.815,24.717,16.962,28.836,36.834
	l9.693,45.799H1262.037z M1214.541,84.812h-14.055v61.309h10.42c22.778,0,46.527-5.088,46.527-32.958
	C1257.434,85.54,1236.109,84.812,1214.541,84.812z"/>
<rect x="0.357" y="299.87" fill="#FFFFFF" width="1326.366" height="76.314"/>
<g>
	<path d="M372.311,327.143h-8.199v-2.959h19.957v2.959h-8.238v23.996h-3.52V327.143z"/>
	<path d="M390.551,324.184v11.277h13.038v-11.277h3.52v26.955h-3.52v-12.638h-13.038v12.638h-3.479v-26.955H390.551z"/>
	<path d="M416.631,324.184v15.957c0,6.039,2.679,8.599,6.279,8.599c4,0,6.559-2.64,6.559-8.599v-15.957h3.519V339.9
		c0,8.278-4.359,11.678-10.198,11.678c-5.519,0-9.678-3.159-9.678-11.518v-15.877H416.631z"/>
	<path d="M439.031,324.543c1.76-0.359,4.279-0.56,6.679-0.56c3.719,0,6.119,0.68,7.799,2.199c1.36,1.2,2.12,3.04,2.12,5.119
		c0,3.56-2.24,5.919-5.079,6.879v0.12c2.08,0.72,3.319,2.64,3.959,5.439c0.88,3.759,1.52,6.358,2.08,7.398h-3.6
		c-0.44-0.76-1.04-3.079-1.8-6.438c-0.8-3.72-2.239-5.119-5.399-5.239h-3.279v11.678h-3.479V324.543z M442.51,336.821h3.559
		c3.72,0,6.079-2.04,6.079-5.119c0-3.479-2.52-4.999-6.199-5.039c-1.68,0-2.88,0.16-3.439,0.319V336.821z"/>
	<path d="M460.07,346.899c1.56,0.96,3.839,1.76,6.239,1.76c3.56,0,5.639-1.88,5.639-4.6c0-2.52-1.439-3.959-5.079-5.358
		c-4.399-1.561-7.119-3.84-7.119-7.639c0-4.2,3.479-7.319,8.718-7.319c2.76,0,4.759,0.64,5.959,1.32l-0.959,2.839
		c-0.88-0.479-2.68-1.279-5.119-1.279c-3.68,0-5.08,2.199-5.08,4.039c0,2.52,1.64,3.76,5.359,5.199
		c4.559,1.76,6.879,3.959,6.879,7.919c0,4.159-3.08,7.759-9.438,7.759c-2.6,0-5.439-0.761-6.879-1.72L460.07,346.899z"/>
	<path d="M480.27,324.543c2.12-0.319,4.639-0.56,7.399-0.56c4.999,0,8.558,1.159,10.918,3.359c2.399,2.199,3.799,5.319,3.799,9.679
		c0,4.398-1.36,7.998-3.879,10.478c-2.52,2.52-6.679,3.88-11.918,3.88c-2.479,0-4.559-0.12-6.319-0.32V324.543z M483.75,348.379
		c0.88,0.16,2.16,0.2,3.519,0.2c7.439,0,11.479-4.159,11.479-11.438c0.04-6.358-3.56-10.397-10.918-10.397
		c-1.8,0-3.159,0.159-4.079,0.359V348.379z"/>
	<path d="M510.709,342.66l-2.8,8.479h-3.599l9.158-26.955h4.199l9.199,26.955h-3.719l-2.88-8.479H510.709z M519.548,339.94
		l-2.64-7.759c-0.6-1.76-1-3.359-1.4-4.919h-0.08c-0.4,1.6-0.84,3.239-1.36,4.879l-2.64,7.799H519.548z"/>
	<path d="M533.669,351.139V339.7l-8.519-15.517h3.959l3.799,7.438c1.04,2.039,1.839,3.68,2.679,5.559h0.08
		c0.76-1.76,1.68-3.52,2.72-5.559l3.879-7.438h3.959l-9.038,15.477v11.479H533.669z"/>
	<path d="M573.546,339.78v2.4h-17.597v-2.4H573.546z"/>
	<path d="M585.788,346.899c1.56,0.96,3.839,1.76,6.239,1.76c3.56,0,5.639-1.88,5.639-4.6c0-2.52-1.439-3.959-5.079-5.358
		c-4.399-1.561-7.119-3.84-7.119-7.639c0-4.2,3.479-7.319,8.718-7.319c2.76,0,4.759,0.64,5.959,1.32l-0.959,2.839
		c-0.88-0.479-2.68-1.279-5.119-1.279c-3.68,0-5.08,2.199-5.08,4.039c0,2.52,1.64,3.76,5.359,5.199
		c4.559,1.76,6.879,3.959,6.879,7.919c0,4.159-3.08,7.759-9.438,7.759c-2.6,0-5.439-0.761-6.879-1.72L585.788,346.899z"/>
	<path d="M611.107,327.143h-8.199v-2.959h19.957v2.959h-8.238v23.996h-3.52V327.143z"/>
	<path d="M647.824,337.381c0,9.278-5.639,14.197-12.518,14.197c-7.119,0-12.118-5.519-12.118-13.677
		c0-8.559,5.319-14.158,12.518-14.158C643.065,323.743,647.824,329.382,647.824,337.381z M626.908,337.821
		c0,5.759,3.12,10.918,8.599,10.918c5.519,0,8.638-5.079,8.638-11.198c0-5.359-2.799-10.958-8.598-10.958
		C629.787,326.583,626.908,331.902,626.908,337.821z"/>
	<path d="M671.185,350.259c-1.28,0.64-3.839,1.28-7.119,1.28c-7.599,0-13.317-4.8-13.317-13.638c0-8.439,5.719-14.158,14.078-14.158
		c3.359,0,5.479,0.72,6.399,1.2l-0.84,2.839c-1.32-0.64-3.2-1.119-5.439-1.119c-6.319,0-10.518,4.039-10.518,11.118
		c0,6.599,3.799,10.838,10.358,10.838c2.12,0,4.279-0.44,5.679-1.12L671.185,350.259z"/>
	<path d="M675.547,324.184h3.479v12.997h0.12c0.72-1.039,1.44-1.999,2.12-2.879l8.239-10.118h4.319l-9.758,11.438l10.518,15.518
		h-4.119l-8.878-13.237l-2.56,2.959v10.278h-3.479V324.184z"/>
	<path d="M700.706,324.184v11.277h13.038v-11.277h3.52v26.955h-3.52v-12.638h-13.038v12.638h-3.479v-26.955H700.706z"/>
	<path d="M746.342,337.381c0,9.278-5.639,14.197-12.518,14.197c-7.119,0-12.118-5.519-12.118-13.677
		c0-8.559,5.319-14.158,12.518-14.158C741.583,323.743,746.342,329.382,746.342,337.381z M725.426,337.821
		c0,5.759,3.12,10.918,8.599,10.918c5.519,0,8.639-5.079,8.639-11.198c0-5.359-2.8-10.958-8.599-10.958
		C728.305,326.583,725.426,331.902,725.426,337.821z"/>
	<path d="M750.866,324.184h3.479v24.035h11.518v2.92h-14.998V324.184z"/>
	<path d="M792.462,339.301c-0.2-3.76-0.44-8.278-0.4-11.638h-0.12c-0.92,3.159-2.04,6.519-3.399,10.238l-4.759,13.077h-2.64
		l-4.359-12.838c-1.28-3.799-2.359-7.278-3.119-10.478h-0.08c-0.08,3.359-0.28,7.878-0.52,11.918l-0.72,11.558h-3.319l1.879-26.955
		h4.439l4.599,13.037c1.12,3.319,2.04,6.279,2.72,9.079h0.12c0.68-2.72,1.64-5.68,2.84-9.079l4.799-13.037h4.439l1.68,26.955h-3.399
		L792.462,339.301z"/>
	<path d="M811.064,351.139l1.04-7.839h-3.279v-2.359h3.639l0.76-5.799h-3.439v-2.359h3.799l1.04-7.64h2.319l-1,7.64h4.16l1.039-7.64
		h2.36l-1,7.64h3.279v2.359h-3.64l-0.72,5.799h3.439v2.359h-3.8l-1.039,7.839h-2.4l1.04-7.839h-4.159l-1.04,7.839H811.064z
		 M819.023,340.94l0.76-5.799h-4.159l-0.76,5.799H819.023z"/>
	<path d="M829.785,346.899c1.56,0.96,3.84,1.76,6.239,1.76c3.56,0,5.639-1.88,5.639-4.6c0-2.52-1.439-3.959-5.079-5.358
		c-4.399-1.561-7.119-3.84-7.119-7.639c0-4.2,3.479-7.319,8.719-7.319c2.76,0,4.76,0.64,5.959,1.32l-0.96,2.839
		c-0.88-0.479-2.68-1.279-5.119-1.279c-3.679,0-5.079,2.199-5.079,4.039c0,2.52,1.64,3.76,5.359,5.199
		c4.56,1.76,6.879,3.959,6.879,7.919c0,4.159-3.079,7.759-9.438,7.759c-2.6,0-5.439-0.761-6.879-1.72L829.785,346.899z"/>
	<path d="M853.464,324.184v26.955h-3.479v-26.955H853.464z"/>
	<path d="M859.544,324.184h14.518v2.919h-11.038v8.959h10.198v2.879h-10.198v12.198h-3.479V324.184z"/>
	<path d="M885.423,328.423h-0.08l-4.52,2.439l-0.68-2.68l5.679-3.04h3v25.996h-3.399V328.423z"/>
	<path d="M913.821,328.103h-9.919l-1,6.679c0.601-0.08,1.16-0.16,2.12-0.16c2,0,3.999,0.44,5.599,1.4
		c2.04,1.159,3.72,3.399,3.72,6.679c0,5.079-4.039,8.878-9.679,8.878c-2.839,0-5.238-0.8-6.479-1.6l0.88-2.679
		c1.08,0.64,3.199,1.439,5.559,1.439c3.32,0,6.159-2.16,6.159-5.64c-0.04-3.359-2.279-5.759-7.479-5.759
		c-1.479,0-2.64,0.16-3.6,0.28l1.68-12.479h12.438V328.103z"/>
</g>
</svg>
