<?xml version="1.0" encoding="utf-8"?>
<!-- Generator: Adobe Illustrator 16.0.0, SVG Export Plug-In . SVG Version: 6.00 Build 0)  -->
<!DOCTYPE svg PUBLIC "-//W3C//DTD SVG 1.1//EN" "http://www.w3.org/Graphics/SVG/1.1/DTD/svg11.dtd">
<svg version="1.1" id="Ebene_1" xmlns="http://www.w3.org/2000/svg" xmlns:xlink="http://www.w3.org/1999/xlink" x="0px" y="0px"
	 width="1326.724px" height="377.584px" viewBox="0 0 1326.724 377.584" enable-background="new 0 0 1326.724 377.584"
	 xml:space="preserve">
<rect x="1143.603" y="-0.408" width="182.945" height="301.002"/>
<rect x="961.56" y="-0.408" width="182.945" height="301.002"/>
<rect x="583.981" y="-1" fill="#E55934" width="194.661" height="301.002"/>
<rect x="778.615" y="-0.408" width="184.279" height="301.002"/>
<rect x="389.32" y="-1" fill="#9BC53D" width="194.661" height="301.002"/>
<rect x="194.66" y="-1" fill="#FDE74C" width="194.66" height="301.002"/>
<rect y="-1" fill="#5BC0EB" width="194.66" height="301.002"/>
<g>
	<path d="M86.565,236.267c-13.084,0-25.928-2.181-38.529-5.089v-19.386c12.844,5.332,26.655,8.724,40.712,8.724
		c17.932,0,36.106-8.239,36.106-28.595c0-18.659-13.57-25.687-27.867-33.684l-14.782-8.239
		c-18.417-10.177-36.107-19.144-36.107-43.377c0-31.261,26.415-42.892,53.797-42.892c11.874,0,23.263,1.939,34.894,4.362v18.66
		c-11.146-4.605-24.475-7.271-36.591-7.271c-15.993,0-31.502,7.513-31.502,25.445c0,15.267,16.235,23.505,27.868,29.807
		l15.508,8.481c19.628,10.663,35.38,21.083,35.38,46.042C145.452,224.393,117.343,236.267,86.565,236.267z"/>
</g>
<g>
	<path d="M287.52,236.267c-36.834,0-51.13-22.538-51.13-56.462V66.395h18.9v109.774c0,23.99,3.878,44.346,32.958,44.346
		c30.775,0,34.652-18.66,34.652-44.346V66.395h18.902v113.409C341.801,216.88,327.019,236.267,287.52,236.267z"/>
</g>
<g>
	<path d="M478.855,161.629h-19.87v74.637h-18.903V69.061h38.773c31.018,0,53.071,11.631,53.071,46.285
		C531.926,148.787,509.632,161.629,478.855,161.629z M474.736,84.812h-15.75v61.067h20.355c20.598,0,33.684-8.482,33.684-30.292
		C513.025,89.658,496.789,84.812,474.736,84.812z"/>
</g>
<g>
	<path d="M635.857,236.267V69.061h80.937v15.751h-62.035v55.978h59.128v15.751h-59.128v63.974h64.216v15.751H635.857z"/>
</g>
<path fill="#FFFFFF" d="M906.54,236.267l-8.238-38.53c-4.847-23.021-9.451-35.864-35.864-35.864h-17.448v74.394h-18.9V69.061h41.438
	c27.383,0,53.312,10.42,53.312,42.165c0,24.233-11.39,36.349-33.925,41.922v0.485c22.051,5.815,24.716,16.962,28.835,36.834
	l9.692,45.799H906.54z M859.044,84.812h-14.055v61.309h10.42c22.778,0,46.526-5.088,46.526-32.958
	C901.936,85.54,880.611,84.812,859.044,84.812z"/>
<path fill="#FFFFFF" d="M1086.349,236.267l-8.239-38.53c-4.846-23.021-9.45-35.864-35.865-35.864h-17.447v74.394h-18.901V69.061
	h41.438c27.383,0,53.312,10.42,53.312,42.165c0,24.233-11.391,36.349-33.926,41.922v0.485c22.052,5.815,24.716,16.962,28.837,36.834
	l9.693,45.799H1086.349z M1038.853,84.812h-14.056v61.309h10.42c22.779,0,46.527-5.088,46.527-32.958
	C1081.744,85.54,1060.42,84.812,1038.853,84.812z"/>
<path fill="#FFFFFF" d="M1262.037,236.267l-8.239-38.53c-4.845-23.021-9.45-35.864-35.863-35.864h-17.448v74.394h-18.9V69.061
	h41.438c27.383,0,53.312,10.42,53.312,42.165c0,24.233-11.391,36.349-33.927,41.922v0.485c22.052,5.815,24.717,16.962,28.836,36.834
	l9.693,45.799H1262.037z M1214.541,84.812h-14.055v61.309h10.42c22.778,0,46.527-5.088,46.527-32.958
	C1257.434,85.54,1236.109,84.812,1214.541,84.812z"/>
<rect x="0.357" y="299.87" fill="#FFFFFF" width="1326.366" height="76.314"/>
<g>
	<path d="M509.3,326.629h-8.199v-2.959h19.957v2.959h-8.238v23.996h-3.52V326.629z"/>
	<path d="M527.541,323.67v11.277h13.038V323.67h3.52v26.955h-3.52v-12.638h-13.038v12.638h-3.479V323.67H527.541z"/>
	<path d="M553.62,323.67v15.957c0,6.039,2.679,8.599,6.279,8.599c4,0,6.559-2.64,6.559-8.599V323.67h3.519v15.717
		c0,8.278-4.359,11.678-10.198,11.678c-5.519,0-9.678-3.159-9.678-11.518V323.67H553.62z"/>
	<path d="M576.02,324.03c1.76-0.359,4.279-0.56,6.679-0.56c3.719,0,6.119,0.68,7.799,2.199c1.36,1.2,2.12,3.04,2.12,5.119
		c0,3.56-2.24,5.919-5.079,6.879v0.12c2.08,0.72,3.319,2.64,3.959,5.439c0.88,3.759,1.52,6.358,2.08,7.398h-3.6
		c-0.44-0.76-1.04-3.079-1.8-6.438c-0.8-3.72-2.239-5.119-5.399-5.239H579.5v11.678h-3.479V324.03z M579.5,336.308h3.559
		c3.72,0,6.079-2.04,6.079-5.119c0-3.479-2.52-4.999-6.199-5.039c-1.68,0-2.88,0.16-3.439,0.319V336.308z"/>
	<path d="M597.06,346.386c1.56,0.96,3.839,1.76,6.239,1.76c3.56,0,5.639-1.88,5.639-4.6c0-2.52-1.439-3.959-5.079-5.358
		c-4.399-1.561-7.119-3.84-7.119-7.639c0-4.2,3.479-7.319,8.718-7.319c2.76,0,4.759,0.64,5.959,1.32l-0.959,2.839
		c-0.88-0.479-2.68-1.279-5.119-1.279c-3.68,0-5.08,2.199-5.08,4.039c0,2.52,1.64,3.76,5.359,5.199
		c4.559,1.76,6.879,3.959,6.879,7.919c0,4.159-3.08,7.759-9.438,7.759c-2.6,0-5.439-0.761-6.879-1.72L597.06,346.386z"/>
	<path d="M617.259,324.03c2.12-0.319,4.639-0.56,7.399-0.56c4.999,0,8.558,1.159,10.918,3.359c2.399,2.199,3.799,5.319,3.799,9.679
		c0,4.398-1.36,7.998-3.879,10.478c-2.52,2.52-6.679,3.88-11.918,3.88c-2.479,0-4.559-0.12-6.319-0.32V324.03z M620.739,347.866
		c0.88,0.16,2.16,0.2,3.519,0.2c7.439,0,11.479-4.159,11.479-11.438c0.04-6.358-3.56-10.397-10.918-10.397
		c-1.8,0-3.159,0.159-4.079,0.359V347.866z"/>
	<path d="M647.699,342.147l-2.8,8.479H641.3l9.158-26.955h4.199l9.199,26.955h-3.719l-2.88-8.479H647.699z M656.537,339.427
		l-2.64-7.759c-0.6-1.76-1-3.359-1.4-4.919h-0.08c-0.4,1.6-0.84,3.239-1.36,4.879l-2.64,7.799H656.537z"/>
	<path d="M670.659,350.625v-11.438l-8.519-15.517h3.959l3.799,7.438c1.04,2.039,1.839,3.68,2.679,5.559h0.08
		c0.76-1.76,1.68-3.52,2.72-5.559l3.879-7.438h3.959l-9.038,15.477v11.479H670.659z"/>
	<path d="M710.535,339.267v2.4h-17.597v-2.4H710.535z"/>
	<path d="M723.257,324.03c1.52-0.319,3.919-0.56,6.359-0.56c3.479,0,5.719,0.6,7.399,1.96c1.399,1.039,2.239,2.639,2.239,4.759
		c0,2.6-1.72,4.879-4.559,5.919v0.08c2.56,0.64,5.559,2.76,5.559,6.759c0,2.319-0.92,4.079-2.28,5.399
		c-1.879,1.72-4.919,2.52-9.318,2.52c-2.399,0-4.239-0.16-5.399-0.32V324.03z M726.737,335.068h3.159c3.68,0,5.839-1.92,5.839-4.519
		c0-3.16-2.4-4.399-5.919-4.399c-1.6,0-2.52,0.12-3.08,0.239V335.068z M726.737,347.986c0.68,0.12,1.68,0.16,2.919,0.16
		c3.599,0,6.919-1.32,6.919-5.239c0-3.68-3.16-5.199-6.959-5.199h-2.879V347.986z"/>
	<path d="M758.895,337.988h-10.478v9.718h11.678v2.92h-15.157V323.67h14.558v2.919h-11.078v8.519h10.478V337.988z"/>
	<path d="M764.617,324.03c1.76-0.359,4.279-0.56,6.679-0.56c3.719,0,6.119,0.68,7.799,2.199c1.36,1.2,2.12,3.04,2.12,5.119
		c0,3.56-2.24,5.919-5.079,6.879v0.12c2.08,0.72,3.319,2.64,3.959,5.439c0.88,3.759,1.52,6.358,2.08,7.398h-3.6
		c-0.44-0.76-1.04-3.079-1.8-6.438c-0.8-3.72-2.239-5.119-5.399-5.239h-3.279v11.678h-3.479V324.03z M768.096,336.308h3.559
		c3.72,0,6.079-2.04,6.079-5.119c0-3.479-2.52-4.999-6.199-5.039c-1.68,0-2.88,0.16-3.439,0.319V336.308z"/>
	<path d="M786.136,323.67h3.479v24.035h11.518v2.92h-14.998V323.67z"/>
	<path d="M808.496,323.67v26.955h-3.479V323.67H808.496z"/>
	<path d="M814.576,350.625V323.67h3.799l8.639,13.638c2,3.159,3.559,5.999,4.839,8.758l0.08-0.04c-0.32-3.599-0.4-6.879-0.4-11.078
		V323.67h3.279v26.955h-3.519l-8.559-13.678c-1.88-2.999-3.68-6.079-5.039-8.998l-0.12,0.04c0.2,3.399,0.28,6.639,0.28,11.117
		v11.519H814.576z"/>
</g>
</svg>
