<?xml version="1.0" encoding="utf-8"?>
<!-- Generator: Adobe Illustrator 16.0.0, SVG Export Plug-In . SVG Version: 6.00 Build 0)  -->
<!DOCTYPE svg PUBLIC "-//W3C//DTD SVG 1.1//EN" "http://www.w3.org/Graphics/SVG/1.1/DTD/svg11.dtd">
<svg version="1.1" id="Ebene_1" xmlns="http://www.w3.org/2000/svg" xmlns:xlink="http://www.w3.org/1999/xlink" x="0px" y="0px"
	 width="1326.724px" height="377.584px" viewBox="0 0 1326.724 377.584" enable-background="new 0 0 1326.724 377.584"
	 xml:space="preserve">
<rect x="1143.603" y="0.592" width="182.945" height="301.002"/>
<rect x="961.56" y="0.592" width="182.945" height="301.002"/>
<rect x="583.981" fill="#E55934" width="194.661" height="301.002"/>
<rect x="778.615" y="0.592" width="184.278" height="301.002"/>
<rect x="389.32" fill="#9BC53D" width="194.661" height="301.002"/>
<rect x="194.66" fill="#FDE74C" width="194.66" height="301.002"/>
<rect fill="#5BC0EB" width="194.66" height="301.002"/>
<g>
	<path d="M86.565,237.267c-13.084,0-25.928-2.181-38.529-5.089v-19.386c12.844,5.332,26.655,8.724,40.712,8.724
		c17.932,0,36.106-8.239,36.106-28.595c0-18.659-13.57-25.687-27.867-33.684l-14.782-8.239
		c-18.417-10.177-36.107-19.144-36.107-43.377c0-31.261,26.415-42.892,53.797-42.892c11.874,0,23.263,1.939,34.894,4.362v18.66
		c-11.146-4.605-24.475-7.271-36.591-7.271c-15.993,0-31.502,7.513-31.502,25.445c0,15.267,16.235,23.505,27.868,29.807
		l15.508,8.481c19.628,10.663,35.38,21.083,35.38,46.042C145.452,225.393,117.343,237.267,86.565,237.267z"/>
</g>
<g>
	<path d="M287.52,237.267c-36.834,0-51.13-22.538-51.13-56.462V67.395h18.9v109.774c0,23.99,3.878,44.346,32.958,44.346
		c30.775,0,34.652-18.66,34.652-44.346V67.395h18.902v113.409C341.801,217.88,327.019,237.267,287.52,237.267z"/>
</g>
<g>
	<path d="M478.855,162.629h-19.87v74.637h-18.903V70.061h38.773c31.018,0,53.071,11.631,53.071,46.285
		C531.926,149.787,509.632,162.629,478.855,162.629z M474.736,85.812h-15.75v61.067h20.355c20.598,0,33.684-8.482,33.684-30.292
		C513.025,90.658,496.789,85.812,474.736,85.812z"/>
</g>
<g>
	<path d="M635.857,237.267V70.061h80.937v15.751h-62.035v55.978h59.128v15.751h-59.128v63.974h64.216v15.751H635.857z"/>
</g>
<path fill="#FFFFFF" d="M906.541,237.267l-8.239-38.53c-4.846-23.021-9.451-35.864-35.864-35.864h-17.449v74.394h-18.9V70.061
	h41.438c27.383,0,53.312,10.42,53.312,42.165c0,24.233-11.39,36.349-33.925,41.922v0.485c22.052,5.815,24.716,16.962,28.835,36.834
	l9.693,45.799H906.541z M859.044,85.812h-14.055v61.309h10.42c22.778,0,46.526-5.088,46.526-32.958
	C901.936,86.54,880.611,85.812,859.044,85.812z"/>
<path fill="#FFFFFF" d="M1086.349,237.267l-8.239-38.53c-4.846-23.021-9.45-35.864-35.865-35.864h-17.447v74.394h-18.901V70.061
	h41.438c27.383,0,53.312,10.42,53.312,42.165c0,24.233-11.391,36.349-33.926,41.922v0.485c22.052,5.815,24.716,16.962,28.837,36.834
	l9.693,45.799H1086.349z M1038.853,85.812h-14.056v61.309h10.42c22.779,0,46.527-5.088,46.527-32.958
	C1081.744,86.54,1060.42,85.812,1038.853,85.812z"/>
<path fill="#FFFFFF" d="M1262.037,237.267l-8.239-38.53c-4.845-23.021-9.45-35.864-35.863-35.864h-17.448v74.394h-18.9V70.061
	h41.438c27.383,0,53.312,10.42,53.312,42.165c0,24.233-11.391,36.349-33.927,41.922v0.485c22.052,5.815,24.717,16.962,28.836,36.834
	l9.693,45.799H1262.037z M1214.541,85.812h-14.055v61.309h10.42c22.778,0,46.527-5.088,46.527-32.958
	C1257.434,86.54,1236.109,85.812,1214.541,85.812z"/>
<rect x="0.357" y="300.87" fill="#FFFFFF" width="1326.366" height="76.314"/>
<g>
	<path d="M572.258,345.014c-0.167-4.183,2.091-6.316,4.979-6.316c1.758,0,3.095,0.544,5.898,1.883
		c2.134,1.004,3.682,1.756,5.229,1.756c1.508,0,2.217-1.212,2.26-3.513h2.51c0.21,4.685-2.217,6.316-4.811,6.316
		c-1.673,0-3.179-0.501-6.065-1.84c-1.967-0.963-3.515-1.842-5.021-1.842s-2.427,1.047-2.509,3.556H572.258z"/>
	<path d="M603.672,328.699h-8.576v-3.095h20.875v3.095h-8.617V353.8h-3.682V328.699z"/>
	<path d="M622.746,325.604v11.798h13.638v-11.798h3.682V353.8h-3.682v-13.22h-13.638v13.22h-3.64v-28.196H622.746z"/>
	<path d="M650.018,325.604v16.692c0,6.316,2.802,8.994,6.567,8.994c4.183,0,6.86-2.761,6.86-8.994v-16.692h3.682v16.441
		c0,8.66-4.56,12.215-10.667,12.215c-5.774,0-10.124-3.305-10.124-12.048v-16.608H650.018z"/>
	<path d="M673.44,325.981c1.84-0.377,4.477-0.587,6.986-0.587c3.89,0,6.4,0.711,8.157,2.303c1.422,1.253,2.219,3.179,2.219,5.354
		c0,3.723-2.344,6.19-5.314,7.195v0.125c2.176,0.754,3.473,2.763,4.141,5.69c0.921,3.933,1.59,6.651,2.176,7.739h-3.765
		c-0.461-0.795-1.089-3.222-1.883-6.736c-0.836-3.89-2.344-5.354-5.648-5.479h-3.43V353.8h-3.639V325.981z M677.079,338.824h3.723
		c3.892,0,6.359-2.133,6.359-5.354c0-3.64-2.635-5.23-6.483-5.271c-1.759,0-3.014,0.167-3.599,0.334V338.824z"/>
	<path d="M695.44,349.366c1.632,1.002,4.018,1.84,6.528,1.84c3.721,0,5.896-1.967,5.896-4.811c0-2.635-1.506-4.142-5.312-5.605
		c-4.603-1.632-7.447-4.016-7.447-7.991c0-4.391,3.639-7.655,9.12-7.655c2.886,0,4.979,0.67,6.233,1.381l-1.005,2.969
		c-0.919-0.501-2.802-1.338-5.354-1.338c-3.848,0-5.312,2.302-5.312,4.226c0,2.635,1.716,3.933,5.605,5.438
		c4.77,1.84,7.196,4.142,7.196,8.283c0,4.351-3.223,8.116-9.874,8.116c-2.718,0-5.688-0.794-7.194-1.799L695.44,349.366z"/>
	<path d="M716.564,325.981c2.217-0.336,4.852-0.587,7.738-0.587c5.23,0,8.953,1.214,11.421,3.515
		c2.511,2.301,3.974,5.565,3.974,10.123c0,4.603-1.422,8.368-4.057,10.962c-2.635,2.635-6.987,4.057-12.466,4.057
		c-2.595,0-4.771-0.125-6.61-0.334V325.981z M720.203,350.913c0.921,0.167,2.26,0.209,3.683,0.209
		c7.779,0,12.005-4.35,12.005-11.964c0.043-6.651-3.723-10.877-11.418-10.877c-1.883,0-3.306,0.167-4.27,0.377V350.913z"/>
	<path d="M748.397,344.931l-2.93,8.87h-3.766l9.581-28.196h4.393l9.622,28.196h-3.892l-3.012-8.87H748.397z M757.641,342.086
		l-2.759-8.116c-0.628-1.84-1.048-3.513-1.465-5.145h-0.084c-0.42,1.673-0.878,3.389-1.422,5.104l-2.762,8.156H757.641z"/>
	<path d="M772.405,353.8v-11.965l-8.91-16.231h4.143l3.973,7.781c1.088,2.134,1.924,3.849,2.804,5.815h0.082
		c0.795-1.842,1.758-3.682,2.847-5.815l4.057-7.781h4.143l-9.455,16.19V353.8H772.405z"/>
	<path d="M787.631,345.014c-0.168-4.183,2.09-6.316,4.978-6.316c1.757,0,3.095,0.544,5.898,1.883
		c2.134,1.004,3.681,1.756,5.229,1.756c1.506,0,2.217-1.212,2.26-3.513h2.509c0.212,4.685-2.217,6.316-4.81,6.316
		c-1.674,0-3.18-0.501-6.067-1.84c-1.964-0.963-3.513-1.842-5.019-1.842s-2.427,1.047-2.511,3.556H787.631z"/>
</g>
</svg>
