<?xml version="1.0" encoding="utf-8"?>
<!-- Generator: Adobe Illustrator 16.0.0, SVG Export Plug-In . SVG Version: 6.00 Build 0)  -->
<!DOCTYPE svg PUBLIC "-//W3C//DTD SVG 1.1//EN" "http://www.w3.org/Graphics/SVG/1.1/DTD/svg11.dtd">
<svg version="1.1" id="Ebene_1" xmlns="http://www.w3.org/2000/svg" xmlns:xlink="http://www.w3.org/1999/xlink" x="0px" y="0px"
	 width="1326.724px" height="377.584px" viewBox="0 0 1326.724 377.584" enable-background="new 0 0 1326.724 377.584"
	 xml:space="preserve">
<rect x="1143.603" y="0.592" width="182.945" height="301.002"/>
<rect x="961.56" y="0.592" width="182.945" height="301.002"/>
<rect x="583.981" fill="#35A7FF" width="194.661" height="301.002"/>
<rect x="778.615" y="0.592" width="184.278" height="301.002"/>
<rect x="389.32" fill="#FFFFFF" width="194.661" height="301.002"/>
<rect x="194.66" fill="#FF5964" width="194.66" height="301.002"/>
<rect fill="#FFE74C" width="194.66" height="301.002"/>
<g>
	<path d="M86.565,237.267c-13.084,0-25.928-2.181-38.529-5.089v-19.386c12.844,5.332,26.655,8.724,40.712,8.724
		c17.932,0,36.106-8.239,36.106-28.595c0-18.659-13.57-25.687-27.867-33.684l-14.782-8.239
		c-18.417-10.177-36.107-19.144-36.107-43.377c0-31.261,26.415-42.892,53.797-42.892c11.874,0,23.263,1.939,34.894,4.362v18.66
		c-11.146-4.605-24.475-7.271-36.591-7.271c-15.993,0-31.502,7.513-31.502,25.445c0,15.267,16.235,23.505,27.868,29.807
		l15.508,8.481c19.628,10.663,35.38,21.083,35.38,46.042C145.452,225.393,117.343,237.267,86.565,237.267z"/>
</g>
<g>
	<path d="M287.52,237.267c-36.834,0-51.13-22.538-51.13-56.462V67.395h18.9v109.774c0,23.99,3.878,44.346,32.958,44.346
		c30.775,0,34.652-18.66,34.652-44.346V67.395h18.902v113.409C341.801,217.88,327.019,237.267,287.52,237.267z"/>
</g>
<g>
	<path d="M478.855,162.629h-19.87v74.637h-18.903V70.061h38.773c31.018,0,53.071,11.631,53.071,46.285
		C531.926,149.787,509.632,162.629,478.855,162.629z M474.736,85.812h-15.75v61.067h20.355c20.598,0,33.684-8.482,33.684-30.292
		C513.025,90.658,496.789,85.812,474.736,85.812z"/>
</g>
<g>
	<path d="M635.857,237.267V70.061h80.937v15.751h-62.035v55.978h59.128v15.751h-59.128v63.974h64.216v15.751H635.857z"/>
</g>
<path fill="#FFFFFF" d="M906.541,237.267l-8.239-38.53c-4.846-23.021-9.451-35.864-35.864-35.864h-17.449v74.394h-18.9V70.061
	h41.438c27.383,0,53.312,10.42,53.312,42.165c0,24.233-11.39,36.349-33.925,41.922v0.485c22.052,5.815,24.716,16.962,28.835,36.834
	l9.693,45.799H906.541z M859.044,85.812h-14.055v61.309h10.42c22.778,0,46.526-5.088,46.526-32.958
	C901.936,86.54,880.611,85.812,859.044,85.812z"/>
<path fill="#FFFFFF" d="M1086.349,237.267l-8.239-38.53c-4.846-23.021-9.45-35.864-35.865-35.864h-17.447v74.394h-18.901V70.061
	h41.438c27.383,0,53.312,10.42,53.312,42.165c0,24.233-11.391,36.349-33.926,41.922v0.485c22.052,5.815,24.716,16.962,28.837,36.834
	l9.693,45.799H1086.349z M1038.853,85.812h-14.056v61.309h10.42c22.779,0,46.527-5.088,46.527-32.958
	C1081.744,86.54,1060.42,85.812,1038.853,85.812z"/>
<path fill="#FFFFFF" d="M1262.037,237.267l-8.239-38.53c-4.845-23.021-9.45-35.864-35.863-35.864h-17.448v74.394h-18.9V70.061
	h41.438c27.383,0,53.312,10.42,53.312,42.165c0,24.233-11.391,36.349-33.927,41.922v0.485c22.052,5.815,24.717,16.962,28.836,36.834
	l9.693,45.799H1262.037z M1214.541,85.812h-14.055v61.309h10.42c22.778,0,46.527-5.088,46.527-32.958
	C1257.434,86.54,1236.109,85.812,1214.541,85.812z"/>
<rect x="0.357" y="300.87" fill="#FFFFFF" width="1326.366" height="76.314"/>
<g>
	<path d="M539.927,345.27c-0.181-4.538,2.269-6.852,5.4-6.852c1.906,0,3.359,0.59,6.399,2.042c2.314,1.089,3.994,1.905,5.673,1.905
		c1.634,0,2.405-1.315,2.45-3.811h2.723c0.228,5.082-2.405,6.852-5.219,6.852c-1.814,0-3.449-0.543-6.58-1.996
		c-2.133-1.045-3.812-1.998-5.446-1.998c-1.633,0-2.631,1.136-2.722,3.857H539.927z"/>
	<path d="M573.188,354.801l-7.76-30.587h4.175l3.63,15.475c0.907,3.812,1.724,7.624,2.269,10.574h0.09
		c0.5-3.042,1.453-6.671,2.496-10.619l4.085-15.431h4.13l3.721,15.521c0.862,3.63,1.679,7.261,2.133,10.482h0.091
		c0.636-3.358,1.498-6.761,2.45-10.572l4.04-15.431h4.038l-8.667,30.587h-4.129l-3.858-15.928c-0.953-3.903-1.588-6.898-1.996-9.984
		h-0.091c-0.545,3.039-1.226,6.034-2.36,9.984l-4.357,15.928H573.188z"/>
	<path d="M622.421,340.46H610.53v11.027h13.251v3.313h-17.199v-30.587h16.519v3.313H610.53v9.666h11.891V340.46z"/>
	<path d="M628.906,324.623c2.404-0.364,5.264-0.636,8.395-0.636c5.674,0,9.713,1.317,12.39,3.813
		c2.724,2.495,4.312,6.036,4.312,10.981c0,4.993-1.543,9.078-4.402,11.892c-2.859,2.858-7.578,4.401-13.523,4.401
		c-2.812,0-5.174-0.135-7.17-0.362V324.623z M632.854,351.669c1,0.181,2.451,0.228,3.994,0.228c8.441,0,13.025-4.719,13.025-12.979
		c0.045-7.215-4.039-11.799-12.39-11.799c-2.042,0-3.585,0.181-4.63,0.409V351.669z"/>
	<path d="M659.126,354.801v-30.587h4.312l9.801,15.475c2.27,3.585,4.04,6.808,5.492,9.938l0.091-0.044
		c-0.364-4.085-0.454-7.805-0.454-12.57v-12.798h3.721v30.587h-3.992l-9.712-15.521c-2.133-3.404-4.175-6.896-5.718-10.21
		l-0.137,0.045c0.227,3.857,0.318,7.533,0.318,12.616v13.07H659.126z"/>
	<path d="M704.82,340.46H692.93v11.027h13.251v3.313h-17.199v-30.587h16.52v3.313H692.93v9.666h11.891V340.46z"/>
	<path d="M710.761,349.991c1.77,1.087,4.356,1.996,7.079,1.996c4.039,0,6.4-2.133,6.4-5.219c0-2.858-1.635-4.494-5.764-6.081
		c-4.992-1.771-8.08-4.357-8.08-8.669c0-4.764,3.949-8.305,9.895-8.305c3.131,0,5.4,0.728,6.762,1.499l-1.089,3.221
		c-0.998-0.543-3.04-1.452-5.81-1.452c-4.175,0-5.764,2.498-5.764,4.584c0,2.858,1.861,4.266,6.082,5.899
		c5.174,1.996,7.805,4.493,7.805,8.985c0,4.719-3.494,8.804-10.709,8.804c-2.951,0-6.172-0.862-7.806-1.952L710.761,349.991z"/>
	<path d="M733.675,324.623c2.405-0.364,5.265-0.636,8.396-0.636c5.672,0,9.712,1.317,12.389,3.813
		c2.723,2.495,4.312,6.036,4.312,10.981c0,4.993-1.543,9.078-4.402,11.892c-2.858,2.858-7.578,4.401-13.522,4.401
		c-2.814,0-5.175-0.135-7.171-0.362V324.623z M737.623,351.669c0.998,0.181,2.451,0.228,3.994,0.228
		c8.439,0,13.023-4.719,13.023-12.979c0.046-7.215-4.039-11.799-12.389-11.799c-2.042,0-3.585,0.181-4.629,0.409V351.669z"/>
	<path d="M768.207,345.179l-3.178,9.622h-4.084l10.393-30.587h4.764l10.439,30.587h-4.221l-3.269-9.622H768.207z M778.235,342.094
		l-2.995-8.804c-0.682-1.996-1.135-3.811-1.588-5.581h-0.092c-0.453,1.815-0.952,3.676-1.542,5.537l-2.995,8.848H778.235z"/>
	<path d="M794.25,354.801v-12.979l-9.665-17.608h4.492l4.312,8.441c1.18,2.314,2.088,4.175,3.041,6.308h0.09
		c0.862-1.998,1.906-3.994,3.087-6.308l4.401-8.441h4.493l-10.257,17.563v13.024H794.25z"/>
	<path d="M810.766,345.27c-0.182-4.538,2.27-6.852,5.401-6.852c1.905,0,3.357,0.59,6.397,2.042c2.315,1.089,3.994,1.905,5.674,1.905
		c1.633,0,2.404-1.315,2.451-3.811h2.722c0.228,5.082-2.405,6.852-5.219,6.852c-1.815,0-3.449-0.543-6.58-1.996
		c-2.134-1.045-3.812-1.998-5.445-1.998c-1.635,0-2.633,1.136-2.724,3.857H810.766z"/>
</g>
</svg>
