<?xml version="1.0" encoding="utf-8"?>
<!-- Generator: Adobe Illustrator 16.0.0, SVG Export Plug-In . SVG Version: 6.00 Build 0)  -->
<!DOCTYPE svg PUBLIC "-//W3C//DTD SVG 1.1//EN" "http://www.w3.org/Graphics/SVG/1.1/DTD/svg11.dtd">
<svg version="1.1" id="Ebene_1" xmlns="http://www.w3.org/2000/svg" xmlns:xlink="http://www.w3.org/1999/xlink" x="0px" y="0px"
	 width="1326.723px" height="377.584px" viewBox="0 0 1326.723 377.584" enable-background="new 0 0 1326.723 377.584"
	 xml:space="preserve">
<rect x="1143.604" y="0.592" width="182.943" height="301.002"/>
<rect x="961.559" y="0.592" width="182.945" height="301.002"/>
<rect x="583.981" fill="#FF1654" width="194.658" height="301.002"/>
<rect x="778.616" y="0.592" width="184.275" height="301.002"/>
<rect x="389.32" fill="#F3FFBD" width="194.664" height="301.002"/>
<rect x="194.66" fill="#B2DBBF" width="194.66" height="301.002"/>
<rect fill="#247BA0" width="194.66" height="301.002"/>
<g>
	<path d="M86.565,237.267c-13.084,0-25.928-2.181-38.529-5.089v-19.386c12.844,5.332,26.655,8.725,40.712,8.725
		c17.932,0,36.106-8.24,36.106-28.596c0-18.659-13.57-25.687-27.867-33.684l-14.782-8.239
		c-18.417-10.177-36.107-19.144-36.107-43.377c0-31.261,26.415-42.892,53.797-42.892c11.874,0,23.263,1.939,34.894,4.362v18.66
		c-11.146-4.605-24.475-7.271-36.591-7.271c-15.993,0-31.502,7.513-31.502,25.445c0,15.267,16.235,23.505,27.868,29.807
		l15.508,8.481c19.628,10.663,35.38,21.083,35.38,46.042C145.452,225.394,117.343,237.267,86.565,237.267z"/>
</g>
<g>
	<path d="M287.52,237.267c-36.834,0-51.13-22.537-51.13-56.459V67.395h18.9v109.774c0,23.99,3.878,44.346,32.958,44.346
		c30.775,0,34.652-18.66,34.652-44.346V67.395h18.902v113.409C341.801,217.88,327.019,237.267,287.52,237.267z"/>
</g>
<g>
	<path d="M478.855,162.629h-19.87v74.638h-18.903V70.061h38.773c31.018,0,53.068,11.631,53.068,46.285
		C531.926,149.787,509.632,162.629,478.855,162.629z M474.736,85.812h-15.75v61.067h20.354c20.601,0,33.687-8.482,33.687-30.292
		C513.025,90.658,496.789,85.812,474.736,85.812z"/>
</g>
<g>
	<path d="M635.857,237.267V70.061h80.936v15.751h-62.035v55.978h59.128v15.751h-59.128v63.974h64.216v15.752H635.857
		L635.857,237.267z"/>
</g>
<path fill="#FFFFFF" d="M906.542,237.267l-8.24-38.529c-4.846-23.021-9.451-35.862-35.861-35.862h-17.45v74.396h-18.9V70.061h41.439
	c27.383,0,53.311,10.42,53.311,42.165c0,24.233-11.389,36.349-33.924,41.922v0.485c22.051,5.815,24.715,16.962,28.834,36.834
	l9.693,45.8H906.542L906.542,237.267z M859.043,85.812h-14.055v61.309h10.42c22.779,0,46.523-5.088,46.523-32.958
	C901.936,86.54,880.612,85.812,859.043,85.812z"/>
<path fill="#FFFFFF" d="M1086.348,237.267l-8.236-38.529c-4.848-23.021-9.449-35.862-35.865-35.862h-17.447v74.396H1005.9V70.061
	h41.438c27.383,0,53.312,10.42,53.312,42.165c0,24.233-11.393,36.349-33.928,41.922v0.485c22.055,5.815,24.715,16.962,28.836,36.834
	l9.693,45.8H1086.348L1086.348,237.267z M1038.854,85.812h-14.057v61.309h10.42c22.779,0,46.527-5.088,46.527-32.958
	C1081.745,86.54,1060.42,85.812,1038.854,85.812z"/>
<path fill="#FFFFFF" d="M1262.038,237.267l-8.24-38.529c-4.844-23.021-9.449-35.862-35.863-35.862h-17.445v74.396h-18.9V70.061
	h41.438c27.384,0,53.312,10.42,53.312,42.165c0,24.233-11.391,36.349-33.926,41.922v0.485c22.051,5.815,24.717,16.962,28.836,36.834
	l9.692,45.8H1262.038L1262.038,237.267z M1214.542,85.812h-14.055v61.309h10.42c22.775,0,46.523-5.088,46.523-32.958
	C1257.434,86.54,1236.11,85.812,1214.542,85.812z"/>
<g enable-background="new    ">
	<path d="M495.827,353.311l-7.184-28.312h3.865l3.361,14.325c0.84,3.527,1.596,7.057,2.1,9.787h0.084
		c0.462-2.814,1.344-6.176,2.312-9.829l3.78-14.283h3.823l3.444,14.367c0.798,3.359,1.555,6.721,1.975,9.703h0.084
		c0.588-3.108,1.387-6.26,2.27-9.787l3.737-14.283h3.739l-8.022,28.312h-3.823l-3.57-14.743c-0.882-3.613-1.47-6.387-1.849-9.242
		h-0.084c-0.504,2.813-1.134,5.587-2.185,9.242l-4.032,14.743H495.827L495.827,353.311z"/>
	<path d="M541.397,340.036h-11.006v10.208h12.267v3.065h-15.921v-28.312h15.291v3.067h-11.637v8.946h11.006V340.036z"/>
	<path d="M547.401,325.376c2.227-0.337,4.873-0.589,7.771-0.589c5.251,0,8.99,1.219,11.468,3.529
		c2.521,2.311,3.991,5.587,3.991,10.165c0,4.62-1.428,8.401-4.075,11.007c-2.646,2.646-7.016,4.074-12.519,4.074
		c-2.604,0-4.789-0.127-6.638-0.337v-27.85H547.401z M551.056,350.412c0.924,0.168,2.27,0.21,3.697,0.21
		c7.812,0,12.056-4.369,12.056-12.014c0.042-6.681-3.738-10.924-11.468-10.924c-1.89,0-3.318,0.169-4.285,0.38V350.412z"/>
	<path d="M575.372,353.311v-28.312h3.991l9.073,14.325c2.102,3.317,3.739,6.301,5.083,9.199l0.084-0.042
		c-0.336-3.78-0.42-7.226-0.42-11.637v-11.847h3.444v28.313h-3.697l-8.989-14.366c-1.975-3.151-3.864-6.387-5.293-9.452
		l-0.126,0.042c0.21,3.57,0.294,6.974,0.294,11.679v12.098H575.372L575.372,353.311z"/>
	<path d="M617.669,340.036h-11.006v10.208h12.266v3.065h-15.921v-28.312h15.291v3.067h-11.636v8.946h11.006V340.036L617.669,340.036
		z"/>
	<path d="M623.168,348.857c1.638,1.009,4.033,1.849,6.553,1.849c3.739,0,5.923-1.975,5.923-4.831c0-2.646-1.512-4.158-5.335-5.629
		c-4.621-1.638-7.477-4.032-7.477-8.023c0-4.41,3.653-7.688,9.158-7.688c2.897,0,4.999,0.673,6.259,1.387l-1.008,2.982
		c-0.925-0.504-2.814-1.346-5.377-1.346c-3.864,0-5.336,2.312-5.336,4.243c0,2.646,1.724,3.948,5.63,5.461
		c4.789,1.85,7.225,4.159,7.225,8.317c0,4.369-3.234,8.148-9.914,8.148c-2.729,0-5.713-0.798-7.226-1.807L623.168,348.857z"/>
	<path d="M644.377,325.376c2.227-0.337,4.873-0.589,7.771-0.589c5.252,0,8.99,1.219,11.469,3.529
		c2.521,2.311,3.991,5.587,3.991,10.165c0,4.62-1.429,8.401-4.075,11.007c-2.646,2.646-7.017,4.074-12.52,4.074
		c-2.604,0-4.789-0.127-6.637-0.337L644.377,325.376L644.377,325.376z M648.032,350.412c0.924,0.168,2.269,0.21,3.696,0.21
		c7.813,0,12.057-4.369,12.057-12.014c0.042-6.681-3.739-10.924-11.468-10.924c-1.891,0-3.318,0.169-4.285,0.38V350.412z"/>
	<path d="M676.34,344.405l-2.94,8.904h-3.78l9.62-28.312h4.41l9.662,28.312h-3.906l-3.024-8.904H676.34z M685.624,341.549
		l-2.772-8.148c-0.63-1.85-1.05-3.529-1.47-5.167h-0.084c-0.42,1.68-0.882,3.401-1.428,5.125l-2.772,8.19H685.624L685.624,341.549z"
		/>
	<path d="M700.448,353.311v-12.014l-8.948-16.3h4.159l3.99,7.812c1.092,2.144,1.933,3.865,2.814,5.841h0.084
		c0.798-1.85,1.764-3.697,2.856-5.841l4.074-7.812h4.159l-9.494,16.258v12.056H700.448z"/>
	<path d="M742.323,341.381v2.521H723.84v-2.521H742.323z"/>
	<path d="M755.676,325.376c1.597-0.337,4.116-0.589,6.679-0.589c3.655,0,6.009,0.631,7.771,2.059
		c1.471,1.094,2.354,2.772,2.354,4.999c0,2.73-1.807,5.125-4.789,6.218v0.084c2.688,0.673,5.84,2.897,5.84,7.1
		c0,2.437-0.967,4.285-2.396,5.671c-1.975,1.807-5.167,2.646-9.788,2.646c-2.52,0-4.453-0.169-5.671-0.337V325.376L755.676,325.376z
		 M759.331,336.97h3.318c3.863,0,6.133-2.017,6.133-4.747c0-3.317-2.521-4.621-6.217-4.621c-1.682,0-2.646,0.126-3.234,0.254V336.97
		z M759.331,350.538c0.714,0.126,1.764,0.168,3.065,0.168c3.78,0,7.269-1.386,7.269-5.503c0-3.864-3.319-5.461-7.312-5.461h-3.022
		V350.538z"/>
	<path d="M793.101,340.036h-11.006v10.208h12.267v3.065H778.44v-28.312h15.291v3.067h-11.637v8.946h11.006V340.036z"/>
	<path d="M799.103,325.376c1.851-0.379,4.496-0.589,7.017-0.589c3.905,0,6.428,0.715,8.19,2.311c1.43,1.262,2.228,3.192,2.228,5.377
		c0,3.739-2.353,6.219-5.335,7.227v0.126c2.185,0.756,3.486,2.771,4.158,5.713c0.925,3.949,1.597,6.68,2.185,7.771h-3.78
		c-0.462-0.799-1.093-3.234-1.89-6.765c-0.841-3.906-2.354-5.377-5.672-5.503h-3.444v12.268h-3.655L799.103,325.376L799.103,325.376
		z M802.758,338.271h3.739c3.906,0,6.385-2.143,6.385-5.378c0-3.653-2.646-5.251-6.512-5.293c-1.764,0-3.023,0.168-3.612,0.337
		V338.271z"/>
	<path d="M821.698,324.997h3.654v25.247h12.1v3.065h-15.754V324.997z"/>
	<path d="M845.177,324.997v28.312h-3.654v-28.312H845.177z"/>
	<path d="M851.56,353.311v-28.312h3.991l9.073,14.325c2.102,3.317,3.739,6.301,5.084,9.199l0.084-0.042
		c-0.336-3.78-0.42-7.226-0.42-11.637v-11.847h3.443v28.313h-3.696l-8.989-14.366c-1.975-3.151-3.865-6.387-5.293-9.452
		l-0.126,0.042c0.21,3.57,0.294,6.974,0.294,11.679v12.098H851.56L851.56,353.311z"/>
</g>
</svg>
